%TF.GenerationSoftware,KiCad,Pcbnew,(7.0.0)*%
%TF.CreationDate,2023-03-23T16:28:50+01:00*%
%TF.ProjectId,PCH-1000JIG,5043482d-3130-4303-904a-49472e6b6963,rev?*%
%TF.SameCoordinates,Original*%
%TF.FileFunction,Copper,L1,Top*%
%TF.FilePolarity,Positive*%
%FSLAX46Y46*%
G04 Gerber Fmt 4.6, Leading zero omitted, Abs format (unit mm)*
G04 Created by KiCad (PCBNEW (7.0.0)) date 2023-03-23 16:28:50*
%MOMM*%
%LPD*%
G01*
G04 APERTURE LIST*
%TA.AperFunction,ComponentPad*%
%ADD10C,1.600000*%
%TD*%
%TA.AperFunction,ComponentPad*%
%ADD11O,1.600000X1.600000*%
%TD*%
%TA.AperFunction,ComponentPad*%
%ADD12R,1.350000X1.350000*%
%TD*%
%TA.AperFunction,ComponentPad*%
%ADD13O,1.350000X1.350000*%
%TD*%
%TA.AperFunction,SMDPad,CuDef*%
%ADD14C,2.000000*%
%TD*%
%TA.AperFunction,ViaPad*%
%ADD15C,0.800000*%
%TD*%
%TA.AperFunction,Conductor*%
%ADD16C,0.250000*%
%TD*%
G04 APERTURE END LIST*
D10*
%TO.P,330 Ohms,1*%
%TO.N,N/C*%
X22860000Y-36380000D03*
D11*
%TO.P,330 Ohms,2*%
X35559999Y-36379999D03*
%TD*%
D12*
%TO.P,Pin Header,1*%
%TO.N,N/C*%
X20319999Y-63779999D03*
D13*
%TO.P,Pin Header,2*%
X20319999Y-61779999D03*
%TO.P,Pin Header,3*%
X22319999Y-63779999D03*
%TO.P,Pin Header,4*%
X22319999Y-61779999D03*
%TO.P,Pin Header,5*%
X24319999Y-63779999D03*
%TO.P,Pin Header,6*%
X24319999Y-61779999D03*
%TO.P,Pin Header,7*%
X26319999Y-63779999D03*
%TO.P,Pin Header,8*%
X26319999Y-61779999D03*
%TO.P,Pin Header,9*%
X28319999Y-63779999D03*
%TO.P,Pin Header,10*%
X28319999Y-61779999D03*
%TD*%
D14*
%TO.P,3v3 VCC,1*%
%TO.N,N/C*%
X81280000Y-51620000D03*
%TD*%
D10*
%TO.P,1k Ohms,1*%
%TO.N,N/C*%
X21590000Y-21140000D03*
D11*
%TO.P,1k Ohms,2*%
X34289999Y-21139999D03*
%TD*%
D14*
%TO.P,Vita TX/7,1*%
%TO.N,N/C*%
X50800000Y-51620000D03*
%TD*%
%TO.P,PC RX,1*%
%TO.N,N/C*%
X20320000Y-51620000D03*
%TD*%
%TO.P,UDC 12,1*%
%TO.N,N/C*%
X73660000Y-51620000D03*
%TD*%
%TO.P,UDC 3,1*%
%TO.N,N/C*%
X96520000Y-51620000D03*
%TD*%
%TO.P,3v3 GND,1*%
%TO.N,N/C*%
X88900000Y-51620000D03*
%TD*%
D10*
%TO.P,330 Ohms,1*%
%TO.N,N/C*%
X48260000Y-36380000D03*
D11*
%TO.P,330 Ohms,2*%
X60959999Y-36379999D03*
%TD*%
D14*
%TO.P,PC GND,1*%
%TO.N,N/C*%
X35560000Y-51620000D03*
%TD*%
D10*
%TO.P,1k Ohms,1*%
%TO.N,N/C*%
X43180000Y-21140000D03*
D11*
%TO.P,1k Ohms,2*%
X55879999Y-21139999D03*
%TD*%
D14*
%TO.P,UDC 11,1*%
%TO.N,N/C*%
X66040000Y-51620000D03*
%TD*%
%TO.P,PC TX,1*%
%TO.N,N/C*%
X27940000Y-51620000D03*
%TD*%
%TO.P,Vita RX/6,1*%
%TO.N,N/C*%
X58420000Y-51620000D03*
%TD*%
D10*
%TO.P,150 Ohms,1*%
%TO.N,N/C*%
X66040000Y-36380000D03*
D11*
%TO.P,150 Ohms,2*%
X78739999Y-36379999D03*
%TD*%
D15*
%TO.N,*%
X73660000Y-56700000D03*
X66040000Y-56700000D03*
X20320000Y-59240000D03*
X25400000Y-59240000D03*
X40640000Y-33840000D03*
X33020000Y-54160000D03*
X40640000Y-33840000D03*
X58420000Y-46540000D03*
X48260000Y-54160000D03*
X38100000Y-21140000D03*
X58420000Y-56700000D03*
X81280000Y-56700000D03*
X40640000Y-38920000D03*
X40640000Y-38920000D03*
X33020000Y-59240000D03*
X22860000Y-59240000D03*
X48260000Y-59240000D03*
%TD*%
D16*
%TO.N,*%
X35560000Y-51620000D02*
X40640000Y-46540000D01*
X53340000Y-21140000D02*
X55880000Y-21140000D01*
X17905000Y-66860000D02*
X21240000Y-66860000D01*
X88900000Y-51620000D02*
X96520000Y-51620000D01*
X20320000Y-56700000D02*
X20320000Y-51620000D01*
X81280000Y-56700000D02*
X81280000Y-51620000D01*
X66040000Y-41460000D02*
X63500000Y-38920000D01*
X78740000Y-36380000D02*
X78740000Y-41460000D01*
X22860000Y-56700000D02*
X27940000Y-51620000D01*
X66040000Y-51620000D02*
X66040000Y-41460000D01*
X88900000Y-61780000D02*
X28320000Y-61780000D01*
X73660000Y-51620000D02*
X73660000Y-41460000D01*
X28320000Y-61780000D02*
X26320000Y-61780000D01*
X38100000Y-21140000D02*
X43180000Y-21140000D01*
X40640000Y-46540000D02*
X40640000Y-38920000D01*
X73660000Y-56700000D02*
X73660000Y-51620000D01*
X20320000Y-59240000D02*
X17905000Y-61655000D01*
X40640000Y-33840000D02*
X53340000Y-21140000D01*
X22860000Y-59240000D02*
X22860000Y-56700000D01*
X17905000Y-61655000D02*
X17905000Y-66860000D01*
X38100000Y-21140000D02*
X34290000Y-21140000D01*
X33020000Y-51620000D02*
X35560000Y-51620000D01*
X20320000Y-59240000D02*
X20320000Y-56700000D01*
X66040000Y-36380000D02*
X63500000Y-36380000D01*
X48260000Y-54160000D02*
X50800000Y-51620000D01*
X21240000Y-66860000D02*
X24320000Y-63780000D01*
X35560000Y-36380000D02*
X48260000Y-36380000D01*
X88900000Y-61780000D02*
X88900000Y-51620000D01*
X81280000Y-56700000D02*
X78740000Y-59240000D01*
X33020000Y-59240000D02*
X33020000Y-54160000D01*
X60960000Y-36380000D02*
X63500000Y-36380000D01*
X58420000Y-56700000D02*
X58420000Y-51620000D01*
X73660000Y-41460000D02*
X78740000Y-36380000D01*
X78740000Y-41460000D02*
X88900000Y-51620000D01*
X58420000Y-46540000D02*
X58420000Y-51620000D01*
X66040000Y-56700000D02*
X66040000Y-51620000D01*
X78740000Y-59240000D02*
X48260000Y-59240000D01*
X63500000Y-38920000D02*
X63500000Y-36380000D01*
X27940000Y-51620000D02*
X27940000Y-21140000D01*
X27940000Y-21140000D02*
X21590000Y-21140000D01*
X25400000Y-59240000D02*
X33020000Y-51620000D01*
X26320000Y-61780000D02*
X24320000Y-61780000D01*
%TD*%
M02*
