M48
; DRILL file {KiCad (7.0.0)} date Fri Mar 10 17:16:15 2023
; FORMAT={-:-/ absolute / inch / decimal}
; #@! TF.CreationDate,2023-03-10T17:16:15+01:00
; #@! TF.GenerationSoftware,Kicad,Pcbnew,(7.0.0)
; #@! TF.FileFunction,Plated,1,2,PTH
FMAT,2
INCH
; #@! TA.AperFunction,Plated,PTH,ViaDrill
T1C0.0157
; #@! TA.AperFunction,Plated,PTH,ComponentDrill
T2C0.0315
%
G90
G05
T1
X0.7Y-2.4
X0.8Y-2.4
X0.9Y-2.4
X1.2Y-2.2
X1.2Y-2.4
X1.4Y-0.9
X1.5Y-1.4
X1.5Y-1.4
X1.5Y-1.6
X1.5Y-1.6
X1.8Y-2.2
X1.8Y-2.4
X2.2Y-1.9
X2.2Y-2.3
X2.5Y-2.3
X2.8Y-2.3
X3.1Y-2.3
T2
X0.7Y-2.5
X0.7Y-2.5787
X0.75Y-0.9
X0.7787Y-2.5
X0.7787Y-2.5787
X0.8Y-1.5
X0.8575Y-2.5
X0.8575Y-2.5787
X0.9362Y-2.5
X0.9362Y-2.5787
X1.015Y-2.5
X1.015Y-2.5787
X1.25Y-0.9
X1.3Y-1.5
X1.6Y-0.9
X1.8Y-1.5
X2.1Y-0.9
X2.3Y-1.5
X2.5Y-1.5
X3.0Y-1.5
T0
M30
