%TF.GenerationSoftware,KiCad,Pcbnew,(7.0.0)*%
%TF.CreationDate,2023-02-24T13:42:32+01:00*%
%TF.ProjectId,PCH-1000JIG,5043482d-3130-4303-904a-49472e6b6963,rev?*%
%TF.SameCoordinates,Original*%
%TF.FileFunction,Drillmap*%
%TF.FilePolarity,Positive*%
%FSLAX45Y45*%
G04 Gerber Fmt 4.5, Leading zero omitted, Abs format (unit mm)*
G04 Created by KiCad (PCBNEW (7.0.0)) date 2023-02-24 13:42:32*
%MOMM*%
%LPD*%
G01*
G04 APERTURE LIST*
%ADD10C,0.100000*%
%ADD11C,0.200000*%
%ADD12C,0.040000*%
%ADD13C,0.050000*%
%ADD14C,0.080000*%
G04 APERTURE END LIST*
D10*
X1524000Y-1524000D02*
X9652000Y-1524000D01*
X9652000Y-1524000D02*
X9652000Y-7620000D01*
X9652000Y-7620000D02*
X1524000Y-7620000D01*
X1524000Y-7620000D02*
X1524000Y-1524000D01*
D11*
D12*
X1758000Y-6076000D02*
X1798000Y-6116000D01*
X1798000Y-6076000D02*
X1758000Y-6116000D01*
X2012000Y-6076000D02*
X2052000Y-6116000D01*
X2052000Y-6076000D02*
X2012000Y-6116000D01*
X2266000Y-6076000D02*
X2306000Y-6116000D01*
X2306000Y-6076000D02*
X2266000Y-6116000D01*
X3028000Y-5568000D02*
X3068000Y-5608000D01*
X3068000Y-5568000D02*
X3028000Y-5608000D01*
X3028000Y-6076000D02*
X3068000Y-6116000D01*
X3068000Y-6076000D02*
X3028000Y-6116000D01*
X3790000Y-2266000D02*
X3830000Y-2306000D01*
X3830000Y-2266000D02*
X3790000Y-2306000D01*
X3790000Y-3536000D02*
X3830000Y-3576000D01*
X3830000Y-3536000D02*
X3790000Y-3576000D01*
X3790000Y-3536000D02*
X3830000Y-3576000D01*
X3830000Y-3536000D02*
X3790000Y-3576000D01*
X3790000Y-4044000D02*
X3830000Y-4084000D01*
X3830000Y-4044000D02*
X3790000Y-4084000D01*
X3790000Y-4044000D02*
X3830000Y-4084000D01*
X3830000Y-4044000D02*
X3790000Y-4084000D01*
X4552000Y-5568000D02*
X4592000Y-5608000D01*
X4592000Y-5568000D02*
X4552000Y-5608000D01*
X4552000Y-6076000D02*
X4592000Y-6116000D01*
X4592000Y-6076000D02*
X4552000Y-6116000D01*
X5568000Y-4806000D02*
X5608000Y-4846000D01*
X5608000Y-4806000D02*
X5568000Y-4846000D01*
X5568000Y-5822000D02*
X5608000Y-5862000D01*
X5608000Y-5822000D02*
X5568000Y-5862000D01*
X6330000Y-5822000D02*
X6370000Y-5862000D01*
X6370000Y-5822000D02*
X6330000Y-5862000D01*
X7092000Y-5822000D02*
X7132000Y-5862000D01*
X7132000Y-5822000D02*
X7092000Y-5862000D01*
X7854000Y-5822000D02*
X7894000Y-5862000D01*
X7894000Y-5822000D02*
X7854000Y-5862000D01*
D13*
X1911000Y-6350000D02*
G75*
G03*
X1911000Y-6350000I-25000J0D01*
G01*
X1911000Y-6450000D02*
G75*
G03*
X1911000Y-6450000I-25000J0D01*
G01*
X2011000Y-6350000D02*
G75*
G03*
X2011000Y-6350000I-25000J0D01*
G01*
X2011000Y-6450000D02*
G75*
G03*
X2011000Y-6450000I-25000J0D01*
G01*
X2111000Y-6350000D02*
G75*
G03*
X2111000Y-6350000I-25000J0D01*
G01*
X2111000Y-6450000D02*
G75*
G03*
X2111000Y-6450000I-25000J0D01*
G01*
X2211000Y-6350000D02*
G75*
G03*
X2211000Y-6350000I-25000J0D01*
G01*
X2211000Y-6450000D02*
G75*
G03*
X2211000Y-6450000I-25000J0D01*
G01*
X2311000Y-6350000D02*
G75*
G03*
X2311000Y-6350000I-25000J0D01*
G01*
X2311000Y-6450000D02*
G75*
G03*
X2311000Y-6450000I-25000J0D01*
G01*
D14*
X2286000Y-2246000D02*
X2286000Y-2326000D01*
X2246000Y-2286000D02*
X2326000Y-2286000D01*
X2286000Y-3770000D02*
X2286000Y-3850000D01*
X2246000Y-3810000D02*
X2326000Y-3810000D01*
X2794000Y-2246000D02*
X2794000Y-2326000D01*
X2754000Y-2286000D02*
X2834000Y-2286000D01*
X2794000Y-3770000D02*
X2794000Y-3850000D01*
X2754000Y-3810000D02*
X2834000Y-3810000D01*
X4318000Y-2246000D02*
X4318000Y-2326000D01*
X4278000Y-2286000D02*
X4358000Y-2286000D01*
X4826000Y-2246000D02*
X4826000Y-2326000D01*
X4786000Y-2286000D02*
X4866000Y-2286000D01*
X4826000Y-3770000D02*
X4826000Y-3850000D01*
X4786000Y-3810000D02*
X4866000Y-3810000D01*
X5334000Y-3770000D02*
X5334000Y-3850000D01*
X5294000Y-3810000D02*
X5374000Y-3810000D01*
X6350000Y-3770000D02*
X6350000Y-3850000D01*
X6310000Y-3810000D02*
X6390000Y-3810000D01*
X6858000Y-3770000D02*
X6858000Y-3850000D01*
X6818000Y-3810000D02*
X6898000Y-3810000D01*
D11*
X1766619Y-7918476D02*
X1766619Y-7718476D01*
X1766619Y-7718476D02*
X1814238Y-7718476D01*
X1814238Y-7718476D02*
X1842809Y-7728000D01*
X1842809Y-7728000D02*
X1861857Y-7747048D01*
X1861857Y-7747048D02*
X1871381Y-7766095D01*
X1871381Y-7766095D02*
X1880905Y-7804190D01*
X1880905Y-7804190D02*
X1880905Y-7832762D01*
X1880905Y-7832762D02*
X1871381Y-7870857D01*
X1871381Y-7870857D02*
X1861857Y-7889905D01*
X1861857Y-7889905D02*
X1842809Y-7908952D01*
X1842809Y-7908952D02*
X1814238Y-7918476D01*
X1814238Y-7918476D02*
X1766619Y-7918476D01*
X1966619Y-7918476D02*
X1966619Y-7785143D01*
X1966619Y-7823238D02*
X1976143Y-7804190D01*
X1976143Y-7804190D02*
X1985667Y-7794667D01*
X1985667Y-7794667D02*
X2004714Y-7785143D01*
X2004714Y-7785143D02*
X2023762Y-7785143D01*
X2090428Y-7918476D02*
X2090428Y-7785143D01*
X2090428Y-7718476D02*
X2080905Y-7728000D01*
X2080905Y-7728000D02*
X2090428Y-7737524D01*
X2090428Y-7737524D02*
X2099952Y-7728000D01*
X2099952Y-7728000D02*
X2090428Y-7718476D01*
X2090428Y-7718476D02*
X2090428Y-7737524D01*
X2214238Y-7918476D02*
X2195190Y-7908952D01*
X2195190Y-7908952D02*
X2185667Y-7889905D01*
X2185667Y-7889905D02*
X2185667Y-7718476D01*
X2319000Y-7918476D02*
X2299952Y-7908952D01*
X2299952Y-7908952D02*
X2290429Y-7889905D01*
X2290429Y-7889905D02*
X2290429Y-7718476D01*
X2515190Y-7918476D02*
X2515190Y-7718476D01*
X2515190Y-7718476D02*
X2581857Y-7861333D01*
X2581857Y-7861333D02*
X2648524Y-7718476D01*
X2648524Y-7718476D02*
X2648524Y-7918476D01*
X2829476Y-7918476D02*
X2829476Y-7813714D01*
X2829476Y-7813714D02*
X2819952Y-7794667D01*
X2819952Y-7794667D02*
X2800905Y-7785143D01*
X2800905Y-7785143D02*
X2762809Y-7785143D01*
X2762809Y-7785143D02*
X2743762Y-7794667D01*
X2829476Y-7908952D02*
X2810428Y-7918476D01*
X2810428Y-7918476D02*
X2762809Y-7918476D01*
X2762809Y-7918476D02*
X2743762Y-7908952D01*
X2743762Y-7908952D02*
X2734238Y-7889905D01*
X2734238Y-7889905D02*
X2734238Y-7870857D01*
X2734238Y-7870857D02*
X2743762Y-7851809D01*
X2743762Y-7851809D02*
X2762809Y-7842286D01*
X2762809Y-7842286D02*
X2810428Y-7842286D01*
X2810428Y-7842286D02*
X2829476Y-7832762D01*
X2924714Y-7785143D02*
X2924714Y-7985143D01*
X2924714Y-7794667D02*
X2943762Y-7785143D01*
X2943762Y-7785143D02*
X2981857Y-7785143D01*
X2981857Y-7785143D02*
X3000905Y-7794667D01*
X3000905Y-7794667D02*
X3010428Y-7804190D01*
X3010428Y-7804190D02*
X3019952Y-7823238D01*
X3019952Y-7823238D02*
X3019952Y-7880381D01*
X3019952Y-7880381D02*
X3010428Y-7899428D01*
X3010428Y-7899428D02*
X3000905Y-7908952D01*
X3000905Y-7908952D02*
X2981857Y-7918476D01*
X2981857Y-7918476D02*
X2943762Y-7918476D01*
X2943762Y-7918476D02*
X2924714Y-7908952D01*
X3105667Y-7899428D02*
X3115190Y-7908952D01*
X3115190Y-7908952D02*
X3105667Y-7918476D01*
X3105667Y-7918476D02*
X3096143Y-7908952D01*
X3096143Y-7908952D02*
X3105667Y-7899428D01*
X3105667Y-7899428D02*
X3105667Y-7918476D01*
X3105667Y-7794667D02*
X3115190Y-7804190D01*
X3115190Y-7804190D02*
X3105667Y-7813714D01*
X3105667Y-7813714D02*
X3096143Y-7804190D01*
X3096143Y-7804190D02*
X3105667Y-7794667D01*
X3105667Y-7794667D02*
X3105667Y-7813714D01*
D12*
X1479000Y-8245000D02*
X1519000Y-8285000D01*
X1519000Y-8245000D02*
X1479000Y-8285000D01*
D11*
X1804714Y-8138476D02*
X1823762Y-8138476D01*
X1823762Y-8138476D02*
X1842809Y-8148000D01*
X1842809Y-8148000D02*
X1852333Y-8157524D01*
X1852333Y-8157524D02*
X1861857Y-8176571D01*
X1861857Y-8176571D02*
X1871381Y-8214667D01*
X1871381Y-8214667D02*
X1871381Y-8262286D01*
X1871381Y-8262286D02*
X1861857Y-8300381D01*
X1861857Y-8300381D02*
X1852333Y-8319428D01*
X1852333Y-8319428D02*
X1842809Y-8328952D01*
X1842809Y-8328952D02*
X1823762Y-8338476D01*
X1823762Y-8338476D02*
X1804714Y-8338476D01*
X1804714Y-8338476D02*
X1785667Y-8328952D01*
X1785667Y-8328952D02*
X1776143Y-8319428D01*
X1776143Y-8319428D02*
X1766619Y-8300381D01*
X1766619Y-8300381D02*
X1757095Y-8262286D01*
X1757095Y-8262286D02*
X1757095Y-8214667D01*
X1757095Y-8214667D02*
X1766619Y-8176571D01*
X1766619Y-8176571D02*
X1776143Y-8157524D01*
X1776143Y-8157524D02*
X1785667Y-8148000D01*
X1785667Y-8148000D02*
X1804714Y-8138476D01*
X1957095Y-8319428D02*
X1966619Y-8328952D01*
X1966619Y-8328952D02*
X1957095Y-8338476D01*
X1957095Y-8338476D02*
X1947571Y-8328952D01*
X1947571Y-8328952D02*
X1957095Y-8319428D01*
X1957095Y-8319428D02*
X1957095Y-8338476D01*
X2138048Y-8205143D02*
X2138048Y-8338476D01*
X2090428Y-8128952D02*
X2042809Y-8271809D01*
X2042809Y-8271809D02*
X2166619Y-8271809D01*
X2280905Y-8138476D02*
X2299952Y-8138476D01*
X2299952Y-8138476D02*
X2319000Y-8148000D01*
X2319000Y-8148000D02*
X2328524Y-8157524D01*
X2328524Y-8157524D02*
X2338048Y-8176571D01*
X2338048Y-8176571D02*
X2347571Y-8214667D01*
X2347571Y-8214667D02*
X2347571Y-8262286D01*
X2347571Y-8262286D02*
X2338048Y-8300381D01*
X2338048Y-8300381D02*
X2328524Y-8319428D01*
X2328524Y-8319428D02*
X2319000Y-8328952D01*
X2319000Y-8328952D02*
X2299952Y-8338476D01*
X2299952Y-8338476D02*
X2280905Y-8338476D01*
X2280905Y-8338476D02*
X2261857Y-8328952D01*
X2261857Y-8328952D02*
X2252333Y-8319428D01*
X2252333Y-8319428D02*
X2242810Y-8300381D01*
X2242810Y-8300381D02*
X2233286Y-8262286D01*
X2233286Y-8262286D02*
X2233286Y-8214667D01*
X2233286Y-8214667D02*
X2242810Y-8176571D01*
X2242810Y-8176571D02*
X2252333Y-8157524D01*
X2252333Y-8157524D02*
X2261857Y-8148000D01*
X2261857Y-8148000D02*
X2280905Y-8138476D01*
X2471381Y-8138476D02*
X2490429Y-8138476D01*
X2490429Y-8138476D02*
X2509476Y-8148000D01*
X2509476Y-8148000D02*
X2519000Y-8157524D01*
X2519000Y-8157524D02*
X2528524Y-8176571D01*
X2528524Y-8176571D02*
X2538048Y-8214667D01*
X2538048Y-8214667D02*
X2538048Y-8262286D01*
X2538048Y-8262286D02*
X2528524Y-8300381D01*
X2528524Y-8300381D02*
X2519000Y-8319428D01*
X2519000Y-8319428D02*
X2509476Y-8328952D01*
X2509476Y-8328952D02*
X2490429Y-8338476D01*
X2490429Y-8338476D02*
X2471381Y-8338476D01*
X2471381Y-8338476D02*
X2452333Y-8328952D01*
X2452333Y-8328952D02*
X2442810Y-8319428D01*
X2442810Y-8319428D02*
X2433286Y-8300381D01*
X2433286Y-8300381D02*
X2423762Y-8262286D01*
X2423762Y-8262286D02*
X2423762Y-8214667D01*
X2423762Y-8214667D02*
X2433286Y-8176571D01*
X2433286Y-8176571D02*
X2442810Y-8157524D01*
X2442810Y-8157524D02*
X2452333Y-8148000D01*
X2452333Y-8148000D02*
X2471381Y-8138476D01*
X2623762Y-8338476D02*
X2623762Y-8205143D01*
X2623762Y-8224190D02*
X2633286Y-8214667D01*
X2633286Y-8214667D02*
X2652333Y-8205143D01*
X2652333Y-8205143D02*
X2680905Y-8205143D01*
X2680905Y-8205143D02*
X2699952Y-8214667D01*
X2699952Y-8214667D02*
X2709476Y-8233714D01*
X2709476Y-8233714D02*
X2709476Y-8338476D01*
X2709476Y-8233714D02*
X2719000Y-8214667D01*
X2719000Y-8214667D02*
X2738048Y-8205143D01*
X2738048Y-8205143D02*
X2766619Y-8205143D01*
X2766619Y-8205143D02*
X2785667Y-8214667D01*
X2785667Y-8214667D02*
X2795191Y-8233714D01*
X2795191Y-8233714D02*
X2795191Y-8338476D01*
X2890429Y-8338476D02*
X2890429Y-8205143D01*
X2890429Y-8224190D02*
X2899952Y-8214667D01*
X2899952Y-8214667D02*
X2919000Y-8205143D01*
X2919000Y-8205143D02*
X2947571Y-8205143D01*
X2947571Y-8205143D02*
X2966619Y-8214667D01*
X2966619Y-8214667D02*
X2976143Y-8233714D01*
X2976143Y-8233714D02*
X2976143Y-8338476D01*
X2976143Y-8233714D02*
X2985667Y-8214667D01*
X2985667Y-8214667D02*
X3004714Y-8205143D01*
X3004714Y-8205143D02*
X3033286Y-8205143D01*
X3033286Y-8205143D02*
X3052333Y-8214667D01*
X3052333Y-8214667D02*
X3061857Y-8233714D01*
X3061857Y-8233714D02*
X3061857Y-8338476D01*
X3419952Y-8128952D02*
X3248524Y-8386095D01*
X3644714Y-8138476D02*
X3663762Y-8138476D01*
X3663762Y-8138476D02*
X3682810Y-8148000D01*
X3682810Y-8148000D02*
X3692333Y-8157524D01*
X3692333Y-8157524D02*
X3701857Y-8176571D01*
X3701857Y-8176571D02*
X3711381Y-8214667D01*
X3711381Y-8214667D02*
X3711381Y-8262286D01*
X3711381Y-8262286D02*
X3701857Y-8300381D01*
X3701857Y-8300381D02*
X3692333Y-8319428D01*
X3692333Y-8319428D02*
X3682810Y-8328952D01*
X3682810Y-8328952D02*
X3663762Y-8338476D01*
X3663762Y-8338476D02*
X3644714Y-8338476D01*
X3644714Y-8338476D02*
X3625667Y-8328952D01*
X3625667Y-8328952D02*
X3616143Y-8319428D01*
X3616143Y-8319428D02*
X3606619Y-8300381D01*
X3606619Y-8300381D02*
X3597095Y-8262286D01*
X3597095Y-8262286D02*
X3597095Y-8214667D01*
X3597095Y-8214667D02*
X3606619Y-8176571D01*
X3606619Y-8176571D02*
X3616143Y-8157524D01*
X3616143Y-8157524D02*
X3625667Y-8148000D01*
X3625667Y-8148000D02*
X3644714Y-8138476D01*
X3797095Y-8319428D02*
X3806619Y-8328952D01*
X3806619Y-8328952D02*
X3797095Y-8338476D01*
X3797095Y-8338476D02*
X3787571Y-8328952D01*
X3787571Y-8328952D02*
X3797095Y-8319428D01*
X3797095Y-8319428D02*
X3797095Y-8338476D01*
X3930429Y-8138476D02*
X3949476Y-8138476D01*
X3949476Y-8138476D02*
X3968524Y-8148000D01*
X3968524Y-8148000D02*
X3978048Y-8157524D01*
X3978048Y-8157524D02*
X3987571Y-8176571D01*
X3987571Y-8176571D02*
X3997095Y-8214667D01*
X3997095Y-8214667D02*
X3997095Y-8262286D01*
X3997095Y-8262286D02*
X3987571Y-8300381D01*
X3987571Y-8300381D02*
X3978048Y-8319428D01*
X3978048Y-8319428D02*
X3968524Y-8328952D01*
X3968524Y-8328952D02*
X3949476Y-8338476D01*
X3949476Y-8338476D02*
X3930429Y-8338476D01*
X3930429Y-8338476D02*
X3911381Y-8328952D01*
X3911381Y-8328952D02*
X3901857Y-8319428D01*
X3901857Y-8319428D02*
X3892333Y-8300381D01*
X3892333Y-8300381D02*
X3882810Y-8262286D01*
X3882810Y-8262286D02*
X3882810Y-8214667D01*
X3882810Y-8214667D02*
X3892333Y-8176571D01*
X3892333Y-8176571D02*
X3901857Y-8157524D01*
X3901857Y-8157524D02*
X3911381Y-8148000D01*
X3911381Y-8148000D02*
X3930429Y-8138476D01*
X4187571Y-8338476D02*
X4073286Y-8338476D01*
X4130429Y-8338476D02*
X4130429Y-8138476D01*
X4130429Y-8138476D02*
X4111381Y-8167048D01*
X4111381Y-8167048D02*
X4092333Y-8186095D01*
X4092333Y-8186095D02*
X4073286Y-8195619D01*
X4368524Y-8138476D02*
X4273286Y-8138476D01*
X4273286Y-8138476D02*
X4263762Y-8233714D01*
X4263762Y-8233714D02*
X4273286Y-8224190D01*
X4273286Y-8224190D02*
X4292333Y-8214667D01*
X4292333Y-8214667D02*
X4339953Y-8214667D01*
X4339953Y-8214667D02*
X4359000Y-8224190D01*
X4359000Y-8224190D02*
X4368524Y-8233714D01*
X4368524Y-8233714D02*
X4378048Y-8252762D01*
X4378048Y-8252762D02*
X4378048Y-8300381D01*
X4378048Y-8300381D02*
X4368524Y-8319428D01*
X4368524Y-8319428D02*
X4359000Y-8328952D01*
X4359000Y-8328952D02*
X4339953Y-8338476D01*
X4339953Y-8338476D02*
X4292333Y-8338476D01*
X4292333Y-8338476D02*
X4273286Y-8328952D01*
X4273286Y-8328952D02*
X4263762Y-8319428D01*
X4444714Y-8138476D02*
X4578048Y-8138476D01*
X4578048Y-8138476D02*
X4492333Y-8338476D01*
X4644714Y-8138476D02*
X4644714Y-8176571D01*
X4720905Y-8138476D02*
X4720905Y-8176571D01*
X4983762Y-8414667D02*
X4974238Y-8405143D01*
X4974238Y-8405143D02*
X4955191Y-8376571D01*
X4955191Y-8376571D02*
X4945667Y-8357524D01*
X4945667Y-8357524D02*
X4936143Y-8328952D01*
X4936143Y-8328952D02*
X4926619Y-8281333D01*
X4926619Y-8281333D02*
X4926619Y-8243238D01*
X4926619Y-8243238D02*
X4936143Y-8195619D01*
X4936143Y-8195619D02*
X4945667Y-8167048D01*
X4945667Y-8167048D02*
X4955191Y-8148000D01*
X4955191Y-8148000D02*
X4974238Y-8119428D01*
X4974238Y-8119428D02*
X4983762Y-8109905D01*
X5164714Y-8338476D02*
X5050429Y-8338476D01*
X5107572Y-8338476D02*
X5107572Y-8138476D01*
X5107572Y-8138476D02*
X5088524Y-8167048D01*
X5088524Y-8167048D02*
X5069476Y-8186095D01*
X5069476Y-8186095D02*
X5050429Y-8195619D01*
X5231381Y-8138476D02*
X5364714Y-8138476D01*
X5364714Y-8138476D02*
X5279000Y-8338476D01*
X5560905Y-8338476D02*
X5560905Y-8138476D01*
X5646619Y-8338476D02*
X5646619Y-8233714D01*
X5646619Y-8233714D02*
X5637095Y-8214667D01*
X5637095Y-8214667D02*
X5618048Y-8205143D01*
X5618048Y-8205143D02*
X5589476Y-8205143D01*
X5589476Y-8205143D02*
X5570429Y-8214667D01*
X5570429Y-8214667D02*
X5560905Y-8224190D01*
X5770429Y-8338476D02*
X5751381Y-8328952D01*
X5751381Y-8328952D02*
X5741857Y-8319428D01*
X5741857Y-8319428D02*
X5732333Y-8300381D01*
X5732333Y-8300381D02*
X5732333Y-8243238D01*
X5732333Y-8243238D02*
X5741857Y-8224190D01*
X5741857Y-8224190D02*
X5751381Y-8214667D01*
X5751381Y-8214667D02*
X5770429Y-8205143D01*
X5770429Y-8205143D02*
X5799000Y-8205143D01*
X5799000Y-8205143D02*
X5818048Y-8214667D01*
X5818048Y-8214667D02*
X5827572Y-8224190D01*
X5827572Y-8224190D02*
X5837095Y-8243238D01*
X5837095Y-8243238D02*
X5837095Y-8300381D01*
X5837095Y-8300381D02*
X5827572Y-8319428D01*
X5827572Y-8319428D02*
X5818048Y-8328952D01*
X5818048Y-8328952D02*
X5799000Y-8338476D01*
X5799000Y-8338476D02*
X5770429Y-8338476D01*
X5951381Y-8338476D02*
X5932333Y-8328952D01*
X5932333Y-8328952D02*
X5922810Y-8309905D01*
X5922810Y-8309905D02*
X5922810Y-8138476D01*
X6103762Y-8328952D02*
X6084714Y-8338476D01*
X6084714Y-8338476D02*
X6046619Y-8338476D01*
X6046619Y-8338476D02*
X6027572Y-8328952D01*
X6027572Y-8328952D02*
X6018048Y-8309905D01*
X6018048Y-8309905D02*
X6018048Y-8233714D01*
X6018048Y-8233714D02*
X6027572Y-8214667D01*
X6027572Y-8214667D02*
X6046619Y-8205143D01*
X6046619Y-8205143D02*
X6084714Y-8205143D01*
X6084714Y-8205143D02*
X6103762Y-8214667D01*
X6103762Y-8214667D02*
X6113286Y-8233714D01*
X6113286Y-8233714D02*
X6113286Y-8252762D01*
X6113286Y-8252762D02*
X6018048Y-8271809D01*
X6189476Y-8328952D02*
X6208524Y-8338476D01*
X6208524Y-8338476D02*
X6246619Y-8338476D01*
X6246619Y-8338476D02*
X6265667Y-8328952D01*
X6265667Y-8328952D02*
X6275191Y-8309905D01*
X6275191Y-8309905D02*
X6275191Y-8300381D01*
X6275191Y-8300381D02*
X6265667Y-8281333D01*
X6265667Y-8281333D02*
X6246619Y-8271809D01*
X6246619Y-8271809D02*
X6218048Y-8271809D01*
X6218048Y-8271809D02*
X6199000Y-8262286D01*
X6199000Y-8262286D02*
X6189476Y-8243238D01*
X6189476Y-8243238D02*
X6189476Y-8233714D01*
X6189476Y-8233714D02*
X6199000Y-8214667D01*
X6199000Y-8214667D02*
X6218048Y-8205143D01*
X6218048Y-8205143D02*
X6246619Y-8205143D01*
X6246619Y-8205143D02*
X6265667Y-8214667D01*
X6341857Y-8414667D02*
X6351381Y-8405143D01*
X6351381Y-8405143D02*
X6370429Y-8376571D01*
X6370429Y-8376571D02*
X6379953Y-8357524D01*
X6379953Y-8357524D02*
X6389476Y-8328952D01*
X6389476Y-8328952D02*
X6399000Y-8281333D01*
X6399000Y-8281333D02*
X6399000Y-8243238D01*
X6399000Y-8243238D02*
X6389476Y-8195619D01*
X6389476Y-8195619D02*
X6379953Y-8167048D01*
X6379953Y-8167048D02*
X6370429Y-8148000D01*
X6370429Y-8148000D02*
X6351381Y-8119428D01*
X6351381Y-8119428D02*
X6341857Y-8109905D01*
D13*
X1519000Y-8529000D02*
G75*
G03*
X1519000Y-8529000I-25000J0D01*
G01*
D11*
X1804714Y-8402476D02*
X1823762Y-8402476D01*
X1823762Y-8402476D02*
X1842809Y-8412000D01*
X1842809Y-8412000D02*
X1852333Y-8421524D01*
X1852333Y-8421524D02*
X1861857Y-8440571D01*
X1861857Y-8440571D02*
X1871381Y-8478667D01*
X1871381Y-8478667D02*
X1871381Y-8526286D01*
X1871381Y-8526286D02*
X1861857Y-8564381D01*
X1861857Y-8564381D02*
X1852333Y-8583429D01*
X1852333Y-8583429D02*
X1842809Y-8592952D01*
X1842809Y-8592952D02*
X1823762Y-8602476D01*
X1823762Y-8602476D02*
X1804714Y-8602476D01*
X1804714Y-8602476D02*
X1785667Y-8592952D01*
X1785667Y-8592952D02*
X1776143Y-8583429D01*
X1776143Y-8583429D02*
X1766619Y-8564381D01*
X1766619Y-8564381D02*
X1757095Y-8526286D01*
X1757095Y-8526286D02*
X1757095Y-8478667D01*
X1757095Y-8478667D02*
X1766619Y-8440571D01*
X1766619Y-8440571D02*
X1776143Y-8421524D01*
X1776143Y-8421524D02*
X1785667Y-8412000D01*
X1785667Y-8412000D02*
X1804714Y-8402476D01*
X1957095Y-8583429D02*
X1966619Y-8592952D01*
X1966619Y-8592952D02*
X1957095Y-8602476D01*
X1957095Y-8602476D02*
X1947571Y-8592952D01*
X1947571Y-8592952D02*
X1957095Y-8583429D01*
X1957095Y-8583429D02*
X1957095Y-8602476D01*
X2147571Y-8402476D02*
X2052333Y-8402476D01*
X2052333Y-8402476D02*
X2042809Y-8497714D01*
X2042809Y-8497714D02*
X2052333Y-8488190D01*
X2052333Y-8488190D02*
X2071381Y-8478667D01*
X2071381Y-8478667D02*
X2119000Y-8478667D01*
X2119000Y-8478667D02*
X2138048Y-8488190D01*
X2138048Y-8488190D02*
X2147571Y-8497714D01*
X2147571Y-8497714D02*
X2157095Y-8516762D01*
X2157095Y-8516762D02*
X2157095Y-8564381D01*
X2157095Y-8564381D02*
X2147571Y-8583429D01*
X2147571Y-8583429D02*
X2138048Y-8592952D01*
X2138048Y-8592952D02*
X2119000Y-8602476D01*
X2119000Y-8602476D02*
X2071381Y-8602476D01*
X2071381Y-8602476D02*
X2052333Y-8592952D01*
X2052333Y-8592952D02*
X2042809Y-8583429D01*
X2280905Y-8402476D02*
X2299952Y-8402476D01*
X2299952Y-8402476D02*
X2319000Y-8412000D01*
X2319000Y-8412000D02*
X2328524Y-8421524D01*
X2328524Y-8421524D02*
X2338048Y-8440571D01*
X2338048Y-8440571D02*
X2347571Y-8478667D01*
X2347571Y-8478667D02*
X2347571Y-8526286D01*
X2347571Y-8526286D02*
X2338048Y-8564381D01*
X2338048Y-8564381D02*
X2328524Y-8583429D01*
X2328524Y-8583429D02*
X2319000Y-8592952D01*
X2319000Y-8592952D02*
X2299952Y-8602476D01*
X2299952Y-8602476D02*
X2280905Y-8602476D01*
X2280905Y-8602476D02*
X2261857Y-8592952D01*
X2261857Y-8592952D02*
X2252333Y-8583429D01*
X2252333Y-8583429D02*
X2242810Y-8564381D01*
X2242810Y-8564381D02*
X2233286Y-8526286D01*
X2233286Y-8526286D02*
X2233286Y-8478667D01*
X2233286Y-8478667D02*
X2242810Y-8440571D01*
X2242810Y-8440571D02*
X2252333Y-8421524D01*
X2252333Y-8421524D02*
X2261857Y-8412000D01*
X2261857Y-8412000D02*
X2280905Y-8402476D01*
X2471381Y-8402476D02*
X2490429Y-8402476D01*
X2490429Y-8402476D02*
X2509476Y-8412000D01*
X2509476Y-8412000D02*
X2519000Y-8421524D01*
X2519000Y-8421524D02*
X2528524Y-8440571D01*
X2528524Y-8440571D02*
X2538048Y-8478667D01*
X2538048Y-8478667D02*
X2538048Y-8526286D01*
X2538048Y-8526286D02*
X2528524Y-8564381D01*
X2528524Y-8564381D02*
X2519000Y-8583429D01*
X2519000Y-8583429D02*
X2509476Y-8592952D01*
X2509476Y-8592952D02*
X2490429Y-8602476D01*
X2490429Y-8602476D02*
X2471381Y-8602476D01*
X2471381Y-8602476D02*
X2452333Y-8592952D01*
X2452333Y-8592952D02*
X2442810Y-8583429D01*
X2442810Y-8583429D02*
X2433286Y-8564381D01*
X2433286Y-8564381D02*
X2423762Y-8526286D01*
X2423762Y-8526286D02*
X2423762Y-8478667D01*
X2423762Y-8478667D02*
X2433286Y-8440571D01*
X2433286Y-8440571D02*
X2442810Y-8421524D01*
X2442810Y-8421524D02*
X2452333Y-8412000D01*
X2452333Y-8412000D02*
X2471381Y-8402476D01*
X2623762Y-8602476D02*
X2623762Y-8469143D01*
X2623762Y-8488190D02*
X2633286Y-8478667D01*
X2633286Y-8478667D02*
X2652333Y-8469143D01*
X2652333Y-8469143D02*
X2680905Y-8469143D01*
X2680905Y-8469143D02*
X2699952Y-8478667D01*
X2699952Y-8478667D02*
X2709476Y-8497714D01*
X2709476Y-8497714D02*
X2709476Y-8602476D01*
X2709476Y-8497714D02*
X2719000Y-8478667D01*
X2719000Y-8478667D02*
X2738048Y-8469143D01*
X2738048Y-8469143D02*
X2766619Y-8469143D01*
X2766619Y-8469143D02*
X2785667Y-8478667D01*
X2785667Y-8478667D02*
X2795191Y-8497714D01*
X2795191Y-8497714D02*
X2795191Y-8602476D01*
X2890429Y-8602476D02*
X2890429Y-8469143D01*
X2890429Y-8488190D02*
X2899952Y-8478667D01*
X2899952Y-8478667D02*
X2919000Y-8469143D01*
X2919000Y-8469143D02*
X2947571Y-8469143D01*
X2947571Y-8469143D02*
X2966619Y-8478667D01*
X2966619Y-8478667D02*
X2976143Y-8497714D01*
X2976143Y-8497714D02*
X2976143Y-8602476D01*
X2976143Y-8497714D02*
X2985667Y-8478667D01*
X2985667Y-8478667D02*
X3004714Y-8469143D01*
X3004714Y-8469143D02*
X3033286Y-8469143D01*
X3033286Y-8469143D02*
X3052333Y-8478667D01*
X3052333Y-8478667D02*
X3061857Y-8497714D01*
X3061857Y-8497714D02*
X3061857Y-8602476D01*
X3419952Y-8392952D02*
X3248524Y-8650095D01*
X3644714Y-8402476D02*
X3663762Y-8402476D01*
X3663762Y-8402476D02*
X3682810Y-8412000D01*
X3682810Y-8412000D02*
X3692333Y-8421524D01*
X3692333Y-8421524D02*
X3701857Y-8440571D01*
X3701857Y-8440571D02*
X3711381Y-8478667D01*
X3711381Y-8478667D02*
X3711381Y-8526286D01*
X3711381Y-8526286D02*
X3701857Y-8564381D01*
X3701857Y-8564381D02*
X3692333Y-8583429D01*
X3692333Y-8583429D02*
X3682810Y-8592952D01*
X3682810Y-8592952D02*
X3663762Y-8602476D01*
X3663762Y-8602476D02*
X3644714Y-8602476D01*
X3644714Y-8602476D02*
X3625667Y-8592952D01*
X3625667Y-8592952D02*
X3616143Y-8583429D01*
X3616143Y-8583429D02*
X3606619Y-8564381D01*
X3606619Y-8564381D02*
X3597095Y-8526286D01*
X3597095Y-8526286D02*
X3597095Y-8478667D01*
X3597095Y-8478667D02*
X3606619Y-8440571D01*
X3606619Y-8440571D02*
X3616143Y-8421524D01*
X3616143Y-8421524D02*
X3625667Y-8412000D01*
X3625667Y-8412000D02*
X3644714Y-8402476D01*
X3797095Y-8583429D02*
X3806619Y-8592952D01*
X3806619Y-8592952D02*
X3797095Y-8602476D01*
X3797095Y-8602476D02*
X3787571Y-8592952D01*
X3787571Y-8592952D02*
X3797095Y-8583429D01*
X3797095Y-8583429D02*
X3797095Y-8602476D01*
X3930429Y-8402476D02*
X3949476Y-8402476D01*
X3949476Y-8402476D02*
X3968524Y-8412000D01*
X3968524Y-8412000D02*
X3978048Y-8421524D01*
X3978048Y-8421524D02*
X3987571Y-8440571D01*
X3987571Y-8440571D02*
X3997095Y-8478667D01*
X3997095Y-8478667D02*
X3997095Y-8526286D01*
X3997095Y-8526286D02*
X3987571Y-8564381D01*
X3987571Y-8564381D02*
X3978048Y-8583429D01*
X3978048Y-8583429D02*
X3968524Y-8592952D01*
X3968524Y-8592952D02*
X3949476Y-8602476D01*
X3949476Y-8602476D02*
X3930429Y-8602476D01*
X3930429Y-8602476D02*
X3911381Y-8592952D01*
X3911381Y-8592952D02*
X3901857Y-8583429D01*
X3901857Y-8583429D02*
X3892333Y-8564381D01*
X3892333Y-8564381D02*
X3882810Y-8526286D01*
X3882810Y-8526286D02*
X3882810Y-8478667D01*
X3882810Y-8478667D02*
X3892333Y-8440571D01*
X3892333Y-8440571D02*
X3901857Y-8421524D01*
X3901857Y-8421524D02*
X3911381Y-8412000D01*
X3911381Y-8412000D02*
X3930429Y-8402476D01*
X4187571Y-8602476D02*
X4073286Y-8602476D01*
X4130429Y-8602476D02*
X4130429Y-8402476D01*
X4130429Y-8402476D02*
X4111381Y-8431048D01*
X4111381Y-8431048D02*
X4092333Y-8450095D01*
X4092333Y-8450095D02*
X4073286Y-8459619D01*
X4282810Y-8602476D02*
X4320905Y-8602476D01*
X4320905Y-8602476D02*
X4339953Y-8592952D01*
X4339953Y-8592952D02*
X4349476Y-8583429D01*
X4349476Y-8583429D02*
X4368524Y-8554857D01*
X4368524Y-8554857D02*
X4378048Y-8516762D01*
X4378048Y-8516762D02*
X4378048Y-8440571D01*
X4378048Y-8440571D02*
X4368524Y-8421524D01*
X4368524Y-8421524D02*
X4359000Y-8412000D01*
X4359000Y-8412000D02*
X4339953Y-8402476D01*
X4339953Y-8402476D02*
X4301857Y-8402476D01*
X4301857Y-8402476D02*
X4282810Y-8412000D01*
X4282810Y-8412000D02*
X4273286Y-8421524D01*
X4273286Y-8421524D02*
X4263762Y-8440571D01*
X4263762Y-8440571D02*
X4263762Y-8488190D01*
X4263762Y-8488190D02*
X4273286Y-8507238D01*
X4273286Y-8507238D02*
X4282810Y-8516762D01*
X4282810Y-8516762D02*
X4301857Y-8526286D01*
X4301857Y-8526286D02*
X4339953Y-8526286D01*
X4339953Y-8526286D02*
X4359000Y-8516762D01*
X4359000Y-8516762D02*
X4368524Y-8507238D01*
X4368524Y-8507238D02*
X4378048Y-8488190D01*
X4444714Y-8402476D02*
X4578048Y-8402476D01*
X4578048Y-8402476D02*
X4492333Y-8602476D01*
X4644714Y-8402476D02*
X4644714Y-8440571D01*
X4720905Y-8402476D02*
X4720905Y-8440571D01*
X4983762Y-8678667D02*
X4974238Y-8669143D01*
X4974238Y-8669143D02*
X4955191Y-8640571D01*
X4955191Y-8640571D02*
X4945667Y-8621524D01*
X4945667Y-8621524D02*
X4936143Y-8592952D01*
X4936143Y-8592952D02*
X4926619Y-8545333D01*
X4926619Y-8545333D02*
X4926619Y-8507238D01*
X4926619Y-8507238D02*
X4936143Y-8459619D01*
X4936143Y-8459619D02*
X4945667Y-8431048D01*
X4945667Y-8431048D02*
X4955191Y-8412000D01*
X4955191Y-8412000D02*
X4974238Y-8383428D01*
X4974238Y-8383428D02*
X4983762Y-8373905D01*
X5164714Y-8602476D02*
X5050429Y-8602476D01*
X5107572Y-8602476D02*
X5107572Y-8402476D01*
X5107572Y-8402476D02*
X5088524Y-8431048D01*
X5088524Y-8431048D02*
X5069476Y-8450095D01*
X5069476Y-8450095D02*
X5050429Y-8459619D01*
X5288524Y-8402476D02*
X5307572Y-8402476D01*
X5307572Y-8402476D02*
X5326619Y-8412000D01*
X5326619Y-8412000D02*
X5336143Y-8421524D01*
X5336143Y-8421524D02*
X5345667Y-8440571D01*
X5345667Y-8440571D02*
X5355191Y-8478667D01*
X5355191Y-8478667D02*
X5355191Y-8526286D01*
X5355191Y-8526286D02*
X5345667Y-8564381D01*
X5345667Y-8564381D02*
X5336143Y-8583429D01*
X5336143Y-8583429D02*
X5326619Y-8592952D01*
X5326619Y-8592952D02*
X5307572Y-8602476D01*
X5307572Y-8602476D02*
X5288524Y-8602476D01*
X5288524Y-8602476D02*
X5269476Y-8592952D01*
X5269476Y-8592952D02*
X5259953Y-8583429D01*
X5259953Y-8583429D02*
X5250429Y-8564381D01*
X5250429Y-8564381D02*
X5240905Y-8526286D01*
X5240905Y-8526286D02*
X5240905Y-8478667D01*
X5240905Y-8478667D02*
X5250429Y-8440571D01*
X5250429Y-8440571D02*
X5259953Y-8421524D01*
X5259953Y-8421524D02*
X5269476Y-8412000D01*
X5269476Y-8412000D02*
X5288524Y-8402476D01*
X5560905Y-8602476D02*
X5560905Y-8402476D01*
X5646619Y-8602476D02*
X5646619Y-8497714D01*
X5646619Y-8497714D02*
X5637095Y-8478667D01*
X5637095Y-8478667D02*
X5618048Y-8469143D01*
X5618048Y-8469143D02*
X5589476Y-8469143D01*
X5589476Y-8469143D02*
X5570429Y-8478667D01*
X5570429Y-8478667D02*
X5560905Y-8488190D01*
X5770429Y-8602476D02*
X5751381Y-8592952D01*
X5751381Y-8592952D02*
X5741857Y-8583429D01*
X5741857Y-8583429D02*
X5732333Y-8564381D01*
X5732333Y-8564381D02*
X5732333Y-8507238D01*
X5732333Y-8507238D02*
X5741857Y-8488190D01*
X5741857Y-8488190D02*
X5751381Y-8478667D01*
X5751381Y-8478667D02*
X5770429Y-8469143D01*
X5770429Y-8469143D02*
X5799000Y-8469143D01*
X5799000Y-8469143D02*
X5818048Y-8478667D01*
X5818048Y-8478667D02*
X5827572Y-8488190D01*
X5827572Y-8488190D02*
X5837095Y-8507238D01*
X5837095Y-8507238D02*
X5837095Y-8564381D01*
X5837095Y-8564381D02*
X5827572Y-8583429D01*
X5827572Y-8583429D02*
X5818048Y-8592952D01*
X5818048Y-8592952D02*
X5799000Y-8602476D01*
X5799000Y-8602476D02*
X5770429Y-8602476D01*
X5951381Y-8602476D02*
X5932333Y-8592952D01*
X5932333Y-8592952D02*
X5922810Y-8573905D01*
X5922810Y-8573905D02*
X5922810Y-8402476D01*
X6103762Y-8592952D02*
X6084714Y-8602476D01*
X6084714Y-8602476D02*
X6046619Y-8602476D01*
X6046619Y-8602476D02*
X6027572Y-8592952D01*
X6027572Y-8592952D02*
X6018048Y-8573905D01*
X6018048Y-8573905D02*
X6018048Y-8497714D01*
X6018048Y-8497714D02*
X6027572Y-8478667D01*
X6027572Y-8478667D02*
X6046619Y-8469143D01*
X6046619Y-8469143D02*
X6084714Y-8469143D01*
X6084714Y-8469143D02*
X6103762Y-8478667D01*
X6103762Y-8478667D02*
X6113286Y-8497714D01*
X6113286Y-8497714D02*
X6113286Y-8516762D01*
X6113286Y-8516762D02*
X6018048Y-8535810D01*
X6189476Y-8592952D02*
X6208524Y-8602476D01*
X6208524Y-8602476D02*
X6246619Y-8602476D01*
X6246619Y-8602476D02*
X6265667Y-8592952D01*
X6265667Y-8592952D02*
X6275191Y-8573905D01*
X6275191Y-8573905D02*
X6275191Y-8564381D01*
X6275191Y-8564381D02*
X6265667Y-8545333D01*
X6265667Y-8545333D02*
X6246619Y-8535810D01*
X6246619Y-8535810D02*
X6218048Y-8535810D01*
X6218048Y-8535810D02*
X6199000Y-8526286D01*
X6199000Y-8526286D02*
X6189476Y-8507238D01*
X6189476Y-8507238D02*
X6189476Y-8497714D01*
X6189476Y-8497714D02*
X6199000Y-8478667D01*
X6199000Y-8478667D02*
X6218048Y-8469143D01*
X6218048Y-8469143D02*
X6246619Y-8469143D01*
X6246619Y-8469143D02*
X6265667Y-8478667D01*
X6341857Y-8678667D02*
X6351381Y-8669143D01*
X6351381Y-8669143D02*
X6370429Y-8640571D01*
X6370429Y-8640571D02*
X6379953Y-8621524D01*
X6379953Y-8621524D02*
X6389476Y-8592952D01*
X6389476Y-8592952D02*
X6399000Y-8545333D01*
X6399000Y-8545333D02*
X6399000Y-8507238D01*
X6399000Y-8507238D02*
X6389476Y-8459619D01*
X6389476Y-8459619D02*
X6379953Y-8431048D01*
X6379953Y-8431048D02*
X6370429Y-8412000D01*
X6370429Y-8412000D02*
X6351381Y-8383428D01*
X6351381Y-8383428D02*
X6341857Y-8373905D01*
D14*
X1479000Y-8753000D02*
X1479000Y-8833000D01*
X1439000Y-8793000D02*
X1519000Y-8793000D01*
D11*
X1804714Y-8666476D02*
X1823762Y-8666476D01*
X1823762Y-8666476D02*
X1842809Y-8676000D01*
X1842809Y-8676000D02*
X1852333Y-8685524D01*
X1852333Y-8685524D02*
X1861857Y-8704571D01*
X1861857Y-8704571D02*
X1871381Y-8742667D01*
X1871381Y-8742667D02*
X1871381Y-8790286D01*
X1871381Y-8790286D02*
X1861857Y-8828381D01*
X1861857Y-8828381D02*
X1852333Y-8847429D01*
X1852333Y-8847429D02*
X1842809Y-8856952D01*
X1842809Y-8856952D02*
X1823762Y-8866476D01*
X1823762Y-8866476D02*
X1804714Y-8866476D01*
X1804714Y-8866476D02*
X1785667Y-8856952D01*
X1785667Y-8856952D02*
X1776143Y-8847429D01*
X1776143Y-8847429D02*
X1766619Y-8828381D01*
X1766619Y-8828381D02*
X1757095Y-8790286D01*
X1757095Y-8790286D02*
X1757095Y-8742667D01*
X1757095Y-8742667D02*
X1766619Y-8704571D01*
X1766619Y-8704571D02*
X1776143Y-8685524D01*
X1776143Y-8685524D02*
X1785667Y-8676000D01*
X1785667Y-8676000D02*
X1804714Y-8666476D01*
X1957095Y-8847429D02*
X1966619Y-8856952D01*
X1966619Y-8856952D02*
X1957095Y-8866476D01*
X1957095Y-8866476D02*
X1947571Y-8856952D01*
X1947571Y-8856952D02*
X1957095Y-8847429D01*
X1957095Y-8847429D02*
X1957095Y-8866476D01*
X2080905Y-8752190D02*
X2061857Y-8742667D01*
X2061857Y-8742667D02*
X2052333Y-8733143D01*
X2052333Y-8733143D02*
X2042809Y-8714095D01*
X2042809Y-8714095D02*
X2042809Y-8704571D01*
X2042809Y-8704571D02*
X2052333Y-8685524D01*
X2052333Y-8685524D02*
X2061857Y-8676000D01*
X2061857Y-8676000D02*
X2080905Y-8666476D01*
X2080905Y-8666476D02*
X2119000Y-8666476D01*
X2119000Y-8666476D02*
X2138048Y-8676000D01*
X2138048Y-8676000D02*
X2147571Y-8685524D01*
X2147571Y-8685524D02*
X2157095Y-8704571D01*
X2157095Y-8704571D02*
X2157095Y-8714095D01*
X2157095Y-8714095D02*
X2147571Y-8733143D01*
X2147571Y-8733143D02*
X2138048Y-8742667D01*
X2138048Y-8742667D02*
X2119000Y-8752190D01*
X2119000Y-8752190D02*
X2080905Y-8752190D01*
X2080905Y-8752190D02*
X2061857Y-8761714D01*
X2061857Y-8761714D02*
X2052333Y-8771238D01*
X2052333Y-8771238D02*
X2042809Y-8790286D01*
X2042809Y-8790286D02*
X2042809Y-8828381D01*
X2042809Y-8828381D02*
X2052333Y-8847429D01*
X2052333Y-8847429D02*
X2061857Y-8856952D01*
X2061857Y-8856952D02*
X2080905Y-8866476D01*
X2080905Y-8866476D02*
X2119000Y-8866476D01*
X2119000Y-8866476D02*
X2138048Y-8856952D01*
X2138048Y-8856952D02*
X2147571Y-8847429D01*
X2147571Y-8847429D02*
X2157095Y-8828381D01*
X2157095Y-8828381D02*
X2157095Y-8790286D01*
X2157095Y-8790286D02*
X2147571Y-8771238D01*
X2147571Y-8771238D02*
X2138048Y-8761714D01*
X2138048Y-8761714D02*
X2119000Y-8752190D01*
X2280905Y-8666476D02*
X2299952Y-8666476D01*
X2299952Y-8666476D02*
X2319000Y-8676000D01*
X2319000Y-8676000D02*
X2328524Y-8685524D01*
X2328524Y-8685524D02*
X2338048Y-8704571D01*
X2338048Y-8704571D02*
X2347571Y-8742667D01*
X2347571Y-8742667D02*
X2347571Y-8790286D01*
X2347571Y-8790286D02*
X2338048Y-8828381D01*
X2338048Y-8828381D02*
X2328524Y-8847429D01*
X2328524Y-8847429D02*
X2319000Y-8856952D01*
X2319000Y-8856952D02*
X2299952Y-8866476D01*
X2299952Y-8866476D02*
X2280905Y-8866476D01*
X2280905Y-8866476D02*
X2261857Y-8856952D01*
X2261857Y-8856952D02*
X2252333Y-8847429D01*
X2252333Y-8847429D02*
X2242810Y-8828381D01*
X2242810Y-8828381D02*
X2233286Y-8790286D01*
X2233286Y-8790286D02*
X2233286Y-8742667D01*
X2233286Y-8742667D02*
X2242810Y-8704571D01*
X2242810Y-8704571D02*
X2252333Y-8685524D01*
X2252333Y-8685524D02*
X2261857Y-8676000D01*
X2261857Y-8676000D02*
X2280905Y-8666476D01*
X2471381Y-8666476D02*
X2490429Y-8666476D01*
X2490429Y-8666476D02*
X2509476Y-8676000D01*
X2509476Y-8676000D02*
X2519000Y-8685524D01*
X2519000Y-8685524D02*
X2528524Y-8704571D01*
X2528524Y-8704571D02*
X2538048Y-8742667D01*
X2538048Y-8742667D02*
X2538048Y-8790286D01*
X2538048Y-8790286D02*
X2528524Y-8828381D01*
X2528524Y-8828381D02*
X2519000Y-8847429D01*
X2519000Y-8847429D02*
X2509476Y-8856952D01*
X2509476Y-8856952D02*
X2490429Y-8866476D01*
X2490429Y-8866476D02*
X2471381Y-8866476D01*
X2471381Y-8866476D02*
X2452333Y-8856952D01*
X2452333Y-8856952D02*
X2442810Y-8847429D01*
X2442810Y-8847429D02*
X2433286Y-8828381D01*
X2433286Y-8828381D02*
X2423762Y-8790286D01*
X2423762Y-8790286D02*
X2423762Y-8742667D01*
X2423762Y-8742667D02*
X2433286Y-8704571D01*
X2433286Y-8704571D02*
X2442810Y-8685524D01*
X2442810Y-8685524D02*
X2452333Y-8676000D01*
X2452333Y-8676000D02*
X2471381Y-8666476D01*
X2623762Y-8866476D02*
X2623762Y-8733143D01*
X2623762Y-8752190D02*
X2633286Y-8742667D01*
X2633286Y-8742667D02*
X2652333Y-8733143D01*
X2652333Y-8733143D02*
X2680905Y-8733143D01*
X2680905Y-8733143D02*
X2699952Y-8742667D01*
X2699952Y-8742667D02*
X2709476Y-8761714D01*
X2709476Y-8761714D02*
X2709476Y-8866476D01*
X2709476Y-8761714D02*
X2719000Y-8742667D01*
X2719000Y-8742667D02*
X2738048Y-8733143D01*
X2738048Y-8733143D02*
X2766619Y-8733143D01*
X2766619Y-8733143D02*
X2785667Y-8742667D01*
X2785667Y-8742667D02*
X2795191Y-8761714D01*
X2795191Y-8761714D02*
X2795191Y-8866476D01*
X2890429Y-8866476D02*
X2890429Y-8733143D01*
X2890429Y-8752190D02*
X2899952Y-8742667D01*
X2899952Y-8742667D02*
X2919000Y-8733143D01*
X2919000Y-8733143D02*
X2947571Y-8733143D01*
X2947571Y-8733143D02*
X2966619Y-8742667D01*
X2966619Y-8742667D02*
X2976143Y-8761714D01*
X2976143Y-8761714D02*
X2976143Y-8866476D01*
X2976143Y-8761714D02*
X2985667Y-8742667D01*
X2985667Y-8742667D02*
X3004714Y-8733143D01*
X3004714Y-8733143D02*
X3033286Y-8733143D01*
X3033286Y-8733143D02*
X3052333Y-8742667D01*
X3052333Y-8742667D02*
X3061857Y-8761714D01*
X3061857Y-8761714D02*
X3061857Y-8866476D01*
X3419952Y-8656952D02*
X3248524Y-8914095D01*
X3644714Y-8666476D02*
X3663762Y-8666476D01*
X3663762Y-8666476D02*
X3682810Y-8676000D01*
X3682810Y-8676000D02*
X3692333Y-8685524D01*
X3692333Y-8685524D02*
X3701857Y-8704571D01*
X3701857Y-8704571D02*
X3711381Y-8742667D01*
X3711381Y-8742667D02*
X3711381Y-8790286D01*
X3711381Y-8790286D02*
X3701857Y-8828381D01*
X3701857Y-8828381D02*
X3692333Y-8847429D01*
X3692333Y-8847429D02*
X3682810Y-8856952D01*
X3682810Y-8856952D02*
X3663762Y-8866476D01*
X3663762Y-8866476D02*
X3644714Y-8866476D01*
X3644714Y-8866476D02*
X3625667Y-8856952D01*
X3625667Y-8856952D02*
X3616143Y-8847429D01*
X3616143Y-8847429D02*
X3606619Y-8828381D01*
X3606619Y-8828381D02*
X3597095Y-8790286D01*
X3597095Y-8790286D02*
X3597095Y-8742667D01*
X3597095Y-8742667D02*
X3606619Y-8704571D01*
X3606619Y-8704571D02*
X3616143Y-8685524D01*
X3616143Y-8685524D02*
X3625667Y-8676000D01*
X3625667Y-8676000D02*
X3644714Y-8666476D01*
X3797095Y-8847429D02*
X3806619Y-8856952D01*
X3806619Y-8856952D02*
X3797095Y-8866476D01*
X3797095Y-8866476D02*
X3787571Y-8856952D01*
X3787571Y-8856952D02*
X3797095Y-8847429D01*
X3797095Y-8847429D02*
X3797095Y-8866476D01*
X3930429Y-8666476D02*
X3949476Y-8666476D01*
X3949476Y-8666476D02*
X3968524Y-8676000D01*
X3968524Y-8676000D02*
X3978048Y-8685524D01*
X3978048Y-8685524D02*
X3987571Y-8704571D01*
X3987571Y-8704571D02*
X3997095Y-8742667D01*
X3997095Y-8742667D02*
X3997095Y-8790286D01*
X3997095Y-8790286D02*
X3987571Y-8828381D01*
X3987571Y-8828381D02*
X3978048Y-8847429D01*
X3978048Y-8847429D02*
X3968524Y-8856952D01*
X3968524Y-8856952D02*
X3949476Y-8866476D01*
X3949476Y-8866476D02*
X3930429Y-8866476D01*
X3930429Y-8866476D02*
X3911381Y-8856952D01*
X3911381Y-8856952D02*
X3901857Y-8847429D01*
X3901857Y-8847429D02*
X3892333Y-8828381D01*
X3892333Y-8828381D02*
X3882810Y-8790286D01*
X3882810Y-8790286D02*
X3882810Y-8742667D01*
X3882810Y-8742667D02*
X3892333Y-8704571D01*
X3892333Y-8704571D02*
X3901857Y-8685524D01*
X3901857Y-8685524D02*
X3911381Y-8676000D01*
X3911381Y-8676000D02*
X3930429Y-8666476D01*
X4063762Y-8666476D02*
X4187571Y-8666476D01*
X4187571Y-8666476D02*
X4120905Y-8742667D01*
X4120905Y-8742667D02*
X4149476Y-8742667D01*
X4149476Y-8742667D02*
X4168524Y-8752190D01*
X4168524Y-8752190D02*
X4178048Y-8761714D01*
X4178048Y-8761714D02*
X4187571Y-8780762D01*
X4187571Y-8780762D02*
X4187571Y-8828381D01*
X4187571Y-8828381D02*
X4178048Y-8847429D01*
X4178048Y-8847429D02*
X4168524Y-8856952D01*
X4168524Y-8856952D02*
X4149476Y-8866476D01*
X4149476Y-8866476D02*
X4092333Y-8866476D01*
X4092333Y-8866476D02*
X4073286Y-8856952D01*
X4073286Y-8856952D02*
X4063762Y-8847429D01*
X4378048Y-8866476D02*
X4263762Y-8866476D01*
X4320905Y-8866476D02*
X4320905Y-8666476D01*
X4320905Y-8666476D02*
X4301857Y-8695048D01*
X4301857Y-8695048D02*
X4282810Y-8714095D01*
X4282810Y-8714095D02*
X4263762Y-8723619D01*
X4559000Y-8666476D02*
X4463762Y-8666476D01*
X4463762Y-8666476D02*
X4454238Y-8761714D01*
X4454238Y-8761714D02*
X4463762Y-8752190D01*
X4463762Y-8752190D02*
X4482810Y-8742667D01*
X4482810Y-8742667D02*
X4530429Y-8742667D01*
X4530429Y-8742667D02*
X4549476Y-8752190D01*
X4549476Y-8752190D02*
X4559000Y-8761714D01*
X4559000Y-8761714D02*
X4568524Y-8780762D01*
X4568524Y-8780762D02*
X4568524Y-8828381D01*
X4568524Y-8828381D02*
X4559000Y-8847429D01*
X4559000Y-8847429D02*
X4549476Y-8856952D01*
X4549476Y-8856952D02*
X4530429Y-8866476D01*
X4530429Y-8866476D02*
X4482810Y-8866476D01*
X4482810Y-8866476D02*
X4463762Y-8856952D01*
X4463762Y-8856952D02*
X4454238Y-8847429D01*
X4644714Y-8666476D02*
X4644714Y-8704571D01*
X4720905Y-8666476D02*
X4720905Y-8704571D01*
X4983762Y-8942667D02*
X4974238Y-8933143D01*
X4974238Y-8933143D02*
X4955191Y-8904571D01*
X4955191Y-8904571D02*
X4945667Y-8885524D01*
X4945667Y-8885524D02*
X4936143Y-8856952D01*
X4936143Y-8856952D02*
X4926619Y-8809333D01*
X4926619Y-8809333D02*
X4926619Y-8771238D01*
X4926619Y-8771238D02*
X4936143Y-8723619D01*
X4936143Y-8723619D02*
X4945667Y-8695048D01*
X4945667Y-8695048D02*
X4955191Y-8676000D01*
X4955191Y-8676000D02*
X4974238Y-8647429D01*
X4974238Y-8647429D02*
X4983762Y-8637905D01*
X5164714Y-8866476D02*
X5050429Y-8866476D01*
X5107572Y-8866476D02*
X5107572Y-8666476D01*
X5107572Y-8666476D02*
X5088524Y-8695048D01*
X5088524Y-8695048D02*
X5069476Y-8714095D01*
X5069476Y-8714095D02*
X5050429Y-8723619D01*
X5288524Y-8666476D02*
X5307572Y-8666476D01*
X5307572Y-8666476D02*
X5326619Y-8676000D01*
X5326619Y-8676000D02*
X5336143Y-8685524D01*
X5336143Y-8685524D02*
X5345667Y-8704571D01*
X5345667Y-8704571D02*
X5355191Y-8742667D01*
X5355191Y-8742667D02*
X5355191Y-8790286D01*
X5355191Y-8790286D02*
X5345667Y-8828381D01*
X5345667Y-8828381D02*
X5336143Y-8847429D01*
X5336143Y-8847429D02*
X5326619Y-8856952D01*
X5326619Y-8856952D02*
X5307572Y-8866476D01*
X5307572Y-8866476D02*
X5288524Y-8866476D01*
X5288524Y-8866476D02*
X5269476Y-8856952D01*
X5269476Y-8856952D02*
X5259953Y-8847429D01*
X5259953Y-8847429D02*
X5250429Y-8828381D01*
X5250429Y-8828381D02*
X5240905Y-8790286D01*
X5240905Y-8790286D02*
X5240905Y-8742667D01*
X5240905Y-8742667D02*
X5250429Y-8704571D01*
X5250429Y-8704571D02*
X5259953Y-8685524D01*
X5259953Y-8685524D02*
X5269476Y-8676000D01*
X5269476Y-8676000D02*
X5288524Y-8666476D01*
X5560905Y-8866476D02*
X5560905Y-8666476D01*
X5646619Y-8866476D02*
X5646619Y-8761714D01*
X5646619Y-8761714D02*
X5637095Y-8742667D01*
X5637095Y-8742667D02*
X5618048Y-8733143D01*
X5618048Y-8733143D02*
X5589476Y-8733143D01*
X5589476Y-8733143D02*
X5570429Y-8742667D01*
X5570429Y-8742667D02*
X5560905Y-8752190D01*
X5770429Y-8866476D02*
X5751381Y-8856952D01*
X5751381Y-8856952D02*
X5741857Y-8847429D01*
X5741857Y-8847429D02*
X5732333Y-8828381D01*
X5732333Y-8828381D02*
X5732333Y-8771238D01*
X5732333Y-8771238D02*
X5741857Y-8752190D01*
X5741857Y-8752190D02*
X5751381Y-8742667D01*
X5751381Y-8742667D02*
X5770429Y-8733143D01*
X5770429Y-8733143D02*
X5799000Y-8733143D01*
X5799000Y-8733143D02*
X5818048Y-8742667D01*
X5818048Y-8742667D02*
X5827572Y-8752190D01*
X5827572Y-8752190D02*
X5837095Y-8771238D01*
X5837095Y-8771238D02*
X5837095Y-8828381D01*
X5837095Y-8828381D02*
X5827572Y-8847429D01*
X5827572Y-8847429D02*
X5818048Y-8856952D01*
X5818048Y-8856952D02*
X5799000Y-8866476D01*
X5799000Y-8866476D02*
X5770429Y-8866476D01*
X5951381Y-8866476D02*
X5932333Y-8856952D01*
X5932333Y-8856952D02*
X5922810Y-8837905D01*
X5922810Y-8837905D02*
X5922810Y-8666476D01*
X6103762Y-8856952D02*
X6084714Y-8866476D01*
X6084714Y-8866476D02*
X6046619Y-8866476D01*
X6046619Y-8866476D02*
X6027572Y-8856952D01*
X6027572Y-8856952D02*
X6018048Y-8837905D01*
X6018048Y-8837905D02*
X6018048Y-8761714D01*
X6018048Y-8761714D02*
X6027572Y-8742667D01*
X6027572Y-8742667D02*
X6046619Y-8733143D01*
X6046619Y-8733143D02*
X6084714Y-8733143D01*
X6084714Y-8733143D02*
X6103762Y-8742667D01*
X6103762Y-8742667D02*
X6113286Y-8761714D01*
X6113286Y-8761714D02*
X6113286Y-8780762D01*
X6113286Y-8780762D02*
X6018048Y-8799810D01*
X6189476Y-8856952D02*
X6208524Y-8866476D01*
X6208524Y-8866476D02*
X6246619Y-8866476D01*
X6246619Y-8866476D02*
X6265667Y-8856952D01*
X6265667Y-8856952D02*
X6275191Y-8837905D01*
X6275191Y-8837905D02*
X6275191Y-8828381D01*
X6275191Y-8828381D02*
X6265667Y-8809333D01*
X6265667Y-8809333D02*
X6246619Y-8799810D01*
X6246619Y-8799810D02*
X6218048Y-8799810D01*
X6218048Y-8799810D02*
X6199000Y-8790286D01*
X6199000Y-8790286D02*
X6189476Y-8771238D01*
X6189476Y-8771238D02*
X6189476Y-8761714D01*
X6189476Y-8761714D02*
X6199000Y-8742667D01*
X6199000Y-8742667D02*
X6218048Y-8733143D01*
X6218048Y-8733143D02*
X6246619Y-8733143D01*
X6246619Y-8733143D02*
X6265667Y-8742667D01*
X6341857Y-8942667D02*
X6351381Y-8933143D01*
X6351381Y-8933143D02*
X6370429Y-8904571D01*
X6370429Y-8904571D02*
X6379953Y-8885524D01*
X6379953Y-8885524D02*
X6389476Y-8856952D01*
X6389476Y-8856952D02*
X6399000Y-8809333D01*
X6399000Y-8809333D02*
X6399000Y-8771238D01*
X6399000Y-8771238D02*
X6389476Y-8723619D01*
X6389476Y-8723619D02*
X6379953Y-8695048D01*
X6379953Y-8695048D02*
X6370429Y-8676000D01*
X6370429Y-8676000D02*
X6351381Y-8647429D01*
X6351381Y-8647429D02*
X6341857Y-8637905D01*
M02*
