M48
; DRILL file {KiCad (7.0.0)} date Wed Feb 22 15:50:25 2023
; FORMAT={-:-/ absolute / inch / decimal}
; #@! TF.CreationDate,2023-02-22T15:50:25+01:00
; #@! TF.GenerationSoftware,Kicad,Pcbnew,(7.0.0)
; #@! TF.FileFunction,Plated,1,2,PTH
FMAT,2
INCH
; #@! TA.AperFunction,Plated,PTH,ViaDrill
T1C0.0157
; #@! TA.AperFunction,Plated,PTH,ComponentDrill
T2C0.0197
; #@! TA.AperFunction,Plated,PTH,ComponentDrill
T3C0.0315
%
G90
G05
T1
X0.7Y-2.4
X0.8Y-2.4
X0.9Y-2.4
X1.2Y-2.2
X1.2Y-2.4
X1.5Y-0.9
X1.5Y-1.4
X1.5Y-1.4
X1.5Y-1.6
X1.5Y-1.6
X1.8Y-2.2
X1.8Y-2.4
X2.2Y-1.9
X2.2Y-2.3
X2.5Y-2.3
X2.8Y-2.3
X3.1Y-2.3
T2
X0.7425Y-2.5
X0.7425Y-2.5394
X0.7819Y-2.5
X0.7819Y-2.5394
X0.8213Y-2.5
X0.8213Y-2.5394
X0.8606Y-2.5
X0.8606Y-2.5394
X0.9Y-2.5
X0.9Y-2.5394
T3
X0.9Y-0.9
X0.9Y-1.5
X1.1Y-0.9
X1.1Y-1.5
X1.7Y-0.9
X1.9Y-0.9
X1.9Y-1.5
X2.1Y-1.5
X2.5Y-1.5
X2.7Y-1.5
T0
M30
