%TF.GenerationSoftware,KiCad,Pcbnew,(7.0.0)*%
%TF.CreationDate,2023-03-23T16:19:59+01:00*%
%TF.ProjectId,PCH-1000JIG,5043482d-3130-4303-904a-49472e6b6963,rev?*%
%TF.SameCoordinates,Original*%
%TF.FileFunction,Copper,L1,Top*%
%TF.FilePolarity,Positive*%
%FSLAX46Y46*%
G04 Gerber Fmt 4.6, Leading zero omitted, Abs format (unit mm)*
G04 Created by KiCad (PCBNEW (7.0.0)) date 2023-03-23 16:19:59*
%MOMM*%
%LPD*%
G01*
G04 APERTURE LIST*
%TA.AperFunction,ComponentPad*%
%ADD10C,1.600000*%
%TD*%
%TA.AperFunction,ComponentPad*%
%ADD11O,1.600000X1.600000*%
%TD*%
%TA.AperFunction,ComponentPad*%
%ADD12R,1.350000X1.350000*%
%TD*%
%TA.AperFunction,ComponentPad*%
%ADD13O,1.350000X1.350000*%
%TD*%
%TA.AperFunction,SMDPad,CuDef*%
%ADD14C,2.000000*%
%TD*%
%TA.AperFunction,ViaPad*%
%ADD15C,0.800000*%
%TD*%
%TA.AperFunction,Conductor*%
%ADD16C,0.250000*%
%TD*%
G04 APERTURE END LIST*
D10*
%TO.P,330 Ohms,1*%
%TO.N,N/C*%
X20320000Y-38100000D03*
D11*
%TO.P,330 Ohms,2*%
X33019999Y-38099999D03*
%TD*%
D12*
%TO.P,Pin Header,1*%
%TO.N,N/C*%
X17779999Y-65499999D03*
D13*
%TO.P,Pin Header,2*%
X17779999Y-63499999D03*
%TO.P,Pin Header,3*%
X19779999Y-65499999D03*
%TO.P,Pin Header,4*%
X19779999Y-63499999D03*
%TO.P,Pin Header,5*%
X21779999Y-65499999D03*
%TO.P,Pin Header,6*%
X21779999Y-63499999D03*
%TO.P,Pin Header,7*%
X23779999Y-65499999D03*
%TO.P,Pin Header,8*%
X23779999Y-63499999D03*
%TO.P,Pin Header,9*%
X25779999Y-65499999D03*
%TO.P,Pin Header,10*%
X25779999Y-63499999D03*
%TD*%
D14*
%TO.P,3v3 VCC,1*%
%TO.N,N/C*%
X78740000Y-53340000D03*
%TD*%
D10*
%TO.P,1k Ohms,1*%
%TO.N,N/C*%
X19050000Y-22860000D03*
D11*
%TO.P,1k Ohms,2*%
X31749999Y-22859999D03*
%TD*%
D14*
%TO.P,Vita TX/7,1*%
%TO.N,N/C*%
X48260000Y-53340000D03*
%TD*%
%TO.P,PC RX,1*%
%TO.N,N/C*%
X17780000Y-53340000D03*
%TD*%
%TO.P,UDC 12,1*%
%TO.N,N/C*%
X71120000Y-53340000D03*
%TD*%
%TO.P,UDC 3,1*%
%TO.N,N/C*%
X93980000Y-53340000D03*
%TD*%
%TO.P,3v3 GND,1*%
%TO.N,N/C*%
X86360000Y-53340000D03*
%TD*%
D10*
%TO.P,330 Ohms,1*%
%TO.N,N/C*%
X45720000Y-38100000D03*
D11*
%TO.P,330 Ohms,2*%
X58419999Y-38099999D03*
%TD*%
D14*
%TO.P,PC GND,1*%
%TO.N,N/C*%
X33020000Y-53340000D03*
%TD*%
D10*
%TO.P,1k Ohms,1*%
%TO.N,N/C*%
X40640000Y-22860000D03*
D11*
%TO.P,1k Ohms,2*%
X53339999Y-22859999D03*
%TD*%
D14*
%TO.P,UDC 11,1*%
%TO.N,N/C*%
X63500000Y-53340000D03*
%TD*%
%TO.P,PC TX,1*%
%TO.N,N/C*%
X25400000Y-53340000D03*
%TD*%
%TO.P,Vita RX/6,1*%
%TO.N,N/C*%
X55880000Y-53340000D03*
%TD*%
D10*
%TO.P,150 Ohms,1*%
%TO.N,N/C*%
X63500000Y-38100000D03*
D11*
%TO.P,150 Ohms,2*%
X76199999Y-38099999D03*
%TD*%
D15*
%TO.N,*%
X71120000Y-58420000D03*
X63500000Y-58420000D03*
X17780000Y-60960000D03*
X22860000Y-60960000D03*
X38100000Y-35560000D03*
X30480000Y-55880000D03*
X38100000Y-35560000D03*
X55880000Y-48260000D03*
X45720000Y-55880000D03*
X35560000Y-22860000D03*
X55880000Y-58420000D03*
X78740000Y-58420000D03*
X38100000Y-40640000D03*
X38100000Y-40640000D03*
X30480000Y-60960000D03*
X20320000Y-60960000D03*
X45720000Y-60960000D03*
%TD*%
D16*
%TO.N,*%
X33020000Y-53340000D02*
X38100000Y-48260000D01*
X50800000Y-22860000D02*
X53340000Y-22860000D01*
X15365000Y-68580000D02*
X18700000Y-68580000D01*
X86360000Y-53340000D02*
X93980000Y-53340000D01*
X17780000Y-58420000D02*
X17780000Y-53340000D01*
X78740000Y-58420000D02*
X78740000Y-53340000D01*
X63500000Y-43180000D02*
X60960000Y-40640000D01*
X76200000Y-38100000D02*
X76200000Y-43180000D01*
X20320000Y-58420000D02*
X25400000Y-53340000D01*
X63500000Y-53340000D02*
X63500000Y-43180000D01*
X86360000Y-63500000D02*
X25780000Y-63500000D01*
X71120000Y-53340000D02*
X71120000Y-43180000D01*
X25780000Y-63500000D02*
X23780000Y-63500000D01*
X35560000Y-22860000D02*
X40640000Y-22860000D01*
X38100000Y-48260000D02*
X38100000Y-40640000D01*
X71120000Y-58420000D02*
X71120000Y-53340000D01*
X17780000Y-60960000D02*
X15365000Y-63375000D01*
X38100000Y-35560000D02*
X50800000Y-22860000D01*
X20320000Y-60960000D02*
X20320000Y-58420000D01*
X15365000Y-63375000D02*
X15365000Y-68580000D01*
X35560000Y-22860000D02*
X31750000Y-22860000D01*
X30480000Y-53340000D02*
X33020000Y-53340000D01*
X17780000Y-60960000D02*
X17780000Y-58420000D01*
X63500000Y-38100000D02*
X60960000Y-38100000D01*
X45720000Y-55880000D02*
X48260000Y-53340000D01*
X18700000Y-68580000D02*
X21780000Y-65500000D01*
X33020000Y-38100000D02*
X45720000Y-38100000D01*
X86360000Y-63500000D02*
X86360000Y-53340000D01*
X78740000Y-58420000D02*
X76200000Y-60960000D01*
X30480000Y-60960000D02*
X30480000Y-55880000D01*
X58420000Y-38100000D02*
X60960000Y-38100000D01*
X55880000Y-58420000D02*
X55880000Y-53340000D01*
X71120000Y-43180000D02*
X76200000Y-38100000D01*
X76200000Y-43180000D02*
X86360000Y-53340000D01*
X55880000Y-48260000D02*
X55880000Y-53340000D01*
X63500000Y-58420000D02*
X63500000Y-53340000D01*
X76200000Y-60960000D02*
X45720000Y-60960000D01*
X60960000Y-40640000D02*
X60960000Y-38100000D01*
X25400000Y-53340000D02*
X25400000Y-22860000D01*
X25400000Y-22860000D02*
X19050000Y-22860000D01*
X22860000Y-60960000D02*
X30480000Y-53340000D01*
X23780000Y-63500000D02*
X21780000Y-63500000D01*
%TD*%
M02*
