%TF.GenerationSoftware,KiCad,Pcbnew,(7.0.0)*%
%TF.CreationDate,2023-02-22T15:50:25+01:00*%
%TF.ProjectId,PCH-1000JIG,5043482d-3130-4303-904a-49472e6b6963,rev?*%
%TF.SameCoordinates,Original*%
%TF.FileFunction,Drillmap*%
%TF.FilePolarity,Positive*%
%FSLAX45Y45*%
G04 Gerber Fmt 4.5, Leading zero omitted, Abs format (unit mm)*
G04 Created by KiCad (PCBNEW (7.0.0)) date 2023-02-22 15:50:25*
%MOMM*%
%LPD*%
G01*
G04 APERTURE LIST*
%ADD10C,0.100000*%
%ADD11C,0.200000*%
G04 APERTURE END LIST*
D10*
X1524000Y-1524000D02*
X9652000Y-1524000D01*
X9652000Y-1524000D02*
X9652000Y-7620000D01*
X9652000Y-7620000D02*
X1524000Y-7620000D01*
X1524000Y-7620000D02*
X1524000Y-1524000D01*
D11*
X1766619Y-7918476D02*
X1766619Y-7718476D01*
X1766619Y-7718476D02*
X1814238Y-7718476D01*
X1814238Y-7718476D02*
X1842809Y-7728000D01*
X1842809Y-7728000D02*
X1861857Y-7747048D01*
X1861857Y-7747048D02*
X1871381Y-7766095D01*
X1871381Y-7766095D02*
X1880905Y-7804190D01*
X1880905Y-7804190D02*
X1880905Y-7832762D01*
X1880905Y-7832762D02*
X1871381Y-7870857D01*
X1871381Y-7870857D02*
X1861857Y-7889905D01*
X1861857Y-7889905D02*
X1842809Y-7908952D01*
X1842809Y-7908952D02*
X1814238Y-7918476D01*
X1814238Y-7918476D02*
X1766619Y-7918476D01*
X1966619Y-7918476D02*
X1966619Y-7785143D01*
X1966619Y-7823238D02*
X1976143Y-7804190D01*
X1976143Y-7804190D02*
X1985667Y-7794667D01*
X1985667Y-7794667D02*
X2004714Y-7785143D01*
X2004714Y-7785143D02*
X2023762Y-7785143D01*
X2090428Y-7918476D02*
X2090428Y-7785143D01*
X2090428Y-7718476D02*
X2080905Y-7728000D01*
X2080905Y-7728000D02*
X2090428Y-7737524D01*
X2090428Y-7737524D02*
X2099952Y-7728000D01*
X2099952Y-7728000D02*
X2090428Y-7718476D01*
X2090428Y-7718476D02*
X2090428Y-7737524D01*
X2214238Y-7918476D02*
X2195190Y-7908952D01*
X2195190Y-7908952D02*
X2185667Y-7889905D01*
X2185667Y-7889905D02*
X2185667Y-7718476D01*
X2319000Y-7918476D02*
X2299952Y-7908952D01*
X2299952Y-7908952D02*
X2290429Y-7889905D01*
X2290429Y-7889905D02*
X2290429Y-7718476D01*
X2515190Y-7918476D02*
X2515190Y-7718476D01*
X2515190Y-7718476D02*
X2581857Y-7861333D01*
X2581857Y-7861333D02*
X2648524Y-7718476D01*
X2648524Y-7718476D02*
X2648524Y-7918476D01*
X2829476Y-7918476D02*
X2829476Y-7813714D01*
X2829476Y-7813714D02*
X2819952Y-7794667D01*
X2819952Y-7794667D02*
X2800905Y-7785143D01*
X2800905Y-7785143D02*
X2762809Y-7785143D01*
X2762809Y-7785143D02*
X2743762Y-7794667D01*
X2829476Y-7908952D02*
X2810428Y-7918476D01*
X2810428Y-7918476D02*
X2762809Y-7918476D01*
X2762809Y-7918476D02*
X2743762Y-7908952D01*
X2743762Y-7908952D02*
X2734238Y-7889905D01*
X2734238Y-7889905D02*
X2734238Y-7870857D01*
X2734238Y-7870857D02*
X2743762Y-7851809D01*
X2743762Y-7851809D02*
X2762809Y-7842286D01*
X2762809Y-7842286D02*
X2810428Y-7842286D01*
X2810428Y-7842286D02*
X2829476Y-7832762D01*
X2924714Y-7785143D02*
X2924714Y-7985143D01*
X2924714Y-7794667D02*
X2943762Y-7785143D01*
X2943762Y-7785143D02*
X2981857Y-7785143D01*
X2981857Y-7785143D02*
X3000905Y-7794667D01*
X3000905Y-7794667D02*
X3010428Y-7804190D01*
X3010428Y-7804190D02*
X3019952Y-7823238D01*
X3019952Y-7823238D02*
X3019952Y-7880381D01*
X3019952Y-7880381D02*
X3010428Y-7899428D01*
X3010428Y-7899428D02*
X3000905Y-7908952D01*
X3000905Y-7908952D02*
X2981857Y-7918476D01*
X2981857Y-7918476D02*
X2943762Y-7918476D01*
X2943762Y-7918476D02*
X2924714Y-7908952D01*
X3105667Y-7899428D02*
X3115190Y-7908952D01*
X3115190Y-7908952D02*
X3105667Y-7918476D01*
X3105667Y-7918476D02*
X3096143Y-7908952D01*
X3096143Y-7908952D02*
X3105667Y-7899428D01*
X3105667Y-7899428D02*
X3105667Y-7918476D01*
X3105667Y-7794667D02*
X3115190Y-7804190D01*
X3115190Y-7804190D02*
X3105667Y-7813714D01*
X3105667Y-7813714D02*
X3096143Y-7804190D01*
X3096143Y-7804190D02*
X3105667Y-7794667D01*
X3105667Y-7794667D02*
X3105667Y-7813714D01*
M02*
