M48
; DRILL file {KiCad (7.0.0)} date Thu Mar 23 16:28:48 2023
; FORMAT={-:-/ absolute / inch / decimal}
; #@! TF.CreationDate,2023-03-23T16:28:48+01:00
; #@! TF.GenerationSoftware,Kicad,Pcbnew,(7.0.0)
; #@! TF.FileFunction,Plated,1,2,PTH
FMAT,2
INCH
; #@! TA.AperFunction,Plated,PTH,ViaDrill
T1C0.0157
; #@! TA.AperFunction,Plated,PTH,ComponentDrill
T2C0.0315
%
G90
G05
T1
X0.8Y-2.3323
X0.9Y-2.3323
X1.0Y-2.3323
X1.3Y-2.1323
X1.3Y-2.3323
X1.5Y-0.8323
X1.6Y-1.3323
X1.6Y-1.3323
X1.6Y-1.5323
X1.6Y-1.5323
X1.9Y-2.1323
X1.9Y-2.3323
X2.3Y-1.8323
X2.3Y-2.2323
X2.6Y-2.2323
X2.9Y-2.2323
X3.2Y-2.2323
T2
X0.8Y-2.4323
X0.8Y-2.511
X0.85Y-0.8323
X0.8787Y-2.4323
X0.8787Y-2.511
X0.9Y-1.4323
X0.9575Y-2.4323
X0.9575Y-2.511
X1.0362Y-2.4323
X1.0362Y-2.511
X1.115Y-2.4323
X1.115Y-2.511
X1.35Y-0.8323
X1.4Y-1.4323
X1.7Y-0.8323
X1.9Y-1.4323
X2.2Y-0.8323
X2.4Y-1.4323
X2.6Y-1.4323
X3.1Y-1.4323
T0
M30
