%TF.GenerationSoftware,KiCad,Pcbnew,(7.0.0)*%
%TF.CreationDate,2023-03-15T17:07:18+01:00*%
%TF.ProjectId,PCH-1000JIG_0805,5043482d-3130-4303-904a-49475f303830,rev?*%
%TF.SameCoordinates,Original*%
%TF.FileFunction,Legend,Bot*%
%TF.FilePolarity,Positive*%
%FSLAX46Y46*%
G04 Gerber Fmt 4.6, Leading zero omitted, Abs format (unit mm)*
G04 Created by KiCad (PCBNEW (7.0.0)) date 2023-03-15 17:07:18*
%MOMM*%
%LPD*%
G01*
G04 APERTURE LIST*
%ADD10C,0.150000*%
G04 APERTURE END LIST*
D10*
X38266666Y-37947666D02*
X38266666Y-37247666D01*
X38266666Y-37247666D02*
X38533333Y-37247666D01*
X38533333Y-37247666D02*
X38600000Y-37281000D01*
X38600000Y-37281000D02*
X38633333Y-37314333D01*
X38633333Y-37314333D02*
X38666666Y-37381000D01*
X38666666Y-37381000D02*
X38666666Y-37481000D01*
X38666666Y-37481000D02*
X38633333Y-37547666D01*
X38633333Y-37547666D02*
X38600000Y-37581000D01*
X38600000Y-37581000D02*
X38533333Y-37614333D01*
X38533333Y-37614333D02*
X38266666Y-37614333D01*
X39366666Y-37881000D02*
X39333333Y-37914333D01*
X39333333Y-37914333D02*
X39233333Y-37947666D01*
X39233333Y-37947666D02*
X39166666Y-37947666D01*
X39166666Y-37947666D02*
X39066666Y-37914333D01*
X39066666Y-37914333D02*
X39000000Y-37847666D01*
X39000000Y-37847666D02*
X38966666Y-37781000D01*
X38966666Y-37781000D02*
X38933333Y-37647666D01*
X38933333Y-37647666D02*
X38933333Y-37547666D01*
X38933333Y-37547666D02*
X38966666Y-37414333D01*
X38966666Y-37414333D02*
X39000000Y-37347666D01*
X39000000Y-37347666D02*
X39066666Y-37281000D01*
X39066666Y-37281000D02*
X39166666Y-37247666D01*
X39166666Y-37247666D02*
X39233333Y-37247666D01*
X39233333Y-37247666D02*
X39333333Y-37281000D01*
X39333333Y-37281000D02*
X39366666Y-37314333D01*
X39666666Y-37947666D02*
X39666666Y-37247666D01*
X39666666Y-37581000D02*
X40066666Y-37581000D01*
X40066666Y-37947666D02*
X40066666Y-37247666D01*
X40399999Y-37681000D02*
X40933333Y-37681000D01*
X41633333Y-37947666D02*
X41233333Y-37947666D01*
X41433333Y-37947666D02*
X41433333Y-37247666D01*
X41433333Y-37247666D02*
X41366666Y-37347666D01*
X41366666Y-37347666D02*
X41300000Y-37414333D01*
X41300000Y-37414333D02*
X41233333Y-37447666D01*
X42066667Y-37247666D02*
X42133333Y-37247666D01*
X42133333Y-37247666D02*
X42200000Y-37281000D01*
X42200000Y-37281000D02*
X42233333Y-37314333D01*
X42233333Y-37314333D02*
X42266667Y-37381000D01*
X42266667Y-37381000D02*
X42300000Y-37514333D01*
X42300000Y-37514333D02*
X42300000Y-37681000D01*
X42300000Y-37681000D02*
X42266667Y-37814333D01*
X42266667Y-37814333D02*
X42233333Y-37881000D01*
X42233333Y-37881000D02*
X42200000Y-37914333D01*
X42200000Y-37914333D02*
X42133333Y-37947666D01*
X42133333Y-37947666D02*
X42066667Y-37947666D01*
X42066667Y-37947666D02*
X42000000Y-37914333D01*
X42000000Y-37914333D02*
X41966667Y-37881000D01*
X41966667Y-37881000D02*
X41933333Y-37814333D01*
X41933333Y-37814333D02*
X41900000Y-37681000D01*
X41900000Y-37681000D02*
X41900000Y-37514333D01*
X41900000Y-37514333D02*
X41933333Y-37381000D01*
X41933333Y-37381000D02*
X41966667Y-37314333D01*
X41966667Y-37314333D02*
X42000000Y-37281000D01*
X42000000Y-37281000D02*
X42066667Y-37247666D01*
X42733334Y-37247666D02*
X42800000Y-37247666D01*
X42800000Y-37247666D02*
X42866667Y-37281000D01*
X42866667Y-37281000D02*
X42900000Y-37314333D01*
X42900000Y-37314333D02*
X42933334Y-37381000D01*
X42933334Y-37381000D02*
X42966667Y-37514333D01*
X42966667Y-37514333D02*
X42966667Y-37681000D01*
X42966667Y-37681000D02*
X42933334Y-37814333D01*
X42933334Y-37814333D02*
X42900000Y-37881000D01*
X42900000Y-37881000D02*
X42866667Y-37914333D01*
X42866667Y-37914333D02*
X42800000Y-37947666D01*
X42800000Y-37947666D02*
X42733334Y-37947666D01*
X42733334Y-37947666D02*
X42666667Y-37914333D01*
X42666667Y-37914333D02*
X42633334Y-37881000D01*
X42633334Y-37881000D02*
X42600000Y-37814333D01*
X42600000Y-37814333D02*
X42566667Y-37681000D01*
X42566667Y-37681000D02*
X42566667Y-37514333D01*
X42566667Y-37514333D02*
X42600000Y-37381000D01*
X42600000Y-37381000D02*
X42633334Y-37314333D01*
X42633334Y-37314333D02*
X42666667Y-37281000D01*
X42666667Y-37281000D02*
X42733334Y-37247666D01*
X43400001Y-37247666D02*
X43466667Y-37247666D01*
X43466667Y-37247666D02*
X43533334Y-37281000D01*
X43533334Y-37281000D02*
X43566667Y-37314333D01*
X43566667Y-37314333D02*
X43600001Y-37381000D01*
X43600001Y-37381000D02*
X43633334Y-37514333D01*
X43633334Y-37514333D02*
X43633334Y-37681000D01*
X43633334Y-37681000D02*
X43600001Y-37814333D01*
X43600001Y-37814333D02*
X43566667Y-37881000D01*
X43566667Y-37881000D02*
X43533334Y-37914333D01*
X43533334Y-37914333D02*
X43466667Y-37947666D01*
X43466667Y-37947666D02*
X43400001Y-37947666D01*
X43400001Y-37947666D02*
X43333334Y-37914333D01*
X43333334Y-37914333D02*
X43300001Y-37881000D01*
X43300001Y-37881000D02*
X43266667Y-37814333D01*
X43266667Y-37814333D02*
X43233334Y-37681000D01*
X43233334Y-37681000D02*
X43233334Y-37514333D01*
X43233334Y-37514333D02*
X43266667Y-37381000D01*
X43266667Y-37381000D02*
X43300001Y-37314333D01*
X43300001Y-37314333D02*
X43333334Y-37281000D01*
X43333334Y-37281000D02*
X43400001Y-37247666D01*
X44133334Y-37247666D02*
X44133334Y-37747666D01*
X44133334Y-37747666D02*
X44100001Y-37847666D01*
X44100001Y-37847666D02*
X44033334Y-37914333D01*
X44033334Y-37914333D02*
X43933334Y-37947666D01*
X43933334Y-37947666D02*
X43866668Y-37947666D01*
X44466667Y-37947666D02*
X44466667Y-37247666D01*
X45166667Y-37281000D02*
X45100000Y-37247666D01*
X45100000Y-37247666D02*
X45000000Y-37247666D01*
X45000000Y-37247666D02*
X44900000Y-37281000D01*
X44900000Y-37281000D02*
X44833334Y-37347666D01*
X44833334Y-37347666D02*
X44800000Y-37414333D01*
X44800000Y-37414333D02*
X44766667Y-37547666D01*
X44766667Y-37547666D02*
X44766667Y-37647666D01*
X44766667Y-37647666D02*
X44800000Y-37781000D01*
X44800000Y-37781000D02*
X44833334Y-37847666D01*
X44833334Y-37847666D02*
X44900000Y-37914333D01*
X44900000Y-37914333D02*
X45000000Y-37947666D01*
X45000000Y-37947666D02*
X45066667Y-37947666D01*
X45066667Y-37947666D02*
X45166667Y-37914333D01*
X45166667Y-37914333D02*
X45200000Y-37881000D01*
X45200000Y-37881000D02*
X45200000Y-37647666D01*
X45200000Y-37647666D02*
X45066667Y-37647666D01*
X46320000Y-37947666D02*
X46086667Y-37614333D01*
X45920000Y-37947666D02*
X45920000Y-37247666D01*
X45920000Y-37247666D02*
X46186667Y-37247666D01*
X46186667Y-37247666D02*
X46253334Y-37281000D01*
X46253334Y-37281000D02*
X46286667Y-37314333D01*
X46286667Y-37314333D02*
X46320000Y-37381000D01*
X46320000Y-37381000D02*
X46320000Y-37481000D01*
X46320000Y-37481000D02*
X46286667Y-37547666D01*
X46286667Y-37547666D02*
X46253334Y-37581000D01*
X46253334Y-37581000D02*
X46186667Y-37614333D01*
X46186667Y-37614333D02*
X45920000Y-37614333D01*
X46886667Y-37914333D02*
X46820000Y-37947666D01*
X46820000Y-37947666D02*
X46686667Y-37947666D01*
X46686667Y-37947666D02*
X46620000Y-37914333D01*
X46620000Y-37914333D02*
X46586667Y-37847666D01*
X46586667Y-37847666D02*
X46586667Y-37581000D01*
X46586667Y-37581000D02*
X46620000Y-37514333D01*
X46620000Y-37514333D02*
X46686667Y-37481000D01*
X46686667Y-37481000D02*
X46820000Y-37481000D01*
X46820000Y-37481000D02*
X46886667Y-37514333D01*
X46886667Y-37514333D02*
X46920000Y-37581000D01*
X46920000Y-37581000D02*
X46920000Y-37647666D01*
X46920000Y-37647666D02*
X46586667Y-37714333D01*
X47153334Y-37481000D02*
X47320000Y-37947666D01*
X47320000Y-37947666D02*
X47486667Y-37481000D01*
X48140000Y-37314333D02*
X48173333Y-37281000D01*
X48173333Y-37281000D02*
X48240000Y-37247666D01*
X48240000Y-37247666D02*
X48406667Y-37247666D01*
X48406667Y-37247666D02*
X48473333Y-37281000D01*
X48473333Y-37281000D02*
X48506667Y-37314333D01*
X48506667Y-37314333D02*
X48540000Y-37381000D01*
X48540000Y-37381000D02*
X48540000Y-37447666D01*
X48540000Y-37447666D02*
X48506667Y-37547666D01*
X48506667Y-37547666D02*
X48106667Y-37947666D01*
X48106667Y-37947666D02*
X48540000Y-37947666D01*
X48840000Y-37881000D02*
X48873334Y-37914333D01*
X48873334Y-37914333D02*
X48840000Y-37947666D01*
X48840000Y-37947666D02*
X48806667Y-37914333D01*
X48806667Y-37914333D02*
X48840000Y-37881000D01*
X48840000Y-37881000D02*
X48840000Y-37947666D01*
X49540000Y-37947666D02*
X49140000Y-37947666D01*
X49340000Y-37947666D02*
X49340000Y-37247666D01*
X49340000Y-37247666D02*
X49273333Y-37347666D01*
X49273333Y-37347666D02*
X49206667Y-37414333D01*
X49206667Y-37414333D02*
X49140000Y-37447666D01*
X50140000Y-37947666D02*
X50140000Y-37581000D01*
X50140000Y-37581000D02*
X50106667Y-37514333D01*
X50106667Y-37514333D02*
X50040000Y-37481000D01*
X50040000Y-37481000D02*
X49906667Y-37481000D01*
X49906667Y-37481000D02*
X49840000Y-37514333D01*
X50140000Y-37914333D02*
X50073334Y-37947666D01*
X50073334Y-37947666D02*
X49906667Y-37947666D01*
X49906667Y-37947666D02*
X49840000Y-37914333D01*
X49840000Y-37914333D02*
X49806667Y-37847666D01*
X49806667Y-37847666D02*
X49806667Y-37781000D01*
X49806667Y-37781000D02*
X49840000Y-37714333D01*
X49840000Y-37714333D02*
X49906667Y-37681000D01*
X49906667Y-37681000D02*
X50073334Y-37681000D01*
X50073334Y-37681000D02*
X50140000Y-37647666D01*
X50893333Y-37947666D02*
X50893333Y-37247666D01*
X50893333Y-37514333D02*
X50960000Y-37481000D01*
X50960000Y-37481000D02*
X51093333Y-37481000D01*
X51093333Y-37481000D02*
X51160000Y-37514333D01*
X51160000Y-37514333D02*
X51193333Y-37547666D01*
X51193333Y-37547666D02*
X51226667Y-37614333D01*
X51226667Y-37614333D02*
X51226667Y-37814333D01*
X51226667Y-37814333D02*
X51193333Y-37881000D01*
X51193333Y-37881000D02*
X51160000Y-37914333D01*
X51160000Y-37914333D02*
X51093333Y-37947666D01*
X51093333Y-37947666D02*
X50960000Y-37947666D01*
X50960000Y-37947666D02*
X50893333Y-37914333D01*
X51460000Y-37481000D02*
X51626666Y-37947666D01*
X51793333Y-37481000D02*
X51626666Y-37947666D01*
X51626666Y-37947666D02*
X51560000Y-38114333D01*
X51560000Y-38114333D02*
X51526666Y-38147666D01*
X51526666Y-38147666D02*
X51460000Y-38181000D01*
X52479999Y-37947666D02*
X52479999Y-37247666D01*
X52479999Y-37247666D02*
X52713333Y-37747666D01*
X52713333Y-37747666D02*
X52946666Y-37247666D01*
X52946666Y-37247666D02*
X52946666Y-37947666D01*
X53579999Y-37947666D02*
X53579999Y-37581000D01*
X53579999Y-37581000D02*
X53546666Y-37514333D01*
X53546666Y-37514333D02*
X53479999Y-37481000D01*
X53479999Y-37481000D02*
X53346666Y-37481000D01*
X53346666Y-37481000D02*
X53279999Y-37514333D01*
X53579999Y-37914333D02*
X53513333Y-37947666D01*
X53513333Y-37947666D02*
X53346666Y-37947666D01*
X53346666Y-37947666D02*
X53279999Y-37914333D01*
X53279999Y-37914333D02*
X53246666Y-37847666D01*
X53246666Y-37847666D02*
X53246666Y-37781000D01*
X53246666Y-37781000D02*
X53279999Y-37714333D01*
X53279999Y-37714333D02*
X53346666Y-37681000D01*
X53346666Y-37681000D02*
X53513333Y-37681000D01*
X53513333Y-37681000D02*
X53579999Y-37647666D01*
X53813332Y-37481000D02*
X54079999Y-37481000D01*
X53913332Y-37247666D02*
X53913332Y-37847666D01*
X53913332Y-37847666D02*
X53946666Y-37914333D01*
X53946666Y-37914333D02*
X54013332Y-37947666D01*
X54013332Y-37947666D02*
X54079999Y-37947666D01*
X54313332Y-37947666D02*
X54313332Y-37247666D01*
X54613332Y-37947666D02*
X54613332Y-37581000D01*
X54613332Y-37581000D02*
X54579999Y-37514333D01*
X54579999Y-37514333D02*
X54513332Y-37481000D01*
X54513332Y-37481000D02*
X54413332Y-37481000D01*
X54413332Y-37481000D02*
X54346666Y-37514333D01*
X54346666Y-37514333D02*
X54313332Y-37547666D01*
X54946665Y-37947666D02*
X54946665Y-37481000D01*
X54946665Y-37247666D02*
X54913332Y-37281000D01*
X54913332Y-37281000D02*
X54946665Y-37314333D01*
X54946665Y-37314333D02*
X54979999Y-37281000D01*
X54979999Y-37281000D02*
X54946665Y-37247666D01*
X54946665Y-37247666D02*
X54946665Y-37314333D01*
X55546665Y-37914333D02*
X55479998Y-37947666D01*
X55479998Y-37947666D02*
X55346665Y-37947666D01*
X55346665Y-37947666D02*
X55279998Y-37914333D01*
X55279998Y-37914333D02*
X55246665Y-37847666D01*
X55246665Y-37847666D02*
X55246665Y-37581000D01*
X55246665Y-37581000D02*
X55279998Y-37514333D01*
X55279998Y-37514333D02*
X55346665Y-37481000D01*
X55346665Y-37481000D02*
X55479998Y-37481000D01*
X55479998Y-37481000D02*
X55546665Y-37514333D01*
X55546665Y-37514333D02*
X55579998Y-37581000D01*
X55579998Y-37581000D02*
X55579998Y-37647666D01*
X55579998Y-37647666D02*
X55246665Y-37714333D01*
X56179998Y-37481000D02*
X56179998Y-37947666D01*
X55879998Y-37481000D02*
X55879998Y-37847666D01*
X55879998Y-37847666D02*
X55913332Y-37914333D01*
X55913332Y-37914333D02*
X55979998Y-37947666D01*
X55979998Y-37947666D02*
X56079998Y-37947666D01*
X56079998Y-37947666D02*
X56146665Y-37914333D01*
X56146665Y-37914333D02*
X56179998Y-37881000D01*
X56613331Y-37947666D02*
X56546665Y-37914333D01*
X56546665Y-37914333D02*
X56513331Y-37847666D01*
X56513331Y-37847666D02*
X56513331Y-37247666D01*
X56879998Y-37947666D02*
X56879998Y-37247666D01*
X57179998Y-37947666D02*
X57179998Y-37581000D01*
X57179998Y-37581000D02*
X57146665Y-37514333D01*
X57146665Y-37514333D02*
X57079998Y-37481000D01*
X57079998Y-37481000D02*
X56979998Y-37481000D01*
X56979998Y-37481000D02*
X56913332Y-37514333D01*
X56913332Y-37514333D02*
X56879998Y-37547666D01*
M02*
