%TF.GenerationSoftware,KiCad,Pcbnew,(7.0.0)*%
%TF.CreationDate,2023-03-16T10:47:07+01:00*%
%TF.ProjectId,PCH-1000JIG_0805,5043482d-3130-4303-904a-49475f303830,rev?*%
%TF.SameCoordinates,Original*%
%TF.FileFunction,Legend,Top*%
%TF.FilePolarity,Positive*%
%FSLAX46Y46*%
G04 Gerber Fmt 4.6, Leading zero omitted, Abs format (unit mm)*
G04 Created by KiCad (PCBNEW (7.0.0)) date 2023-03-16 10:47:07*
%MOMM*%
%LPD*%
G01*
G04 APERTURE LIST*
%ADD10C,0.125000*%
%ADD11C,0.150000*%
%ADD12C,0.120000*%
G04 APERTURE END LIST*
D10*
%TO.C,UDC12*%
X52220952Y-36967380D02*
X52220952Y-37776904D01*
X52220952Y-37776904D02*
X52244762Y-37872142D01*
X52244762Y-37872142D02*
X52268571Y-37919761D01*
X52268571Y-37919761D02*
X52316190Y-37967380D01*
X52316190Y-37967380D02*
X52411428Y-37967380D01*
X52411428Y-37967380D02*
X52459047Y-37919761D01*
X52459047Y-37919761D02*
X52482857Y-37872142D01*
X52482857Y-37872142D02*
X52506666Y-37776904D01*
X52506666Y-37776904D02*
X52506666Y-36967380D01*
X52744762Y-37967380D02*
X52744762Y-36967380D01*
X52744762Y-36967380D02*
X52863810Y-36967380D01*
X52863810Y-36967380D02*
X52935238Y-37015000D01*
X52935238Y-37015000D02*
X52982857Y-37110238D01*
X52982857Y-37110238D02*
X53006667Y-37205476D01*
X53006667Y-37205476D02*
X53030476Y-37395952D01*
X53030476Y-37395952D02*
X53030476Y-37538809D01*
X53030476Y-37538809D02*
X53006667Y-37729285D01*
X53006667Y-37729285D02*
X52982857Y-37824523D01*
X52982857Y-37824523D02*
X52935238Y-37919761D01*
X52935238Y-37919761D02*
X52863810Y-37967380D01*
X52863810Y-37967380D02*
X52744762Y-37967380D01*
X53530476Y-37872142D02*
X53506667Y-37919761D01*
X53506667Y-37919761D02*
X53435238Y-37967380D01*
X53435238Y-37967380D02*
X53387619Y-37967380D01*
X53387619Y-37967380D02*
X53316191Y-37919761D01*
X53316191Y-37919761D02*
X53268572Y-37824523D01*
X53268572Y-37824523D02*
X53244762Y-37729285D01*
X53244762Y-37729285D02*
X53220953Y-37538809D01*
X53220953Y-37538809D02*
X53220953Y-37395952D01*
X53220953Y-37395952D02*
X53244762Y-37205476D01*
X53244762Y-37205476D02*
X53268572Y-37110238D01*
X53268572Y-37110238D02*
X53316191Y-37015000D01*
X53316191Y-37015000D02*
X53387619Y-36967380D01*
X53387619Y-36967380D02*
X53435238Y-36967380D01*
X53435238Y-36967380D02*
X53506667Y-37015000D01*
X53506667Y-37015000D02*
X53530476Y-37062619D01*
X54006667Y-37967380D02*
X53720953Y-37967380D01*
X53863810Y-37967380D02*
X53863810Y-36967380D01*
X53863810Y-36967380D02*
X53816191Y-37110238D01*
X53816191Y-37110238D02*
X53768572Y-37205476D01*
X53768572Y-37205476D02*
X53720953Y-37253095D01*
X54197143Y-37062619D02*
X54220952Y-37015000D01*
X54220952Y-37015000D02*
X54268571Y-36967380D01*
X54268571Y-36967380D02*
X54387619Y-36967380D01*
X54387619Y-36967380D02*
X54435238Y-37015000D01*
X54435238Y-37015000D02*
X54459047Y-37062619D01*
X54459047Y-37062619D02*
X54482857Y-37157857D01*
X54482857Y-37157857D02*
X54482857Y-37253095D01*
X54482857Y-37253095D02*
X54459047Y-37395952D01*
X54459047Y-37395952D02*
X54173333Y-37967380D01*
X54173333Y-37967380D02*
X54482857Y-37967380D01*
D11*
%TO.C,330*%
X51057380Y-41925713D02*
X51057380Y-41306666D01*
X51057380Y-41306666D02*
X51438333Y-41639999D01*
X51438333Y-41639999D02*
X51438333Y-41497142D01*
X51438333Y-41497142D02*
X51485952Y-41401904D01*
X51485952Y-41401904D02*
X51533571Y-41354285D01*
X51533571Y-41354285D02*
X51628809Y-41306666D01*
X51628809Y-41306666D02*
X51866904Y-41306666D01*
X51866904Y-41306666D02*
X51962142Y-41354285D01*
X51962142Y-41354285D02*
X52009761Y-41401904D01*
X52009761Y-41401904D02*
X52057380Y-41497142D01*
X52057380Y-41497142D02*
X52057380Y-41782856D01*
X52057380Y-41782856D02*
X52009761Y-41878094D01*
X52009761Y-41878094D02*
X51962142Y-41925713D01*
X51057380Y-40973332D02*
X51057380Y-40354285D01*
X51057380Y-40354285D02*
X51438333Y-40687618D01*
X51438333Y-40687618D02*
X51438333Y-40544761D01*
X51438333Y-40544761D02*
X51485952Y-40449523D01*
X51485952Y-40449523D02*
X51533571Y-40401904D01*
X51533571Y-40401904D02*
X51628809Y-40354285D01*
X51628809Y-40354285D02*
X51866904Y-40354285D01*
X51866904Y-40354285D02*
X51962142Y-40401904D01*
X51962142Y-40401904D02*
X52009761Y-40449523D01*
X52009761Y-40449523D02*
X52057380Y-40544761D01*
X52057380Y-40544761D02*
X52057380Y-40830475D01*
X52057380Y-40830475D02*
X52009761Y-40925713D01*
X52009761Y-40925713D02*
X51962142Y-40973332D01*
X51057380Y-39735237D02*
X51057380Y-39639999D01*
X51057380Y-39639999D02*
X51105000Y-39544761D01*
X51105000Y-39544761D02*
X51152619Y-39497142D01*
X51152619Y-39497142D02*
X51247857Y-39449523D01*
X51247857Y-39449523D02*
X51438333Y-39401904D01*
X51438333Y-39401904D02*
X51676428Y-39401904D01*
X51676428Y-39401904D02*
X51866904Y-39449523D01*
X51866904Y-39449523D02*
X51962142Y-39497142D01*
X51962142Y-39497142D02*
X52009761Y-39544761D01*
X52009761Y-39544761D02*
X52057380Y-39639999D01*
X52057380Y-39639999D02*
X52057380Y-39735237D01*
X52057380Y-39735237D02*
X52009761Y-39830475D01*
X52009761Y-39830475D02*
X51962142Y-39878094D01*
X51962142Y-39878094D02*
X51866904Y-39925713D01*
X51866904Y-39925713D02*
X51676428Y-39973332D01*
X51676428Y-39973332D02*
X51438333Y-39973332D01*
X51438333Y-39973332D02*
X51247857Y-39925713D01*
X51247857Y-39925713D02*
X51152619Y-39878094D01*
X51152619Y-39878094D02*
X51105000Y-39830475D01*
X51105000Y-39830475D02*
X51057380Y-39735237D01*
%TO.C,1K*%
X42367380Y-41054285D02*
X42367380Y-41625713D01*
X42367380Y-41339999D02*
X41367380Y-41339999D01*
X41367380Y-41339999D02*
X41510238Y-41435237D01*
X41510238Y-41435237D02*
X41605476Y-41530475D01*
X41605476Y-41530475D02*
X41653095Y-41625713D01*
X42367380Y-40625713D02*
X41367380Y-40625713D01*
X42367380Y-40054285D02*
X41795952Y-40482856D01*
X41367380Y-40054285D02*
X41938809Y-40625713D01*
%TO.C,150*%
X56117380Y-41306666D02*
X56117380Y-41878094D01*
X56117380Y-41592380D02*
X55117380Y-41592380D01*
X55117380Y-41592380D02*
X55260238Y-41687618D01*
X55260238Y-41687618D02*
X55355476Y-41782856D01*
X55355476Y-41782856D02*
X55403095Y-41878094D01*
X55117380Y-40401904D02*
X55117380Y-40878094D01*
X55117380Y-40878094D02*
X55593571Y-40925713D01*
X55593571Y-40925713D02*
X55545952Y-40878094D01*
X55545952Y-40878094D02*
X55498333Y-40782856D01*
X55498333Y-40782856D02*
X55498333Y-40544761D01*
X55498333Y-40544761D02*
X55545952Y-40449523D01*
X55545952Y-40449523D02*
X55593571Y-40401904D01*
X55593571Y-40401904D02*
X55688809Y-40354285D01*
X55688809Y-40354285D02*
X55926904Y-40354285D01*
X55926904Y-40354285D02*
X56022142Y-40401904D01*
X56022142Y-40401904D02*
X56069761Y-40449523D01*
X56069761Y-40449523D02*
X56117380Y-40544761D01*
X56117380Y-40544761D02*
X56117380Y-40782856D01*
X56117380Y-40782856D02*
X56069761Y-40878094D01*
X56069761Y-40878094D02*
X56022142Y-40925713D01*
X55117380Y-39735237D02*
X55117380Y-39639999D01*
X55117380Y-39639999D02*
X55165000Y-39544761D01*
X55165000Y-39544761D02*
X55212619Y-39497142D01*
X55212619Y-39497142D02*
X55307857Y-39449523D01*
X55307857Y-39449523D02*
X55498333Y-39401904D01*
X55498333Y-39401904D02*
X55736428Y-39401904D01*
X55736428Y-39401904D02*
X55926904Y-39449523D01*
X55926904Y-39449523D02*
X56022142Y-39497142D01*
X56022142Y-39497142D02*
X56069761Y-39544761D01*
X56069761Y-39544761D02*
X56117380Y-39639999D01*
X56117380Y-39639999D02*
X56117380Y-39735237D01*
X56117380Y-39735237D02*
X56069761Y-39830475D01*
X56069761Y-39830475D02*
X56022142Y-39878094D01*
X56022142Y-39878094D02*
X55926904Y-39925713D01*
X55926904Y-39925713D02*
X55736428Y-39973332D01*
X55736428Y-39973332D02*
X55498333Y-39973332D01*
X55498333Y-39973332D02*
X55307857Y-39925713D01*
X55307857Y-39925713D02*
X55212619Y-39878094D01*
X55212619Y-39878094D02*
X55165000Y-39830475D01*
X55165000Y-39830475D02*
X55117380Y-39735237D01*
D10*
%TO.C,UDC11*%
X48380952Y-36967380D02*
X48380952Y-37776904D01*
X48380952Y-37776904D02*
X48404762Y-37872142D01*
X48404762Y-37872142D02*
X48428571Y-37919761D01*
X48428571Y-37919761D02*
X48476190Y-37967380D01*
X48476190Y-37967380D02*
X48571428Y-37967380D01*
X48571428Y-37967380D02*
X48619047Y-37919761D01*
X48619047Y-37919761D02*
X48642857Y-37872142D01*
X48642857Y-37872142D02*
X48666666Y-37776904D01*
X48666666Y-37776904D02*
X48666666Y-36967380D01*
X48904762Y-37967380D02*
X48904762Y-36967380D01*
X48904762Y-36967380D02*
X49023810Y-36967380D01*
X49023810Y-36967380D02*
X49095238Y-37015000D01*
X49095238Y-37015000D02*
X49142857Y-37110238D01*
X49142857Y-37110238D02*
X49166667Y-37205476D01*
X49166667Y-37205476D02*
X49190476Y-37395952D01*
X49190476Y-37395952D02*
X49190476Y-37538809D01*
X49190476Y-37538809D02*
X49166667Y-37729285D01*
X49166667Y-37729285D02*
X49142857Y-37824523D01*
X49142857Y-37824523D02*
X49095238Y-37919761D01*
X49095238Y-37919761D02*
X49023810Y-37967380D01*
X49023810Y-37967380D02*
X48904762Y-37967380D01*
X49690476Y-37872142D02*
X49666667Y-37919761D01*
X49666667Y-37919761D02*
X49595238Y-37967380D01*
X49595238Y-37967380D02*
X49547619Y-37967380D01*
X49547619Y-37967380D02*
X49476191Y-37919761D01*
X49476191Y-37919761D02*
X49428572Y-37824523D01*
X49428572Y-37824523D02*
X49404762Y-37729285D01*
X49404762Y-37729285D02*
X49380953Y-37538809D01*
X49380953Y-37538809D02*
X49380953Y-37395952D01*
X49380953Y-37395952D02*
X49404762Y-37205476D01*
X49404762Y-37205476D02*
X49428572Y-37110238D01*
X49428572Y-37110238D02*
X49476191Y-37015000D01*
X49476191Y-37015000D02*
X49547619Y-36967380D01*
X49547619Y-36967380D02*
X49595238Y-36967380D01*
X49595238Y-36967380D02*
X49666667Y-37015000D01*
X49666667Y-37015000D02*
X49690476Y-37062619D01*
X50166667Y-37967380D02*
X49880953Y-37967380D01*
X50023810Y-37967380D02*
X50023810Y-36967380D01*
X50023810Y-36967380D02*
X49976191Y-37110238D01*
X49976191Y-37110238D02*
X49928572Y-37205476D01*
X49928572Y-37205476D02*
X49880953Y-37253095D01*
X50642857Y-37967380D02*
X50357143Y-37967380D01*
X50500000Y-37967380D02*
X50500000Y-36967380D01*
X50500000Y-36967380D02*
X50452381Y-37110238D01*
X50452381Y-37110238D02*
X50404762Y-37205476D01*
X50404762Y-37205476D02*
X50357143Y-37253095D01*
D11*
%TO.C,330*%
X45977380Y-41925713D02*
X45977380Y-41306666D01*
X45977380Y-41306666D02*
X46358333Y-41639999D01*
X46358333Y-41639999D02*
X46358333Y-41497142D01*
X46358333Y-41497142D02*
X46405952Y-41401904D01*
X46405952Y-41401904D02*
X46453571Y-41354285D01*
X46453571Y-41354285D02*
X46548809Y-41306666D01*
X46548809Y-41306666D02*
X46786904Y-41306666D01*
X46786904Y-41306666D02*
X46882142Y-41354285D01*
X46882142Y-41354285D02*
X46929761Y-41401904D01*
X46929761Y-41401904D02*
X46977380Y-41497142D01*
X46977380Y-41497142D02*
X46977380Y-41782856D01*
X46977380Y-41782856D02*
X46929761Y-41878094D01*
X46929761Y-41878094D02*
X46882142Y-41925713D01*
X45977380Y-40973332D02*
X45977380Y-40354285D01*
X45977380Y-40354285D02*
X46358333Y-40687618D01*
X46358333Y-40687618D02*
X46358333Y-40544761D01*
X46358333Y-40544761D02*
X46405952Y-40449523D01*
X46405952Y-40449523D02*
X46453571Y-40401904D01*
X46453571Y-40401904D02*
X46548809Y-40354285D01*
X46548809Y-40354285D02*
X46786904Y-40354285D01*
X46786904Y-40354285D02*
X46882142Y-40401904D01*
X46882142Y-40401904D02*
X46929761Y-40449523D01*
X46929761Y-40449523D02*
X46977380Y-40544761D01*
X46977380Y-40544761D02*
X46977380Y-40830475D01*
X46977380Y-40830475D02*
X46929761Y-40925713D01*
X46929761Y-40925713D02*
X46882142Y-40973332D01*
X45977380Y-39735237D02*
X45977380Y-39639999D01*
X45977380Y-39639999D02*
X46025000Y-39544761D01*
X46025000Y-39544761D02*
X46072619Y-39497142D01*
X46072619Y-39497142D02*
X46167857Y-39449523D01*
X46167857Y-39449523D02*
X46358333Y-39401904D01*
X46358333Y-39401904D02*
X46596428Y-39401904D01*
X46596428Y-39401904D02*
X46786904Y-39449523D01*
X46786904Y-39449523D02*
X46882142Y-39497142D01*
X46882142Y-39497142D02*
X46929761Y-39544761D01*
X46929761Y-39544761D02*
X46977380Y-39639999D01*
X46977380Y-39639999D02*
X46977380Y-39735237D01*
X46977380Y-39735237D02*
X46929761Y-39830475D01*
X46929761Y-39830475D02*
X46882142Y-39878094D01*
X46882142Y-39878094D02*
X46786904Y-39925713D01*
X46786904Y-39925713D02*
X46596428Y-39973332D01*
X46596428Y-39973332D02*
X46358333Y-39973332D01*
X46358333Y-39973332D02*
X46167857Y-39925713D01*
X46167857Y-39925713D02*
X46072619Y-39878094D01*
X46072619Y-39878094D02*
X46025000Y-39830475D01*
X46025000Y-39830475D02*
X45977380Y-39735237D01*
D10*
%TO.C,3.3V*%
X48561905Y-43007380D02*
X48871429Y-43007380D01*
X48871429Y-43007380D02*
X48704762Y-43388333D01*
X48704762Y-43388333D02*
X48776191Y-43388333D01*
X48776191Y-43388333D02*
X48823810Y-43435952D01*
X48823810Y-43435952D02*
X48847619Y-43483571D01*
X48847619Y-43483571D02*
X48871429Y-43578809D01*
X48871429Y-43578809D02*
X48871429Y-43816904D01*
X48871429Y-43816904D02*
X48847619Y-43912142D01*
X48847619Y-43912142D02*
X48823810Y-43959761D01*
X48823810Y-43959761D02*
X48776191Y-44007380D01*
X48776191Y-44007380D02*
X48633334Y-44007380D01*
X48633334Y-44007380D02*
X48585715Y-43959761D01*
X48585715Y-43959761D02*
X48561905Y-43912142D01*
X49085714Y-43912142D02*
X49109524Y-43959761D01*
X49109524Y-43959761D02*
X49085714Y-44007380D01*
X49085714Y-44007380D02*
X49061905Y-43959761D01*
X49061905Y-43959761D02*
X49085714Y-43912142D01*
X49085714Y-43912142D02*
X49085714Y-44007380D01*
X49276190Y-43007380D02*
X49585714Y-43007380D01*
X49585714Y-43007380D02*
X49419047Y-43388333D01*
X49419047Y-43388333D02*
X49490476Y-43388333D01*
X49490476Y-43388333D02*
X49538095Y-43435952D01*
X49538095Y-43435952D02*
X49561904Y-43483571D01*
X49561904Y-43483571D02*
X49585714Y-43578809D01*
X49585714Y-43578809D02*
X49585714Y-43816904D01*
X49585714Y-43816904D02*
X49561904Y-43912142D01*
X49561904Y-43912142D02*
X49538095Y-43959761D01*
X49538095Y-43959761D02*
X49490476Y-44007380D01*
X49490476Y-44007380D02*
X49347619Y-44007380D01*
X49347619Y-44007380D02*
X49300000Y-43959761D01*
X49300000Y-43959761D02*
X49276190Y-43912142D01*
X49728571Y-43007380D02*
X49895237Y-44007380D01*
X49895237Y-44007380D02*
X50061904Y-43007380D01*
%TO.C,UDC7/TX*%
X44148571Y-36967380D02*
X44148571Y-37776904D01*
X44148571Y-37776904D02*
X44172381Y-37872142D01*
X44172381Y-37872142D02*
X44196190Y-37919761D01*
X44196190Y-37919761D02*
X44243809Y-37967380D01*
X44243809Y-37967380D02*
X44339047Y-37967380D01*
X44339047Y-37967380D02*
X44386666Y-37919761D01*
X44386666Y-37919761D02*
X44410476Y-37872142D01*
X44410476Y-37872142D02*
X44434285Y-37776904D01*
X44434285Y-37776904D02*
X44434285Y-36967380D01*
X44672381Y-37967380D02*
X44672381Y-36967380D01*
X44672381Y-36967380D02*
X44791429Y-36967380D01*
X44791429Y-36967380D02*
X44862857Y-37015000D01*
X44862857Y-37015000D02*
X44910476Y-37110238D01*
X44910476Y-37110238D02*
X44934286Y-37205476D01*
X44934286Y-37205476D02*
X44958095Y-37395952D01*
X44958095Y-37395952D02*
X44958095Y-37538809D01*
X44958095Y-37538809D02*
X44934286Y-37729285D01*
X44934286Y-37729285D02*
X44910476Y-37824523D01*
X44910476Y-37824523D02*
X44862857Y-37919761D01*
X44862857Y-37919761D02*
X44791429Y-37967380D01*
X44791429Y-37967380D02*
X44672381Y-37967380D01*
X45458095Y-37872142D02*
X45434286Y-37919761D01*
X45434286Y-37919761D02*
X45362857Y-37967380D01*
X45362857Y-37967380D02*
X45315238Y-37967380D01*
X45315238Y-37967380D02*
X45243810Y-37919761D01*
X45243810Y-37919761D02*
X45196191Y-37824523D01*
X45196191Y-37824523D02*
X45172381Y-37729285D01*
X45172381Y-37729285D02*
X45148572Y-37538809D01*
X45148572Y-37538809D02*
X45148572Y-37395952D01*
X45148572Y-37395952D02*
X45172381Y-37205476D01*
X45172381Y-37205476D02*
X45196191Y-37110238D01*
X45196191Y-37110238D02*
X45243810Y-37015000D01*
X45243810Y-37015000D02*
X45315238Y-36967380D01*
X45315238Y-36967380D02*
X45362857Y-36967380D01*
X45362857Y-36967380D02*
X45434286Y-37015000D01*
X45434286Y-37015000D02*
X45458095Y-37062619D01*
X45624762Y-36967380D02*
X45958095Y-36967380D01*
X45958095Y-36967380D02*
X45743810Y-37967380D01*
X46505714Y-36919761D02*
X46077143Y-38205476D01*
X46600953Y-36967380D02*
X46886667Y-36967380D01*
X46743810Y-37967380D02*
X46743810Y-36967380D01*
X47005714Y-36967380D02*
X47339047Y-37967380D01*
X47339047Y-36967380D02*
X47005714Y-37967380D01*
%TO.C,RX*%
X44416666Y-44007380D02*
X44250000Y-43531190D01*
X44130952Y-44007380D02*
X44130952Y-43007380D01*
X44130952Y-43007380D02*
X44321428Y-43007380D01*
X44321428Y-43007380D02*
X44369047Y-43055000D01*
X44369047Y-43055000D02*
X44392857Y-43102619D01*
X44392857Y-43102619D02*
X44416666Y-43197857D01*
X44416666Y-43197857D02*
X44416666Y-43340714D01*
X44416666Y-43340714D02*
X44392857Y-43435952D01*
X44392857Y-43435952D02*
X44369047Y-43483571D01*
X44369047Y-43483571D02*
X44321428Y-43531190D01*
X44321428Y-43531190D02*
X44130952Y-43531190D01*
X44583333Y-43007380D02*
X44916666Y-44007380D01*
X44916666Y-43007380D02*
X44583333Y-44007380D01*
%TO.C,GND*%
X53519047Y-43055000D02*
X53471428Y-43007380D01*
X53471428Y-43007380D02*
X53399999Y-43007380D01*
X53399999Y-43007380D02*
X53328571Y-43055000D01*
X53328571Y-43055000D02*
X53280952Y-43150238D01*
X53280952Y-43150238D02*
X53257142Y-43245476D01*
X53257142Y-43245476D02*
X53233333Y-43435952D01*
X53233333Y-43435952D02*
X53233333Y-43578809D01*
X53233333Y-43578809D02*
X53257142Y-43769285D01*
X53257142Y-43769285D02*
X53280952Y-43864523D01*
X53280952Y-43864523D02*
X53328571Y-43959761D01*
X53328571Y-43959761D02*
X53399999Y-44007380D01*
X53399999Y-44007380D02*
X53447618Y-44007380D01*
X53447618Y-44007380D02*
X53519047Y-43959761D01*
X53519047Y-43959761D02*
X53542856Y-43912142D01*
X53542856Y-43912142D02*
X53542856Y-43578809D01*
X53542856Y-43578809D02*
X53447618Y-43578809D01*
X53757142Y-44007380D02*
X53757142Y-43007380D01*
X53757142Y-43007380D02*
X54042856Y-44007380D01*
X54042856Y-44007380D02*
X54042856Y-43007380D01*
X54280952Y-44007380D02*
X54280952Y-43007380D01*
X54280952Y-43007380D02*
X54400000Y-43007380D01*
X54400000Y-43007380D02*
X54471428Y-43055000D01*
X54471428Y-43055000D02*
X54519047Y-43150238D01*
X54519047Y-43150238D02*
X54542857Y-43245476D01*
X54542857Y-43245476D02*
X54566666Y-43435952D01*
X54566666Y-43435952D02*
X54566666Y-43578809D01*
X54566666Y-43578809D02*
X54542857Y-43769285D01*
X54542857Y-43769285D02*
X54519047Y-43864523D01*
X54519047Y-43864523D02*
X54471428Y-43959761D01*
X54471428Y-43959761D02*
X54400000Y-44007380D01*
X54400000Y-44007380D02*
X54280952Y-44007380D01*
%TO.C,UDC6/RX*%
X39869047Y-36767380D02*
X39869047Y-37576904D01*
X39869047Y-37576904D02*
X39892857Y-37672142D01*
X39892857Y-37672142D02*
X39916666Y-37719761D01*
X39916666Y-37719761D02*
X39964285Y-37767380D01*
X39964285Y-37767380D02*
X40059523Y-37767380D01*
X40059523Y-37767380D02*
X40107142Y-37719761D01*
X40107142Y-37719761D02*
X40130952Y-37672142D01*
X40130952Y-37672142D02*
X40154761Y-37576904D01*
X40154761Y-37576904D02*
X40154761Y-36767380D01*
X40392857Y-37767380D02*
X40392857Y-36767380D01*
X40392857Y-36767380D02*
X40511905Y-36767380D01*
X40511905Y-36767380D02*
X40583333Y-36815000D01*
X40583333Y-36815000D02*
X40630952Y-36910238D01*
X40630952Y-36910238D02*
X40654762Y-37005476D01*
X40654762Y-37005476D02*
X40678571Y-37195952D01*
X40678571Y-37195952D02*
X40678571Y-37338809D01*
X40678571Y-37338809D02*
X40654762Y-37529285D01*
X40654762Y-37529285D02*
X40630952Y-37624523D01*
X40630952Y-37624523D02*
X40583333Y-37719761D01*
X40583333Y-37719761D02*
X40511905Y-37767380D01*
X40511905Y-37767380D02*
X40392857Y-37767380D01*
X41178571Y-37672142D02*
X41154762Y-37719761D01*
X41154762Y-37719761D02*
X41083333Y-37767380D01*
X41083333Y-37767380D02*
X41035714Y-37767380D01*
X41035714Y-37767380D02*
X40964286Y-37719761D01*
X40964286Y-37719761D02*
X40916667Y-37624523D01*
X40916667Y-37624523D02*
X40892857Y-37529285D01*
X40892857Y-37529285D02*
X40869048Y-37338809D01*
X40869048Y-37338809D02*
X40869048Y-37195952D01*
X40869048Y-37195952D02*
X40892857Y-37005476D01*
X40892857Y-37005476D02*
X40916667Y-36910238D01*
X40916667Y-36910238D02*
X40964286Y-36815000D01*
X40964286Y-36815000D02*
X41035714Y-36767380D01*
X41035714Y-36767380D02*
X41083333Y-36767380D01*
X41083333Y-36767380D02*
X41154762Y-36815000D01*
X41154762Y-36815000D02*
X41178571Y-36862619D01*
X41607143Y-36767380D02*
X41511905Y-36767380D01*
X41511905Y-36767380D02*
X41464286Y-36815000D01*
X41464286Y-36815000D02*
X41440476Y-36862619D01*
X41440476Y-36862619D02*
X41392857Y-37005476D01*
X41392857Y-37005476D02*
X41369048Y-37195952D01*
X41369048Y-37195952D02*
X41369048Y-37576904D01*
X41369048Y-37576904D02*
X41392857Y-37672142D01*
X41392857Y-37672142D02*
X41416667Y-37719761D01*
X41416667Y-37719761D02*
X41464286Y-37767380D01*
X41464286Y-37767380D02*
X41559524Y-37767380D01*
X41559524Y-37767380D02*
X41607143Y-37719761D01*
X41607143Y-37719761D02*
X41630952Y-37672142D01*
X41630952Y-37672142D02*
X41654762Y-37576904D01*
X41654762Y-37576904D02*
X41654762Y-37338809D01*
X41654762Y-37338809D02*
X41630952Y-37243571D01*
X41630952Y-37243571D02*
X41607143Y-37195952D01*
X41607143Y-37195952D02*
X41559524Y-37148333D01*
X41559524Y-37148333D02*
X41464286Y-37148333D01*
X41464286Y-37148333D02*
X41416667Y-37195952D01*
X41416667Y-37195952D02*
X41392857Y-37243571D01*
X41392857Y-37243571D02*
X41369048Y-37338809D01*
X42226190Y-36719761D02*
X41797619Y-38005476D01*
X42678571Y-37767380D02*
X42511905Y-37291190D01*
X42392857Y-37767380D02*
X42392857Y-36767380D01*
X42392857Y-36767380D02*
X42583333Y-36767380D01*
X42583333Y-36767380D02*
X42630952Y-36815000D01*
X42630952Y-36815000D02*
X42654762Y-36862619D01*
X42654762Y-36862619D02*
X42678571Y-36957857D01*
X42678571Y-36957857D02*
X42678571Y-37100714D01*
X42678571Y-37100714D02*
X42654762Y-37195952D01*
X42654762Y-37195952D02*
X42630952Y-37243571D01*
X42630952Y-37243571D02*
X42583333Y-37291190D01*
X42583333Y-37291190D02*
X42392857Y-37291190D01*
X42845238Y-36767380D02*
X43178571Y-37767380D01*
X43178571Y-36767380D02*
X42845238Y-37767380D01*
%TO.C,UDC3*%
X56619047Y-36967380D02*
X56619047Y-37776904D01*
X56619047Y-37776904D02*
X56642857Y-37872142D01*
X56642857Y-37872142D02*
X56666666Y-37919761D01*
X56666666Y-37919761D02*
X56714285Y-37967380D01*
X56714285Y-37967380D02*
X56809523Y-37967380D01*
X56809523Y-37967380D02*
X56857142Y-37919761D01*
X56857142Y-37919761D02*
X56880952Y-37872142D01*
X56880952Y-37872142D02*
X56904761Y-37776904D01*
X56904761Y-37776904D02*
X56904761Y-36967380D01*
X57142857Y-37967380D02*
X57142857Y-36967380D01*
X57142857Y-36967380D02*
X57261905Y-36967380D01*
X57261905Y-36967380D02*
X57333333Y-37015000D01*
X57333333Y-37015000D02*
X57380952Y-37110238D01*
X57380952Y-37110238D02*
X57404762Y-37205476D01*
X57404762Y-37205476D02*
X57428571Y-37395952D01*
X57428571Y-37395952D02*
X57428571Y-37538809D01*
X57428571Y-37538809D02*
X57404762Y-37729285D01*
X57404762Y-37729285D02*
X57380952Y-37824523D01*
X57380952Y-37824523D02*
X57333333Y-37919761D01*
X57333333Y-37919761D02*
X57261905Y-37967380D01*
X57261905Y-37967380D02*
X57142857Y-37967380D01*
X57928571Y-37872142D02*
X57904762Y-37919761D01*
X57904762Y-37919761D02*
X57833333Y-37967380D01*
X57833333Y-37967380D02*
X57785714Y-37967380D01*
X57785714Y-37967380D02*
X57714286Y-37919761D01*
X57714286Y-37919761D02*
X57666667Y-37824523D01*
X57666667Y-37824523D02*
X57642857Y-37729285D01*
X57642857Y-37729285D02*
X57619048Y-37538809D01*
X57619048Y-37538809D02*
X57619048Y-37395952D01*
X57619048Y-37395952D02*
X57642857Y-37205476D01*
X57642857Y-37205476D02*
X57666667Y-37110238D01*
X57666667Y-37110238D02*
X57714286Y-37015000D01*
X57714286Y-37015000D02*
X57785714Y-36967380D01*
X57785714Y-36967380D02*
X57833333Y-36967380D01*
X57833333Y-36967380D02*
X57904762Y-37015000D01*
X57904762Y-37015000D02*
X57928571Y-37062619D01*
X58095238Y-36967380D02*
X58404762Y-36967380D01*
X58404762Y-36967380D02*
X58238095Y-37348333D01*
X58238095Y-37348333D02*
X58309524Y-37348333D01*
X58309524Y-37348333D02*
X58357143Y-37395952D01*
X58357143Y-37395952D02*
X58380952Y-37443571D01*
X58380952Y-37443571D02*
X58404762Y-37538809D01*
X58404762Y-37538809D02*
X58404762Y-37776904D01*
X58404762Y-37776904D02*
X58380952Y-37872142D01*
X58380952Y-37872142D02*
X58357143Y-37919761D01*
X58357143Y-37919761D02*
X58309524Y-37967380D01*
X58309524Y-37967380D02*
X58166667Y-37967380D01*
X58166667Y-37967380D02*
X58119048Y-37919761D01*
X58119048Y-37919761D02*
X58095238Y-37872142D01*
%TO.C,TX*%
X39519048Y-43007380D02*
X39804762Y-43007380D01*
X39661905Y-44007380D02*
X39661905Y-43007380D01*
X39923809Y-43007380D02*
X40257142Y-44007380D01*
X40257142Y-43007380D02*
X39923809Y-44007380D01*
D12*
%TO.C,330*%
X52605000Y-40867064D02*
X52605000Y-40412936D01*
X54075000Y-40867064D02*
X54075000Y-40412936D01*
%TO.C,1K*%
X39905000Y-39927064D02*
X39905000Y-39472936D01*
X41375000Y-39927064D02*
X41375000Y-39472936D01*
%TO.C,150*%
X56665000Y-40867064D02*
X56665000Y-40412936D01*
X58135000Y-40867064D02*
X58135000Y-40412936D01*
%TO.C,330*%
X47525000Y-40867064D02*
X47525000Y-40412936D01*
X48995000Y-40867064D02*
X48995000Y-40412936D01*
%TO.C,1K*%
X42445000Y-40867064D02*
X42445000Y-40412936D01*
X43915000Y-40867064D02*
X43915000Y-40412936D01*
%TD*%
M02*
