%TF.GenerationSoftware,KiCad,Pcbnew,(7.0.0)*%
%TF.CreationDate,2023-03-16T14:09:23+01:00*%
%TF.ProjectId,PCH-1000JIG_0805,5043482d-3130-4303-904a-49475f303830,rev?*%
%TF.SameCoordinates,Original*%
%TF.FileFunction,Legend,Top*%
%TF.FilePolarity,Positive*%
%FSLAX46Y46*%
G04 Gerber Fmt 4.6, Leading zero omitted, Abs format (unit mm)*
G04 Created by KiCad (PCBNEW (7.0.0)) date 2023-03-16 14:09:23*
%MOMM*%
%LPD*%
G01*
G04 APERTURE LIST*
%ADD10C,0.125000*%
%ADD11C,0.120000*%
G04 APERTURE END LIST*
D10*
%TO.C,UDC12*%
X49583690Y-36679047D02*
X49988452Y-36679047D01*
X49988452Y-36679047D02*
X50036071Y-36655237D01*
X50036071Y-36655237D02*
X50059880Y-36631428D01*
X50059880Y-36631428D02*
X50083690Y-36583809D01*
X50083690Y-36583809D02*
X50083690Y-36488571D01*
X50083690Y-36488571D02*
X50059880Y-36440952D01*
X50059880Y-36440952D02*
X50036071Y-36417142D01*
X50036071Y-36417142D02*
X49988452Y-36393333D01*
X49988452Y-36393333D02*
X49583690Y-36393333D01*
X50083690Y-36155237D02*
X49583690Y-36155237D01*
X49583690Y-36155237D02*
X49583690Y-36036189D01*
X49583690Y-36036189D02*
X49607500Y-35964761D01*
X49607500Y-35964761D02*
X49655119Y-35917142D01*
X49655119Y-35917142D02*
X49702738Y-35893332D01*
X49702738Y-35893332D02*
X49797976Y-35869523D01*
X49797976Y-35869523D02*
X49869404Y-35869523D01*
X49869404Y-35869523D02*
X49964642Y-35893332D01*
X49964642Y-35893332D02*
X50012261Y-35917142D01*
X50012261Y-35917142D02*
X50059880Y-35964761D01*
X50059880Y-35964761D02*
X50083690Y-36036189D01*
X50083690Y-36036189D02*
X50083690Y-36155237D01*
X50036071Y-35369523D02*
X50059880Y-35393332D01*
X50059880Y-35393332D02*
X50083690Y-35464761D01*
X50083690Y-35464761D02*
X50083690Y-35512380D01*
X50083690Y-35512380D02*
X50059880Y-35583808D01*
X50059880Y-35583808D02*
X50012261Y-35631427D01*
X50012261Y-35631427D02*
X49964642Y-35655237D01*
X49964642Y-35655237D02*
X49869404Y-35679046D01*
X49869404Y-35679046D02*
X49797976Y-35679046D01*
X49797976Y-35679046D02*
X49702738Y-35655237D01*
X49702738Y-35655237D02*
X49655119Y-35631427D01*
X49655119Y-35631427D02*
X49607500Y-35583808D01*
X49607500Y-35583808D02*
X49583690Y-35512380D01*
X49583690Y-35512380D02*
X49583690Y-35464761D01*
X49583690Y-35464761D02*
X49607500Y-35393332D01*
X49607500Y-35393332D02*
X49631309Y-35369523D01*
X50083690Y-34893332D02*
X50083690Y-35179046D01*
X50083690Y-35036189D02*
X49583690Y-35036189D01*
X49583690Y-35036189D02*
X49655119Y-35083808D01*
X49655119Y-35083808D02*
X49702738Y-35131427D01*
X49702738Y-35131427D02*
X49726547Y-35179046D01*
X49631309Y-34702856D02*
X49607500Y-34679047D01*
X49607500Y-34679047D02*
X49583690Y-34631428D01*
X49583690Y-34631428D02*
X49583690Y-34512380D01*
X49583690Y-34512380D02*
X49607500Y-34464761D01*
X49607500Y-34464761D02*
X49631309Y-34440952D01*
X49631309Y-34440952D02*
X49678928Y-34417142D01*
X49678928Y-34417142D02*
X49726547Y-34417142D01*
X49726547Y-34417142D02*
X49797976Y-34440952D01*
X49797976Y-34440952D02*
X50083690Y-34726666D01*
X50083690Y-34726666D02*
X50083690Y-34417142D01*
%TO.C,330*%
X49233690Y-41282856D02*
X49233690Y-40973332D01*
X49233690Y-40973332D02*
X49424166Y-41139999D01*
X49424166Y-41139999D02*
X49424166Y-41068570D01*
X49424166Y-41068570D02*
X49447976Y-41020951D01*
X49447976Y-41020951D02*
X49471785Y-40997142D01*
X49471785Y-40997142D02*
X49519404Y-40973332D01*
X49519404Y-40973332D02*
X49638452Y-40973332D01*
X49638452Y-40973332D02*
X49686071Y-40997142D01*
X49686071Y-40997142D02*
X49709880Y-41020951D01*
X49709880Y-41020951D02*
X49733690Y-41068570D01*
X49733690Y-41068570D02*
X49733690Y-41211427D01*
X49733690Y-41211427D02*
X49709880Y-41259046D01*
X49709880Y-41259046D02*
X49686071Y-41282856D01*
X49233690Y-40806666D02*
X49233690Y-40497142D01*
X49233690Y-40497142D02*
X49424166Y-40663809D01*
X49424166Y-40663809D02*
X49424166Y-40592380D01*
X49424166Y-40592380D02*
X49447976Y-40544761D01*
X49447976Y-40544761D02*
X49471785Y-40520952D01*
X49471785Y-40520952D02*
X49519404Y-40497142D01*
X49519404Y-40497142D02*
X49638452Y-40497142D01*
X49638452Y-40497142D02*
X49686071Y-40520952D01*
X49686071Y-40520952D02*
X49709880Y-40544761D01*
X49709880Y-40544761D02*
X49733690Y-40592380D01*
X49733690Y-40592380D02*
X49733690Y-40735237D01*
X49733690Y-40735237D02*
X49709880Y-40782856D01*
X49709880Y-40782856D02*
X49686071Y-40806666D01*
X49233690Y-40187619D02*
X49233690Y-40140000D01*
X49233690Y-40140000D02*
X49257500Y-40092381D01*
X49257500Y-40092381D02*
X49281309Y-40068571D01*
X49281309Y-40068571D02*
X49328928Y-40044762D01*
X49328928Y-40044762D02*
X49424166Y-40020952D01*
X49424166Y-40020952D02*
X49543214Y-40020952D01*
X49543214Y-40020952D02*
X49638452Y-40044762D01*
X49638452Y-40044762D02*
X49686071Y-40068571D01*
X49686071Y-40068571D02*
X49709880Y-40092381D01*
X49709880Y-40092381D02*
X49733690Y-40140000D01*
X49733690Y-40140000D02*
X49733690Y-40187619D01*
X49733690Y-40187619D02*
X49709880Y-40235238D01*
X49709880Y-40235238D02*
X49686071Y-40259047D01*
X49686071Y-40259047D02*
X49638452Y-40282857D01*
X49638452Y-40282857D02*
X49543214Y-40306666D01*
X49543214Y-40306666D02*
X49424166Y-40306666D01*
X49424166Y-40306666D02*
X49328928Y-40282857D01*
X49328928Y-40282857D02*
X49281309Y-40259047D01*
X49281309Y-40259047D02*
X49257500Y-40235238D01*
X49257500Y-40235238D02*
X49233690Y-40187619D01*
%TO.C,2 x 1K*%
X41731309Y-40606268D02*
X41707500Y-40582459D01*
X41707500Y-40582459D02*
X41683690Y-40534840D01*
X41683690Y-40534840D02*
X41683690Y-40415792D01*
X41683690Y-40415792D02*
X41707500Y-40368173D01*
X41707500Y-40368173D02*
X41731309Y-40344364D01*
X41731309Y-40344364D02*
X41778928Y-40320554D01*
X41778928Y-40320554D02*
X41826547Y-40320554D01*
X41826547Y-40320554D02*
X41897976Y-40344364D01*
X41897976Y-40344364D02*
X42183690Y-40630078D01*
X42183690Y-40630078D02*
X42183690Y-40320554D01*
X42183690Y-39853888D02*
X41850357Y-39591983D01*
X41850357Y-39853888D02*
X42183690Y-39591983D01*
X42183690Y-38839602D02*
X42183690Y-39125316D01*
X42183690Y-38982459D02*
X41683690Y-38982459D01*
X41683690Y-38982459D02*
X41755119Y-39030078D01*
X41755119Y-39030078D02*
X41802738Y-39077697D01*
X41802738Y-39077697D02*
X41826547Y-39125316D01*
X42183690Y-38625317D02*
X41683690Y-38625317D01*
X42183690Y-38339603D02*
X41897976Y-38553888D01*
X41683690Y-38339603D02*
X41969404Y-38625317D01*
%TO.C,150*%
X53793690Y-40973332D02*
X53793690Y-41259046D01*
X53793690Y-41116189D02*
X53293690Y-41116189D01*
X53293690Y-41116189D02*
X53365119Y-41163808D01*
X53365119Y-41163808D02*
X53412738Y-41211427D01*
X53412738Y-41211427D02*
X53436547Y-41259046D01*
X53293690Y-40520952D02*
X53293690Y-40759047D01*
X53293690Y-40759047D02*
X53531785Y-40782856D01*
X53531785Y-40782856D02*
X53507976Y-40759047D01*
X53507976Y-40759047D02*
X53484166Y-40711428D01*
X53484166Y-40711428D02*
X53484166Y-40592380D01*
X53484166Y-40592380D02*
X53507976Y-40544761D01*
X53507976Y-40544761D02*
X53531785Y-40520952D01*
X53531785Y-40520952D02*
X53579404Y-40497142D01*
X53579404Y-40497142D02*
X53698452Y-40497142D01*
X53698452Y-40497142D02*
X53746071Y-40520952D01*
X53746071Y-40520952D02*
X53769880Y-40544761D01*
X53769880Y-40544761D02*
X53793690Y-40592380D01*
X53793690Y-40592380D02*
X53793690Y-40711428D01*
X53793690Y-40711428D02*
X53769880Y-40759047D01*
X53769880Y-40759047D02*
X53746071Y-40782856D01*
X53293690Y-40187619D02*
X53293690Y-40140000D01*
X53293690Y-40140000D02*
X53317500Y-40092381D01*
X53317500Y-40092381D02*
X53341309Y-40068571D01*
X53341309Y-40068571D02*
X53388928Y-40044762D01*
X53388928Y-40044762D02*
X53484166Y-40020952D01*
X53484166Y-40020952D02*
X53603214Y-40020952D01*
X53603214Y-40020952D02*
X53698452Y-40044762D01*
X53698452Y-40044762D02*
X53746071Y-40068571D01*
X53746071Y-40068571D02*
X53769880Y-40092381D01*
X53769880Y-40092381D02*
X53793690Y-40140000D01*
X53793690Y-40140000D02*
X53793690Y-40187619D01*
X53793690Y-40187619D02*
X53769880Y-40235238D01*
X53769880Y-40235238D02*
X53746071Y-40259047D01*
X53746071Y-40259047D02*
X53698452Y-40282857D01*
X53698452Y-40282857D02*
X53603214Y-40306666D01*
X53603214Y-40306666D02*
X53484166Y-40306666D01*
X53484166Y-40306666D02*
X53388928Y-40282857D01*
X53388928Y-40282857D02*
X53341309Y-40259047D01*
X53341309Y-40259047D02*
X53317500Y-40235238D01*
X53317500Y-40235238D02*
X53293690Y-40187619D01*
%TO.C,UDC11*%
X45503690Y-36679047D02*
X45908452Y-36679047D01*
X45908452Y-36679047D02*
X45956071Y-36655237D01*
X45956071Y-36655237D02*
X45979880Y-36631428D01*
X45979880Y-36631428D02*
X46003690Y-36583809D01*
X46003690Y-36583809D02*
X46003690Y-36488571D01*
X46003690Y-36488571D02*
X45979880Y-36440952D01*
X45979880Y-36440952D02*
X45956071Y-36417142D01*
X45956071Y-36417142D02*
X45908452Y-36393333D01*
X45908452Y-36393333D02*
X45503690Y-36393333D01*
X46003690Y-36155237D02*
X45503690Y-36155237D01*
X45503690Y-36155237D02*
X45503690Y-36036189D01*
X45503690Y-36036189D02*
X45527500Y-35964761D01*
X45527500Y-35964761D02*
X45575119Y-35917142D01*
X45575119Y-35917142D02*
X45622738Y-35893332D01*
X45622738Y-35893332D02*
X45717976Y-35869523D01*
X45717976Y-35869523D02*
X45789404Y-35869523D01*
X45789404Y-35869523D02*
X45884642Y-35893332D01*
X45884642Y-35893332D02*
X45932261Y-35917142D01*
X45932261Y-35917142D02*
X45979880Y-35964761D01*
X45979880Y-35964761D02*
X46003690Y-36036189D01*
X46003690Y-36036189D02*
X46003690Y-36155237D01*
X45956071Y-35369523D02*
X45979880Y-35393332D01*
X45979880Y-35393332D02*
X46003690Y-35464761D01*
X46003690Y-35464761D02*
X46003690Y-35512380D01*
X46003690Y-35512380D02*
X45979880Y-35583808D01*
X45979880Y-35583808D02*
X45932261Y-35631427D01*
X45932261Y-35631427D02*
X45884642Y-35655237D01*
X45884642Y-35655237D02*
X45789404Y-35679046D01*
X45789404Y-35679046D02*
X45717976Y-35679046D01*
X45717976Y-35679046D02*
X45622738Y-35655237D01*
X45622738Y-35655237D02*
X45575119Y-35631427D01*
X45575119Y-35631427D02*
X45527500Y-35583808D01*
X45527500Y-35583808D02*
X45503690Y-35512380D01*
X45503690Y-35512380D02*
X45503690Y-35464761D01*
X45503690Y-35464761D02*
X45527500Y-35393332D01*
X45527500Y-35393332D02*
X45551309Y-35369523D01*
X46003690Y-34893332D02*
X46003690Y-35179046D01*
X46003690Y-35036189D02*
X45503690Y-35036189D01*
X45503690Y-35036189D02*
X45575119Y-35083808D01*
X45575119Y-35083808D02*
X45622738Y-35131427D01*
X45622738Y-35131427D02*
X45646547Y-35179046D01*
X46003690Y-34417142D02*
X46003690Y-34702856D01*
X46003690Y-34559999D02*
X45503690Y-34559999D01*
X45503690Y-34559999D02*
X45575119Y-34607618D01*
X45575119Y-34607618D02*
X45622738Y-34655237D01*
X45622738Y-34655237D02*
X45646547Y-34702856D01*
%TO.C,330*%
X47383690Y-41282856D02*
X47383690Y-40973332D01*
X47383690Y-40973332D02*
X47574166Y-41139999D01*
X47574166Y-41139999D02*
X47574166Y-41068570D01*
X47574166Y-41068570D02*
X47597976Y-41020951D01*
X47597976Y-41020951D02*
X47621785Y-40997142D01*
X47621785Y-40997142D02*
X47669404Y-40973332D01*
X47669404Y-40973332D02*
X47788452Y-40973332D01*
X47788452Y-40973332D02*
X47836071Y-40997142D01*
X47836071Y-40997142D02*
X47859880Y-41020951D01*
X47859880Y-41020951D02*
X47883690Y-41068570D01*
X47883690Y-41068570D02*
X47883690Y-41211427D01*
X47883690Y-41211427D02*
X47859880Y-41259046D01*
X47859880Y-41259046D02*
X47836071Y-41282856D01*
X47383690Y-40806666D02*
X47383690Y-40497142D01*
X47383690Y-40497142D02*
X47574166Y-40663809D01*
X47574166Y-40663809D02*
X47574166Y-40592380D01*
X47574166Y-40592380D02*
X47597976Y-40544761D01*
X47597976Y-40544761D02*
X47621785Y-40520952D01*
X47621785Y-40520952D02*
X47669404Y-40497142D01*
X47669404Y-40497142D02*
X47788452Y-40497142D01*
X47788452Y-40497142D02*
X47836071Y-40520952D01*
X47836071Y-40520952D02*
X47859880Y-40544761D01*
X47859880Y-40544761D02*
X47883690Y-40592380D01*
X47883690Y-40592380D02*
X47883690Y-40735237D01*
X47883690Y-40735237D02*
X47859880Y-40782856D01*
X47859880Y-40782856D02*
X47836071Y-40806666D01*
X47383690Y-40187619D02*
X47383690Y-40140000D01*
X47383690Y-40140000D02*
X47407500Y-40092381D01*
X47407500Y-40092381D02*
X47431309Y-40068571D01*
X47431309Y-40068571D02*
X47478928Y-40044762D01*
X47478928Y-40044762D02*
X47574166Y-40020952D01*
X47574166Y-40020952D02*
X47693214Y-40020952D01*
X47693214Y-40020952D02*
X47788452Y-40044762D01*
X47788452Y-40044762D02*
X47836071Y-40068571D01*
X47836071Y-40068571D02*
X47859880Y-40092381D01*
X47859880Y-40092381D02*
X47883690Y-40140000D01*
X47883690Y-40140000D02*
X47883690Y-40187619D01*
X47883690Y-40187619D02*
X47859880Y-40235238D01*
X47859880Y-40235238D02*
X47836071Y-40259047D01*
X47836071Y-40259047D02*
X47788452Y-40282857D01*
X47788452Y-40282857D02*
X47693214Y-40306666D01*
X47693214Y-40306666D02*
X47574166Y-40306666D01*
X47574166Y-40306666D02*
X47478928Y-40282857D01*
X47478928Y-40282857D02*
X47431309Y-40259047D01*
X47431309Y-40259047D02*
X47407500Y-40235238D01*
X47407500Y-40235238D02*
X47383690Y-40187619D01*
%TO.C,3.3V*%
X49521905Y-43007380D02*
X49831429Y-43007380D01*
X49831429Y-43007380D02*
X49664762Y-43388333D01*
X49664762Y-43388333D02*
X49736191Y-43388333D01*
X49736191Y-43388333D02*
X49783810Y-43435952D01*
X49783810Y-43435952D02*
X49807619Y-43483571D01*
X49807619Y-43483571D02*
X49831429Y-43578809D01*
X49831429Y-43578809D02*
X49831429Y-43816904D01*
X49831429Y-43816904D02*
X49807619Y-43912142D01*
X49807619Y-43912142D02*
X49783810Y-43959761D01*
X49783810Y-43959761D02*
X49736191Y-44007380D01*
X49736191Y-44007380D02*
X49593334Y-44007380D01*
X49593334Y-44007380D02*
X49545715Y-43959761D01*
X49545715Y-43959761D02*
X49521905Y-43912142D01*
X50045714Y-43912142D02*
X50069524Y-43959761D01*
X50069524Y-43959761D02*
X50045714Y-44007380D01*
X50045714Y-44007380D02*
X50021905Y-43959761D01*
X50021905Y-43959761D02*
X50045714Y-43912142D01*
X50045714Y-43912142D02*
X50045714Y-44007380D01*
X50236190Y-43007380D02*
X50545714Y-43007380D01*
X50545714Y-43007380D02*
X50379047Y-43388333D01*
X50379047Y-43388333D02*
X50450476Y-43388333D01*
X50450476Y-43388333D02*
X50498095Y-43435952D01*
X50498095Y-43435952D02*
X50521904Y-43483571D01*
X50521904Y-43483571D02*
X50545714Y-43578809D01*
X50545714Y-43578809D02*
X50545714Y-43816904D01*
X50545714Y-43816904D02*
X50521904Y-43912142D01*
X50521904Y-43912142D02*
X50498095Y-43959761D01*
X50498095Y-43959761D02*
X50450476Y-44007380D01*
X50450476Y-44007380D02*
X50307619Y-44007380D01*
X50307619Y-44007380D02*
X50260000Y-43959761D01*
X50260000Y-43959761D02*
X50236190Y-43912142D01*
X50688571Y-43007380D02*
X50855237Y-44007380D01*
X50855237Y-44007380D02*
X51021904Y-43007380D01*
%TO.C,UDC7/TX*%
X42863690Y-37131428D02*
X43268452Y-37131428D01*
X43268452Y-37131428D02*
X43316071Y-37107618D01*
X43316071Y-37107618D02*
X43339880Y-37083809D01*
X43339880Y-37083809D02*
X43363690Y-37036190D01*
X43363690Y-37036190D02*
X43363690Y-36940952D01*
X43363690Y-36940952D02*
X43339880Y-36893333D01*
X43339880Y-36893333D02*
X43316071Y-36869523D01*
X43316071Y-36869523D02*
X43268452Y-36845714D01*
X43268452Y-36845714D02*
X42863690Y-36845714D01*
X43363690Y-36607618D02*
X42863690Y-36607618D01*
X42863690Y-36607618D02*
X42863690Y-36488570D01*
X42863690Y-36488570D02*
X42887500Y-36417142D01*
X42887500Y-36417142D02*
X42935119Y-36369523D01*
X42935119Y-36369523D02*
X42982738Y-36345713D01*
X42982738Y-36345713D02*
X43077976Y-36321904D01*
X43077976Y-36321904D02*
X43149404Y-36321904D01*
X43149404Y-36321904D02*
X43244642Y-36345713D01*
X43244642Y-36345713D02*
X43292261Y-36369523D01*
X43292261Y-36369523D02*
X43339880Y-36417142D01*
X43339880Y-36417142D02*
X43363690Y-36488570D01*
X43363690Y-36488570D02*
X43363690Y-36607618D01*
X43316071Y-35821904D02*
X43339880Y-35845713D01*
X43339880Y-35845713D02*
X43363690Y-35917142D01*
X43363690Y-35917142D02*
X43363690Y-35964761D01*
X43363690Y-35964761D02*
X43339880Y-36036189D01*
X43339880Y-36036189D02*
X43292261Y-36083808D01*
X43292261Y-36083808D02*
X43244642Y-36107618D01*
X43244642Y-36107618D02*
X43149404Y-36131427D01*
X43149404Y-36131427D02*
X43077976Y-36131427D01*
X43077976Y-36131427D02*
X42982738Y-36107618D01*
X42982738Y-36107618D02*
X42935119Y-36083808D01*
X42935119Y-36083808D02*
X42887500Y-36036189D01*
X42887500Y-36036189D02*
X42863690Y-35964761D01*
X42863690Y-35964761D02*
X42863690Y-35917142D01*
X42863690Y-35917142D02*
X42887500Y-35845713D01*
X42887500Y-35845713D02*
X42911309Y-35821904D01*
X42863690Y-35655237D02*
X42863690Y-35321904D01*
X42863690Y-35321904D02*
X43363690Y-35536189D01*
X42839880Y-34774285D02*
X43482738Y-35202856D01*
X42863690Y-34679046D02*
X42863690Y-34393332D01*
X43363690Y-34536189D02*
X42863690Y-34536189D01*
X42863690Y-34274285D02*
X43363690Y-33940952D01*
X42863690Y-33940952D02*
X43363690Y-34274285D01*
%TO.C,PC RX*%
X45320952Y-44007380D02*
X45320952Y-43007380D01*
X45320952Y-43007380D02*
X45511428Y-43007380D01*
X45511428Y-43007380D02*
X45559047Y-43055000D01*
X45559047Y-43055000D02*
X45582857Y-43102619D01*
X45582857Y-43102619D02*
X45606666Y-43197857D01*
X45606666Y-43197857D02*
X45606666Y-43340714D01*
X45606666Y-43340714D02*
X45582857Y-43435952D01*
X45582857Y-43435952D02*
X45559047Y-43483571D01*
X45559047Y-43483571D02*
X45511428Y-43531190D01*
X45511428Y-43531190D02*
X45320952Y-43531190D01*
X46106666Y-43912142D02*
X46082857Y-43959761D01*
X46082857Y-43959761D02*
X46011428Y-44007380D01*
X46011428Y-44007380D02*
X45963809Y-44007380D01*
X45963809Y-44007380D02*
X45892381Y-43959761D01*
X45892381Y-43959761D02*
X45844762Y-43864523D01*
X45844762Y-43864523D02*
X45820952Y-43769285D01*
X45820952Y-43769285D02*
X45797143Y-43578809D01*
X45797143Y-43578809D02*
X45797143Y-43435952D01*
X45797143Y-43435952D02*
X45820952Y-43245476D01*
X45820952Y-43245476D02*
X45844762Y-43150238D01*
X45844762Y-43150238D02*
X45892381Y-43055000D01*
X45892381Y-43055000D02*
X45963809Y-43007380D01*
X45963809Y-43007380D02*
X46011428Y-43007380D01*
X46011428Y-43007380D02*
X46082857Y-43055000D01*
X46082857Y-43055000D02*
X46106666Y-43102619D01*
X46906666Y-44007380D02*
X46740000Y-43531190D01*
X46620952Y-44007380D02*
X46620952Y-43007380D01*
X46620952Y-43007380D02*
X46811428Y-43007380D01*
X46811428Y-43007380D02*
X46859047Y-43055000D01*
X46859047Y-43055000D02*
X46882857Y-43102619D01*
X46882857Y-43102619D02*
X46906666Y-43197857D01*
X46906666Y-43197857D02*
X46906666Y-43340714D01*
X46906666Y-43340714D02*
X46882857Y-43435952D01*
X46882857Y-43435952D02*
X46859047Y-43483571D01*
X46859047Y-43483571D02*
X46811428Y-43531190D01*
X46811428Y-43531190D02*
X46620952Y-43531190D01*
X47073333Y-43007380D02*
X47406666Y-44007380D01*
X47406666Y-43007380D02*
X47073333Y-44007380D01*
%TO.C,GND*%
X54579047Y-43055000D02*
X54531428Y-43007380D01*
X54531428Y-43007380D02*
X54459999Y-43007380D01*
X54459999Y-43007380D02*
X54388571Y-43055000D01*
X54388571Y-43055000D02*
X54340952Y-43150238D01*
X54340952Y-43150238D02*
X54317142Y-43245476D01*
X54317142Y-43245476D02*
X54293333Y-43435952D01*
X54293333Y-43435952D02*
X54293333Y-43578809D01*
X54293333Y-43578809D02*
X54317142Y-43769285D01*
X54317142Y-43769285D02*
X54340952Y-43864523D01*
X54340952Y-43864523D02*
X54388571Y-43959761D01*
X54388571Y-43959761D02*
X54459999Y-44007380D01*
X54459999Y-44007380D02*
X54507618Y-44007380D01*
X54507618Y-44007380D02*
X54579047Y-43959761D01*
X54579047Y-43959761D02*
X54602856Y-43912142D01*
X54602856Y-43912142D02*
X54602856Y-43578809D01*
X54602856Y-43578809D02*
X54507618Y-43578809D01*
X54817142Y-44007380D02*
X54817142Y-43007380D01*
X54817142Y-43007380D02*
X55102856Y-44007380D01*
X55102856Y-44007380D02*
X55102856Y-43007380D01*
X55340952Y-44007380D02*
X55340952Y-43007380D01*
X55340952Y-43007380D02*
X55460000Y-43007380D01*
X55460000Y-43007380D02*
X55531428Y-43055000D01*
X55531428Y-43055000D02*
X55579047Y-43150238D01*
X55579047Y-43150238D02*
X55602857Y-43245476D01*
X55602857Y-43245476D02*
X55626666Y-43435952D01*
X55626666Y-43435952D02*
X55626666Y-43578809D01*
X55626666Y-43578809D02*
X55602857Y-43769285D01*
X55602857Y-43769285D02*
X55579047Y-43864523D01*
X55579047Y-43864523D02*
X55531428Y-43959761D01*
X55531428Y-43959761D02*
X55460000Y-44007380D01*
X55460000Y-44007380D02*
X55340952Y-44007380D01*
%TO.C,UDC6/RX*%
X41683690Y-37190952D02*
X42088452Y-37190952D01*
X42088452Y-37190952D02*
X42136071Y-37167142D01*
X42136071Y-37167142D02*
X42159880Y-37143333D01*
X42159880Y-37143333D02*
X42183690Y-37095714D01*
X42183690Y-37095714D02*
X42183690Y-37000476D01*
X42183690Y-37000476D02*
X42159880Y-36952857D01*
X42159880Y-36952857D02*
X42136071Y-36929047D01*
X42136071Y-36929047D02*
X42088452Y-36905238D01*
X42088452Y-36905238D02*
X41683690Y-36905238D01*
X42183690Y-36667142D02*
X41683690Y-36667142D01*
X41683690Y-36667142D02*
X41683690Y-36548094D01*
X41683690Y-36548094D02*
X41707500Y-36476666D01*
X41707500Y-36476666D02*
X41755119Y-36429047D01*
X41755119Y-36429047D02*
X41802738Y-36405237D01*
X41802738Y-36405237D02*
X41897976Y-36381428D01*
X41897976Y-36381428D02*
X41969404Y-36381428D01*
X41969404Y-36381428D02*
X42064642Y-36405237D01*
X42064642Y-36405237D02*
X42112261Y-36429047D01*
X42112261Y-36429047D02*
X42159880Y-36476666D01*
X42159880Y-36476666D02*
X42183690Y-36548094D01*
X42183690Y-36548094D02*
X42183690Y-36667142D01*
X42136071Y-35881428D02*
X42159880Y-35905237D01*
X42159880Y-35905237D02*
X42183690Y-35976666D01*
X42183690Y-35976666D02*
X42183690Y-36024285D01*
X42183690Y-36024285D02*
X42159880Y-36095713D01*
X42159880Y-36095713D02*
X42112261Y-36143332D01*
X42112261Y-36143332D02*
X42064642Y-36167142D01*
X42064642Y-36167142D02*
X41969404Y-36190951D01*
X41969404Y-36190951D02*
X41897976Y-36190951D01*
X41897976Y-36190951D02*
X41802738Y-36167142D01*
X41802738Y-36167142D02*
X41755119Y-36143332D01*
X41755119Y-36143332D02*
X41707500Y-36095713D01*
X41707500Y-36095713D02*
X41683690Y-36024285D01*
X41683690Y-36024285D02*
X41683690Y-35976666D01*
X41683690Y-35976666D02*
X41707500Y-35905237D01*
X41707500Y-35905237D02*
X41731309Y-35881428D01*
X41683690Y-35452856D02*
X41683690Y-35548094D01*
X41683690Y-35548094D02*
X41707500Y-35595713D01*
X41707500Y-35595713D02*
X41731309Y-35619523D01*
X41731309Y-35619523D02*
X41802738Y-35667142D01*
X41802738Y-35667142D02*
X41897976Y-35690951D01*
X41897976Y-35690951D02*
X42088452Y-35690951D01*
X42088452Y-35690951D02*
X42136071Y-35667142D01*
X42136071Y-35667142D02*
X42159880Y-35643332D01*
X42159880Y-35643332D02*
X42183690Y-35595713D01*
X42183690Y-35595713D02*
X42183690Y-35500475D01*
X42183690Y-35500475D02*
X42159880Y-35452856D01*
X42159880Y-35452856D02*
X42136071Y-35429047D01*
X42136071Y-35429047D02*
X42088452Y-35405237D01*
X42088452Y-35405237D02*
X41969404Y-35405237D01*
X41969404Y-35405237D02*
X41921785Y-35429047D01*
X41921785Y-35429047D02*
X41897976Y-35452856D01*
X41897976Y-35452856D02*
X41874166Y-35500475D01*
X41874166Y-35500475D02*
X41874166Y-35595713D01*
X41874166Y-35595713D02*
X41897976Y-35643332D01*
X41897976Y-35643332D02*
X41921785Y-35667142D01*
X41921785Y-35667142D02*
X41969404Y-35690951D01*
X41659880Y-34833809D02*
X42302738Y-35262380D01*
X42183690Y-34381428D02*
X41945595Y-34548094D01*
X42183690Y-34667142D02*
X41683690Y-34667142D01*
X41683690Y-34667142D02*
X41683690Y-34476666D01*
X41683690Y-34476666D02*
X41707500Y-34429047D01*
X41707500Y-34429047D02*
X41731309Y-34405237D01*
X41731309Y-34405237D02*
X41778928Y-34381428D01*
X41778928Y-34381428D02*
X41850357Y-34381428D01*
X41850357Y-34381428D02*
X41897976Y-34405237D01*
X41897976Y-34405237D02*
X41921785Y-34429047D01*
X41921785Y-34429047D02*
X41945595Y-34476666D01*
X41945595Y-34476666D02*
X41945595Y-34667142D01*
X41683690Y-34214761D02*
X42183690Y-33881428D01*
X41683690Y-33881428D02*
X42183690Y-34214761D01*
%TO.C,UDC3*%
X53683690Y-36440952D02*
X54088452Y-36440952D01*
X54088452Y-36440952D02*
X54136071Y-36417142D01*
X54136071Y-36417142D02*
X54159880Y-36393333D01*
X54159880Y-36393333D02*
X54183690Y-36345714D01*
X54183690Y-36345714D02*
X54183690Y-36250476D01*
X54183690Y-36250476D02*
X54159880Y-36202857D01*
X54159880Y-36202857D02*
X54136071Y-36179047D01*
X54136071Y-36179047D02*
X54088452Y-36155238D01*
X54088452Y-36155238D02*
X53683690Y-36155238D01*
X54183690Y-35917142D02*
X53683690Y-35917142D01*
X53683690Y-35917142D02*
X53683690Y-35798094D01*
X53683690Y-35798094D02*
X53707500Y-35726666D01*
X53707500Y-35726666D02*
X53755119Y-35679047D01*
X53755119Y-35679047D02*
X53802738Y-35655237D01*
X53802738Y-35655237D02*
X53897976Y-35631428D01*
X53897976Y-35631428D02*
X53969404Y-35631428D01*
X53969404Y-35631428D02*
X54064642Y-35655237D01*
X54064642Y-35655237D02*
X54112261Y-35679047D01*
X54112261Y-35679047D02*
X54159880Y-35726666D01*
X54159880Y-35726666D02*
X54183690Y-35798094D01*
X54183690Y-35798094D02*
X54183690Y-35917142D01*
X54136071Y-35131428D02*
X54159880Y-35155237D01*
X54159880Y-35155237D02*
X54183690Y-35226666D01*
X54183690Y-35226666D02*
X54183690Y-35274285D01*
X54183690Y-35274285D02*
X54159880Y-35345713D01*
X54159880Y-35345713D02*
X54112261Y-35393332D01*
X54112261Y-35393332D02*
X54064642Y-35417142D01*
X54064642Y-35417142D02*
X53969404Y-35440951D01*
X53969404Y-35440951D02*
X53897976Y-35440951D01*
X53897976Y-35440951D02*
X53802738Y-35417142D01*
X53802738Y-35417142D02*
X53755119Y-35393332D01*
X53755119Y-35393332D02*
X53707500Y-35345713D01*
X53707500Y-35345713D02*
X53683690Y-35274285D01*
X53683690Y-35274285D02*
X53683690Y-35226666D01*
X53683690Y-35226666D02*
X53707500Y-35155237D01*
X53707500Y-35155237D02*
X53731309Y-35131428D01*
X53683690Y-34964761D02*
X53683690Y-34655237D01*
X53683690Y-34655237D02*
X53874166Y-34821904D01*
X53874166Y-34821904D02*
X53874166Y-34750475D01*
X53874166Y-34750475D02*
X53897976Y-34702856D01*
X53897976Y-34702856D02*
X53921785Y-34679047D01*
X53921785Y-34679047D02*
X53969404Y-34655237D01*
X53969404Y-34655237D02*
X54088452Y-34655237D01*
X54088452Y-34655237D02*
X54136071Y-34679047D01*
X54136071Y-34679047D02*
X54159880Y-34702856D01*
X54159880Y-34702856D02*
X54183690Y-34750475D01*
X54183690Y-34750475D02*
X54183690Y-34893332D01*
X54183690Y-34893332D02*
X54159880Y-34940951D01*
X54159880Y-34940951D02*
X54136071Y-34964761D01*
%TO.C,PC TX*%
X41740476Y-44007380D02*
X41740476Y-43007380D01*
X41740476Y-43007380D02*
X41930952Y-43007380D01*
X41930952Y-43007380D02*
X41978571Y-43055000D01*
X41978571Y-43055000D02*
X42002381Y-43102619D01*
X42002381Y-43102619D02*
X42026190Y-43197857D01*
X42026190Y-43197857D02*
X42026190Y-43340714D01*
X42026190Y-43340714D02*
X42002381Y-43435952D01*
X42002381Y-43435952D02*
X41978571Y-43483571D01*
X41978571Y-43483571D02*
X41930952Y-43531190D01*
X41930952Y-43531190D02*
X41740476Y-43531190D01*
X42526190Y-43912142D02*
X42502381Y-43959761D01*
X42502381Y-43959761D02*
X42430952Y-44007380D01*
X42430952Y-44007380D02*
X42383333Y-44007380D01*
X42383333Y-44007380D02*
X42311905Y-43959761D01*
X42311905Y-43959761D02*
X42264286Y-43864523D01*
X42264286Y-43864523D02*
X42240476Y-43769285D01*
X42240476Y-43769285D02*
X42216667Y-43578809D01*
X42216667Y-43578809D02*
X42216667Y-43435952D01*
X42216667Y-43435952D02*
X42240476Y-43245476D01*
X42240476Y-43245476D02*
X42264286Y-43150238D01*
X42264286Y-43150238D02*
X42311905Y-43055000D01*
X42311905Y-43055000D02*
X42383333Y-43007380D01*
X42383333Y-43007380D02*
X42430952Y-43007380D01*
X42430952Y-43007380D02*
X42502381Y-43055000D01*
X42502381Y-43055000D02*
X42526190Y-43102619D01*
X42969048Y-43007380D02*
X43254762Y-43007380D01*
X43111905Y-44007380D02*
X43111905Y-43007380D01*
X43373809Y-43007380D02*
X43707142Y-44007380D01*
X43707142Y-43007380D02*
X43373809Y-44007380D01*
D11*
%TO.C,330*%
X51935000Y-40867064D02*
X51935000Y-40412936D01*
X50465000Y-40867064D02*
X50465000Y-40412936D01*
%TO.C,2 x 1K*%
X39905000Y-39927064D02*
X39905000Y-39472936D01*
X41375000Y-39927064D02*
X41375000Y-39472936D01*
%TO.C,150*%
X55995000Y-40867064D02*
X55995000Y-40412936D01*
X54525000Y-40867064D02*
X54525000Y-40412936D01*
%TO.C,330*%
X46855000Y-40867064D02*
X46855000Y-40412936D01*
X45385000Y-40867064D02*
X45385000Y-40412936D01*
%TO.C,1K*%
X43915000Y-40867064D02*
X43915000Y-40412936D01*
X42445000Y-40867064D02*
X42445000Y-40412936D01*
%TD*%
M02*
