%TF.GenerationSoftware,KiCad,Pcbnew,(7.0.0)*%
%TF.CreationDate,2023-03-16T10:47:06+01:00*%
%TF.ProjectId,PCH-1000JIG_0805,5043482d-3130-4303-904a-49475f303830,rev?*%
%TF.SameCoordinates,Original*%
%TF.FileFunction,Copper,L1,Top*%
%TF.FilePolarity,Positive*%
%FSLAX46Y46*%
G04 Gerber Fmt 4.6, Leading zero omitted, Abs format (unit mm)*
G04 Created by KiCad (PCBNEW (7.0.0)) date 2023-03-16 10:47:06*
%MOMM*%
%LPD*%
G01*
G04 APERTURE LIST*
G04 Aperture macros list*
%AMRoundRect*
0 Rectangle with rounded corners*
0 $1 Rounding radius*
0 $2 $3 $4 $5 $6 $7 $8 $9 X,Y pos of 4 corners*
0 Add a 4 corners polygon primitive as box body*
4,1,4,$2,$3,$4,$5,$6,$7,$8,$9,$2,$3,0*
0 Add four circle primitives for the rounded corners*
1,1,$1+$1,$2,$3*
1,1,$1+$1,$4,$5*
1,1,$1+$1,$6,$7*
1,1,$1+$1,$8,$9*
0 Add four rect primitives between the rounded corners*
20,1,$1+$1,$2,$3,$4,$5,0*
20,1,$1+$1,$4,$5,$6,$7,0*
20,1,$1+$1,$6,$7,$8,$9,0*
20,1,$1+$1,$8,$9,$2,$3,0*%
G04 Aperture macros list end*
%TA.AperFunction,SMDPad,CuDef*%
%ADD10RoundRect,0.250000X-0.250000X-0.750000X0.250000X-0.750000X0.250000X0.750000X-0.250000X0.750000X0*%
%TD*%
%TA.AperFunction,SMDPad,CuDef*%
%ADD11RoundRect,0.250000X0.450000X-0.350000X0.450000X0.350000X-0.450000X0.350000X-0.450000X-0.350000X0*%
%TD*%
%TA.AperFunction,Conductor*%
%ADD12C,0.250000*%
%TD*%
%TA.AperFunction,Conductor*%
%ADD13C,0.000000*%
%TD*%
G04 APERTURE END LIST*
D10*
%TO.P,UDC12,1*%
%TO.N,N/C*%
X53340000Y-35560000D03*
%TD*%
D11*
%TO.P,330,1*%
%TO.N,N/C*%
X53340000Y-41640000D03*
%TO.P,330,2*%
X53340000Y-39640000D03*
%TD*%
%TO.P,1K,1*%
%TO.N,N/C*%
X40640000Y-40700000D03*
%TO.P,1K,2*%
X40640000Y-38700000D03*
%TD*%
%TO.P,150,1*%
%TO.N,N/C*%
X57400000Y-41640000D03*
%TO.P,150,2*%
X57400000Y-39640000D03*
%TD*%
D10*
%TO.P,UDC11,1*%
%TO.N,N/C*%
X49500000Y-35560000D03*
%TD*%
D11*
%TO.P,330,1*%
%TO.N,N/C*%
X48260000Y-41640000D03*
%TO.P,330,2*%
X48260000Y-39640000D03*
%TD*%
%TO.P,1K,1*%
%TO.N,N/C*%
X43180000Y-41640000D03*
%TO.P,1K,2*%
X43180000Y-39640000D03*
%TD*%
D10*
%TO.P,3.3V,1*%
%TO.N,N/C*%
X50800000Y-43000000D03*
%TD*%
%TO.P,UDC7/TX,1*%
%TO.N,N/C*%
X45720000Y-35560000D03*
%TD*%
%TO.P,RX,1*%
%TO.N,N/C*%
X45720000Y-43000000D03*
%TD*%
%TO.P,GND,1*%
%TO.N,N/C*%
X55500000Y-43000000D03*
%TD*%
%TO.P,UDC6/RX,1*%
%TO.N,N/C*%
X40640000Y-35560000D03*
%TD*%
%TO.P,UDC3,1*%
%TO.N,N/C*%
X57500000Y-35560000D03*
%TD*%
%TO.P,TX,1*%
%TO.N,N/C*%
X41000000Y-43000000D03*
%TD*%
D12*
%TO.N,*%
X40640000Y-40700000D02*
X40640000Y-42640000D01*
D13*
X40640000Y-42640000D02*
X41000000Y-43000000D01*
D12*
X40640000Y-39100000D02*
X43180000Y-41640000D01*
X40640000Y-38700000D02*
X40640000Y-39100000D01*
X40640000Y-35560000D02*
X40640000Y-38700000D01*
X58420000Y-38100000D02*
X58420000Y-40640000D01*
X48260000Y-43180000D02*
X50620000Y-43180000D01*
X55680000Y-43180000D02*
X55500000Y-43000000D01*
X52040000Y-38100000D02*
X49500000Y-35560000D01*
X55880000Y-39100000D02*
X55880000Y-38100000D01*
X48260000Y-39640000D02*
X51340000Y-39640000D01*
X43180000Y-39640000D02*
X43180000Y-34000000D01*
X43180000Y-34000000D02*
X58420000Y-34000000D01*
X56420000Y-40660000D02*
X57400000Y-41640000D01*
X58420000Y-35560000D02*
X57500000Y-35560000D01*
X53340000Y-39640000D02*
X56420000Y-39640000D01*
D13*
X41000000Y-43180000D02*
X40640000Y-43180000D01*
D12*
X51340000Y-39640000D02*
X53340000Y-41640000D01*
X56420000Y-39640000D02*
X56420000Y-40660000D01*
X58420000Y-34000000D02*
X58420000Y-35560000D01*
X58420000Y-40640000D02*
X58420000Y-43180000D01*
X58420000Y-40640000D02*
X58400000Y-40640000D01*
X58420000Y-43180000D02*
X55680000Y-43180000D01*
X55880000Y-35560000D02*
X58420000Y-38100000D01*
D13*
X41000000Y-43000000D02*
X40460000Y-43000000D01*
X41000000Y-40860000D02*
X40640000Y-40500000D01*
D12*
X56420000Y-39640000D02*
X55880000Y-39100000D01*
X55880000Y-38100000D02*
X52040000Y-38100000D01*
X48260000Y-41640000D02*
X48260000Y-43180000D01*
X58400000Y-40640000D02*
X57400000Y-39640000D01*
X58420000Y-35560000D02*
X58420000Y-38100000D01*
X53340000Y-35560000D02*
X55880000Y-35560000D01*
X50620000Y-43180000D02*
X50800000Y-43000000D01*
X45720000Y-35560000D02*
X45720000Y-43000000D01*
%TD*%
M02*
