%TF.GenerationSoftware,KiCad,Pcbnew,(7.0.0)*%
%TF.CreationDate,2023-03-15T17:10:08+01:00*%
%TF.ProjectId,PCH-1000JIG_0805,5043482d-3130-4303-904a-49475f303830,rev?*%
%TF.SameCoordinates,Original*%
%TF.FileFunction,Legend,Top*%
%TF.FilePolarity,Positive*%
%FSLAX46Y46*%
G04 Gerber Fmt 4.6, Leading zero omitted, Abs format (unit mm)*
G04 Created by KiCad (PCBNEW (7.0.0)) date 2023-03-15 17:10:08*
%MOMM*%
%LPD*%
G01*
G04 APERTURE LIST*
%ADD10C,0.125000*%
%ADD11C,0.150000*%
%ADD12C,0.120000*%
G04 APERTURE END LIST*
D10*
%TO.C,UDC12*%
X52220952Y-37467380D02*
X52220952Y-38276904D01*
X52220952Y-38276904D02*
X52244762Y-38372142D01*
X52244762Y-38372142D02*
X52268571Y-38419761D01*
X52268571Y-38419761D02*
X52316190Y-38467380D01*
X52316190Y-38467380D02*
X52411428Y-38467380D01*
X52411428Y-38467380D02*
X52459047Y-38419761D01*
X52459047Y-38419761D02*
X52482857Y-38372142D01*
X52482857Y-38372142D02*
X52506666Y-38276904D01*
X52506666Y-38276904D02*
X52506666Y-37467380D01*
X52744762Y-38467380D02*
X52744762Y-37467380D01*
X52744762Y-37467380D02*
X52863810Y-37467380D01*
X52863810Y-37467380D02*
X52935238Y-37515000D01*
X52935238Y-37515000D02*
X52982857Y-37610238D01*
X52982857Y-37610238D02*
X53006667Y-37705476D01*
X53006667Y-37705476D02*
X53030476Y-37895952D01*
X53030476Y-37895952D02*
X53030476Y-38038809D01*
X53030476Y-38038809D02*
X53006667Y-38229285D01*
X53006667Y-38229285D02*
X52982857Y-38324523D01*
X52982857Y-38324523D02*
X52935238Y-38419761D01*
X52935238Y-38419761D02*
X52863810Y-38467380D01*
X52863810Y-38467380D02*
X52744762Y-38467380D01*
X53530476Y-38372142D02*
X53506667Y-38419761D01*
X53506667Y-38419761D02*
X53435238Y-38467380D01*
X53435238Y-38467380D02*
X53387619Y-38467380D01*
X53387619Y-38467380D02*
X53316191Y-38419761D01*
X53316191Y-38419761D02*
X53268572Y-38324523D01*
X53268572Y-38324523D02*
X53244762Y-38229285D01*
X53244762Y-38229285D02*
X53220953Y-38038809D01*
X53220953Y-38038809D02*
X53220953Y-37895952D01*
X53220953Y-37895952D02*
X53244762Y-37705476D01*
X53244762Y-37705476D02*
X53268572Y-37610238D01*
X53268572Y-37610238D02*
X53316191Y-37515000D01*
X53316191Y-37515000D02*
X53387619Y-37467380D01*
X53387619Y-37467380D02*
X53435238Y-37467380D01*
X53435238Y-37467380D02*
X53506667Y-37515000D01*
X53506667Y-37515000D02*
X53530476Y-37562619D01*
X54006667Y-38467380D02*
X53720953Y-38467380D01*
X53863810Y-38467380D02*
X53863810Y-37467380D01*
X53863810Y-37467380D02*
X53816191Y-37610238D01*
X53816191Y-37610238D02*
X53768572Y-37705476D01*
X53768572Y-37705476D02*
X53720953Y-37753095D01*
X54197143Y-37562619D02*
X54220952Y-37515000D01*
X54220952Y-37515000D02*
X54268571Y-37467380D01*
X54268571Y-37467380D02*
X54387619Y-37467380D01*
X54387619Y-37467380D02*
X54435238Y-37515000D01*
X54435238Y-37515000D02*
X54459047Y-37562619D01*
X54459047Y-37562619D02*
X54482857Y-37657857D01*
X54482857Y-37657857D02*
X54482857Y-37753095D01*
X54482857Y-37753095D02*
X54459047Y-37895952D01*
X54459047Y-37895952D02*
X54173333Y-38467380D01*
X54173333Y-38467380D02*
X54482857Y-38467380D01*
D11*
%TO.C,330*%
X51057380Y-41925713D02*
X51057380Y-41306666D01*
X51057380Y-41306666D02*
X51438333Y-41639999D01*
X51438333Y-41639999D02*
X51438333Y-41497142D01*
X51438333Y-41497142D02*
X51485952Y-41401904D01*
X51485952Y-41401904D02*
X51533571Y-41354285D01*
X51533571Y-41354285D02*
X51628809Y-41306666D01*
X51628809Y-41306666D02*
X51866904Y-41306666D01*
X51866904Y-41306666D02*
X51962142Y-41354285D01*
X51962142Y-41354285D02*
X52009761Y-41401904D01*
X52009761Y-41401904D02*
X52057380Y-41497142D01*
X52057380Y-41497142D02*
X52057380Y-41782856D01*
X52057380Y-41782856D02*
X52009761Y-41878094D01*
X52009761Y-41878094D02*
X51962142Y-41925713D01*
X51057380Y-40973332D02*
X51057380Y-40354285D01*
X51057380Y-40354285D02*
X51438333Y-40687618D01*
X51438333Y-40687618D02*
X51438333Y-40544761D01*
X51438333Y-40544761D02*
X51485952Y-40449523D01*
X51485952Y-40449523D02*
X51533571Y-40401904D01*
X51533571Y-40401904D02*
X51628809Y-40354285D01*
X51628809Y-40354285D02*
X51866904Y-40354285D01*
X51866904Y-40354285D02*
X51962142Y-40401904D01*
X51962142Y-40401904D02*
X52009761Y-40449523D01*
X52009761Y-40449523D02*
X52057380Y-40544761D01*
X52057380Y-40544761D02*
X52057380Y-40830475D01*
X52057380Y-40830475D02*
X52009761Y-40925713D01*
X52009761Y-40925713D02*
X51962142Y-40973332D01*
X51057380Y-39735237D02*
X51057380Y-39639999D01*
X51057380Y-39639999D02*
X51105000Y-39544761D01*
X51105000Y-39544761D02*
X51152619Y-39497142D01*
X51152619Y-39497142D02*
X51247857Y-39449523D01*
X51247857Y-39449523D02*
X51438333Y-39401904D01*
X51438333Y-39401904D02*
X51676428Y-39401904D01*
X51676428Y-39401904D02*
X51866904Y-39449523D01*
X51866904Y-39449523D02*
X51962142Y-39497142D01*
X51962142Y-39497142D02*
X52009761Y-39544761D01*
X52009761Y-39544761D02*
X52057380Y-39639999D01*
X52057380Y-39639999D02*
X52057380Y-39735237D01*
X52057380Y-39735237D02*
X52009761Y-39830475D01*
X52009761Y-39830475D02*
X51962142Y-39878094D01*
X51962142Y-39878094D02*
X51866904Y-39925713D01*
X51866904Y-39925713D02*
X51676428Y-39973332D01*
X51676428Y-39973332D02*
X51438333Y-39973332D01*
X51438333Y-39973332D02*
X51247857Y-39925713D01*
X51247857Y-39925713D02*
X51152619Y-39878094D01*
X51152619Y-39878094D02*
X51105000Y-39830475D01*
X51105000Y-39830475D02*
X51057380Y-39735237D01*
%TO.C,1K*%
X40367380Y-40854285D02*
X40367380Y-41425713D01*
X40367380Y-41139999D02*
X39367380Y-41139999D01*
X39367380Y-41139999D02*
X39510238Y-41235237D01*
X39510238Y-41235237D02*
X39605476Y-41330475D01*
X39605476Y-41330475D02*
X39653095Y-41425713D01*
X40367380Y-40425713D02*
X39367380Y-40425713D01*
X40367380Y-39854285D02*
X39795952Y-40282856D01*
X39367380Y-39854285D02*
X39938809Y-40425713D01*
%TO.C,150*%
X57137380Y-41306666D02*
X57137380Y-41878094D01*
X57137380Y-41592380D02*
X56137380Y-41592380D01*
X56137380Y-41592380D02*
X56280238Y-41687618D01*
X56280238Y-41687618D02*
X56375476Y-41782856D01*
X56375476Y-41782856D02*
X56423095Y-41878094D01*
X56137380Y-40401904D02*
X56137380Y-40878094D01*
X56137380Y-40878094D02*
X56613571Y-40925713D01*
X56613571Y-40925713D02*
X56565952Y-40878094D01*
X56565952Y-40878094D02*
X56518333Y-40782856D01*
X56518333Y-40782856D02*
X56518333Y-40544761D01*
X56518333Y-40544761D02*
X56565952Y-40449523D01*
X56565952Y-40449523D02*
X56613571Y-40401904D01*
X56613571Y-40401904D02*
X56708809Y-40354285D01*
X56708809Y-40354285D02*
X56946904Y-40354285D01*
X56946904Y-40354285D02*
X57042142Y-40401904D01*
X57042142Y-40401904D02*
X57089761Y-40449523D01*
X57089761Y-40449523D02*
X57137380Y-40544761D01*
X57137380Y-40544761D02*
X57137380Y-40782856D01*
X57137380Y-40782856D02*
X57089761Y-40878094D01*
X57089761Y-40878094D02*
X57042142Y-40925713D01*
X56137380Y-39735237D02*
X56137380Y-39639999D01*
X56137380Y-39639999D02*
X56185000Y-39544761D01*
X56185000Y-39544761D02*
X56232619Y-39497142D01*
X56232619Y-39497142D02*
X56327857Y-39449523D01*
X56327857Y-39449523D02*
X56518333Y-39401904D01*
X56518333Y-39401904D02*
X56756428Y-39401904D01*
X56756428Y-39401904D02*
X56946904Y-39449523D01*
X56946904Y-39449523D02*
X57042142Y-39497142D01*
X57042142Y-39497142D02*
X57089761Y-39544761D01*
X57089761Y-39544761D02*
X57137380Y-39639999D01*
X57137380Y-39639999D02*
X57137380Y-39735237D01*
X57137380Y-39735237D02*
X57089761Y-39830475D01*
X57089761Y-39830475D02*
X57042142Y-39878094D01*
X57042142Y-39878094D02*
X56946904Y-39925713D01*
X56946904Y-39925713D02*
X56756428Y-39973332D01*
X56756428Y-39973332D02*
X56518333Y-39973332D01*
X56518333Y-39973332D02*
X56327857Y-39925713D01*
X56327857Y-39925713D02*
X56232619Y-39878094D01*
X56232619Y-39878094D02*
X56185000Y-39830475D01*
X56185000Y-39830475D02*
X56137380Y-39735237D01*
D10*
%TO.C,UDC11*%
X48380952Y-37467380D02*
X48380952Y-38276904D01*
X48380952Y-38276904D02*
X48404762Y-38372142D01*
X48404762Y-38372142D02*
X48428571Y-38419761D01*
X48428571Y-38419761D02*
X48476190Y-38467380D01*
X48476190Y-38467380D02*
X48571428Y-38467380D01*
X48571428Y-38467380D02*
X48619047Y-38419761D01*
X48619047Y-38419761D02*
X48642857Y-38372142D01*
X48642857Y-38372142D02*
X48666666Y-38276904D01*
X48666666Y-38276904D02*
X48666666Y-37467380D01*
X48904762Y-38467380D02*
X48904762Y-37467380D01*
X48904762Y-37467380D02*
X49023810Y-37467380D01*
X49023810Y-37467380D02*
X49095238Y-37515000D01*
X49095238Y-37515000D02*
X49142857Y-37610238D01*
X49142857Y-37610238D02*
X49166667Y-37705476D01*
X49166667Y-37705476D02*
X49190476Y-37895952D01*
X49190476Y-37895952D02*
X49190476Y-38038809D01*
X49190476Y-38038809D02*
X49166667Y-38229285D01*
X49166667Y-38229285D02*
X49142857Y-38324523D01*
X49142857Y-38324523D02*
X49095238Y-38419761D01*
X49095238Y-38419761D02*
X49023810Y-38467380D01*
X49023810Y-38467380D02*
X48904762Y-38467380D01*
X49690476Y-38372142D02*
X49666667Y-38419761D01*
X49666667Y-38419761D02*
X49595238Y-38467380D01*
X49595238Y-38467380D02*
X49547619Y-38467380D01*
X49547619Y-38467380D02*
X49476191Y-38419761D01*
X49476191Y-38419761D02*
X49428572Y-38324523D01*
X49428572Y-38324523D02*
X49404762Y-38229285D01*
X49404762Y-38229285D02*
X49380953Y-38038809D01*
X49380953Y-38038809D02*
X49380953Y-37895952D01*
X49380953Y-37895952D02*
X49404762Y-37705476D01*
X49404762Y-37705476D02*
X49428572Y-37610238D01*
X49428572Y-37610238D02*
X49476191Y-37515000D01*
X49476191Y-37515000D02*
X49547619Y-37467380D01*
X49547619Y-37467380D02*
X49595238Y-37467380D01*
X49595238Y-37467380D02*
X49666667Y-37515000D01*
X49666667Y-37515000D02*
X49690476Y-37562619D01*
X50166667Y-38467380D02*
X49880953Y-38467380D01*
X50023810Y-38467380D02*
X50023810Y-37467380D01*
X50023810Y-37467380D02*
X49976191Y-37610238D01*
X49976191Y-37610238D02*
X49928572Y-37705476D01*
X49928572Y-37705476D02*
X49880953Y-37753095D01*
X50642857Y-38467380D02*
X50357143Y-38467380D01*
X50500000Y-38467380D02*
X50500000Y-37467380D01*
X50500000Y-37467380D02*
X50452381Y-37610238D01*
X50452381Y-37610238D02*
X50404762Y-37705476D01*
X50404762Y-37705476D02*
X50357143Y-37753095D01*
D11*
%TO.C,330*%
X45977380Y-41925713D02*
X45977380Y-41306666D01*
X45977380Y-41306666D02*
X46358333Y-41639999D01*
X46358333Y-41639999D02*
X46358333Y-41497142D01*
X46358333Y-41497142D02*
X46405952Y-41401904D01*
X46405952Y-41401904D02*
X46453571Y-41354285D01*
X46453571Y-41354285D02*
X46548809Y-41306666D01*
X46548809Y-41306666D02*
X46786904Y-41306666D01*
X46786904Y-41306666D02*
X46882142Y-41354285D01*
X46882142Y-41354285D02*
X46929761Y-41401904D01*
X46929761Y-41401904D02*
X46977380Y-41497142D01*
X46977380Y-41497142D02*
X46977380Y-41782856D01*
X46977380Y-41782856D02*
X46929761Y-41878094D01*
X46929761Y-41878094D02*
X46882142Y-41925713D01*
X45977380Y-40973332D02*
X45977380Y-40354285D01*
X45977380Y-40354285D02*
X46358333Y-40687618D01*
X46358333Y-40687618D02*
X46358333Y-40544761D01*
X46358333Y-40544761D02*
X46405952Y-40449523D01*
X46405952Y-40449523D02*
X46453571Y-40401904D01*
X46453571Y-40401904D02*
X46548809Y-40354285D01*
X46548809Y-40354285D02*
X46786904Y-40354285D01*
X46786904Y-40354285D02*
X46882142Y-40401904D01*
X46882142Y-40401904D02*
X46929761Y-40449523D01*
X46929761Y-40449523D02*
X46977380Y-40544761D01*
X46977380Y-40544761D02*
X46977380Y-40830475D01*
X46977380Y-40830475D02*
X46929761Y-40925713D01*
X46929761Y-40925713D02*
X46882142Y-40973332D01*
X45977380Y-39735237D02*
X45977380Y-39639999D01*
X45977380Y-39639999D02*
X46025000Y-39544761D01*
X46025000Y-39544761D02*
X46072619Y-39497142D01*
X46072619Y-39497142D02*
X46167857Y-39449523D01*
X46167857Y-39449523D02*
X46358333Y-39401904D01*
X46358333Y-39401904D02*
X46596428Y-39401904D01*
X46596428Y-39401904D02*
X46786904Y-39449523D01*
X46786904Y-39449523D02*
X46882142Y-39497142D01*
X46882142Y-39497142D02*
X46929761Y-39544761D01*
X46929761Y-39544761D02*
X46977380Y-39639999D01*
X46977380Y-39639999D02*
X46977380Y-39735237D01*
X46977380Y-39735237D02*
X46929761Y-39830475D01*
X46929761Y-39830475D02*
X46882142Y-39878094D01*
X46882142Y-39878094D02*
X46786904Y-39925713D01*
X46786904Y-39925713D02*
X46596428Y-39973332D01*
X46596428Y-39973332D02*
X46358333Y-39973332D01*
X46358333Y-39973332D02*
X46167857Y-39925713D01*
X46167857Y-39925713D02*
X46072619Y-39878094D01*
X46072619Y-39878094D02*
X46025000Y-39830475D01*
X46025000Y-39830475D02*
X45977380Y-39735237D01*
%TO.C,1K*%
X41897380Y-40854285D02*
X41897380Y-41425713D01*
X41897380Y-41139999D02*
X40897380Y-41139999D01*
X40897380Y-41139999D02*
X41040238Y-41235237D01*
X41040238Y-41235237D02*
X41135476Y-41330475D01*
X41135476Y-41330475D02*
X41183095Y-41425713D01*
X41897380Y-40425713D02*
X40897380Y-40425713D01*
X41897380Y-39854285D02*
X41325952Y-40282856D01*
X40897380Y-39854285D02*
X41468809Y-40425713D01*
%TO.C,3.3V*%
X47226667Y-43367380D02*
X47660000Y-43367380D01*
X47660000Y-43367380D02*
X47426667Y-43748333D01*
X47426667Y-43748333D02*
X47526667Y-43748333D01*
X47526667Y-43748333D02*
X47593333Y-43795952D01*
X47593333Y-43795952D02*
X47626667Y-43843571D01*
X47626667Y-43843571D02*
X47660000Y-43938809D01*
X47660000Y-43938809D02*
X47660000Y-44176904D01*
X47660000Y-44176904D02*
X47626667Y-44272142D01*
X47626667Y-44272142D02*
X47593333Y-44319761D01*
X47593333Y-44319761D02*
X47526667Y-44367380D01*
X47526667Y-44367380D02*
X47326667Y-44367380D01*
X47326667Y-44367380D02*
X47260000Y-44319761D01*
X47260000Y-44319761D02*
X47226667Y-44272142D01*
X47960000Y-44272142D02*
X47993334Y-44319761D01*
X47993334Y-44319761D02*
X47960000Y-44367380D01*
X47960000Y-44367380D02*
X47926667Y-44319761D01*
X47926667Y-44319761D02*
X47960000Y-44272142D01*
X47960000Y-44272142D02*
X47960000Y-44367380D01*
X48226667Y-43367380D02*
X48660000Y-43367380D01*
X48660000Y-43367380D02*
X48426667Y-43748333D01*
X48426667Y-43748333D02*
X48526667Y-43748333D01*
X48526667Y-43748333D02*
X48593333Y-43795952D01*
X48593333Y-43795952D02*
X48626667Y-43843571D01*
X48626667Y-43843571D02*
X48660000Y-43938809D01*
X48660000Y-43938809D02*
X48660000Y-44176904D01*
X48660000Y-44176904D02*
X48626667Y-44272142D01*
X48626667Y-44272142D02*
X48593333Y-44319761D01*
X48593333Y-44319761D02*
X48526667Y-44367380D01*
X48526667Y-44367380D02*
X48326667Y-44367380D01*
X48326667Y-44367380D02*
X48260000Y-44319761D01*
X48260000Y-44319761D02*
X48226667Y-44272142D01*
X48860000Y-43367380D02*
X49093334Y-44367380D01*
X49093334Y-44367380D02*
X49326667Y-43367380D01*
D10*
%TO.C,UDC7/TX*%
X44148571Y-37467380D02*
X44148571Y-38276904D01*
X44148571Y-38276904D02*
X44172381Y-38372142D01*
X44172381Y-38372142D02*
X44196190Y-38419761D01*
X44196190Y-38419761D02*
X44243809Y-38467380D01*
X44243809Y-38467380D02*
X44339047Y-38467380D01*
X44339047Y-38467380D02*
X44386666Y-38419761D01*
X44386666Y-38419761D02*
X44410476Y-38372142D01*
X44410476Y-38372142D02*
X44434285Y-38276904D01*
X44434285Y-38276904D02*
X44434285Y-37467380D01*
X44672381Y-38467380D02*
X44672381Y-37467380D01*
X44672381Y-37467380D02*
X44791429Y-37467380D01*
X44791429Y-37467380D02*
X44862857Y-37515000D01*
X44862857Y-37515000D02*
X44910476Y-37610238D01*
X44910476Y-37610238D02*
X44934286Y-37705476D01*
X44934286Y-37705476D02*
X44958095Y-37895952D01*
X44958095Y-37895952D02*
X44958095Y-38038809D01*
X44958095Y-38038809D02*
X44934286Y-38229285D01*
X44934286Y-38229285D02*
X44910476Y-38324523D01*
X44910476Y-38324523D02*
X44862857Y-38419761D01*
X44862857Y-38419761D02*
X44791429Y-38467380D01*
X44791429Y-38467380D02*
X44672381Y-38467380D01*
X45458095Y-38372142D02*
X45434286Y-38419761D01*
X45434286Y-38419761D02*
X45362857Y-38467380D01*
X45362857Y-38467380D02*
X45315238Y-38467380D01*
X45315238Y-38467380D02*
X45243810Y-38419761D01*
X45243810Y-38419761D02*
X45196191Y-38324523D01*
X45196191Y-38324523D02*
X45172381Y-38229285D01*
X45172381Y-38229285D02*
X45148572Y-38038809D01*
X45148572Y-38038809D02*
X45148572Y-37895952D01*
X45148572Y-37895952D02*
X45172381Y-37705476D01*
X45172381Y-37705476D02*
X45196191Y-37610238D01*
X45196191Y-37610238D02*
X45243810Y-37515000D01*
X45243810Y-37515000D02*
X45315238Y-37467380D01*
X45315238Y-37467380D02*
X45362857Y-37467380D01*
X45362857Y-37467380D02*
X45434286Y-37515000D01*
X45434286Y-37515000D02*
X45458095Y-37562619D01*
X45624762Y-37467380D02*
X45958095Y-37467380D01*
X45958095Y-37467380D02*
X45743810Y-38467380D01*
X46505714Y-37419761D02*
X46077143Y-38705476D01*
X46600953Y-37467380D02*
X46886667Y-37467380D01*
X46743810Y-38467380D02*
X46743810Y-37467380D01*
X47005714Y-37467380D02*
X47339047Y-38467380D01*
X47339047Y-37467380D02*
X47005714Y-38467380D01*
D11*
%TO.C,PC RX*%
X41753333Y-44367380D02*
X41753333Y-43367380D01*
X41753333Y-43367380D02*
X42020000Y-43367380D01*
X42020000Y-43367380D02*
X42086667Y-43415000D01*
X42086667Y-43415000D02*
X42120000Y-43462619D01*
X42120000Y-43462619D02*
X42153333Y-43557857D01*
X42153333Y-43557857D02*
X42153333Y-43700714D01*
X42153333Y-43700714D02*
X42120000Y-43795952D01*
X42120000Y-43795952D02*
X42086667Y-43843571D01*
X42086667Y-43843571D02*
X42020000Y-43891190D01*
X42020000Y-43891190D02*
X41753333Y-43891190D01*
X42853333Y-44272142D02*
X42820000Y-44319761D01*
X42820000Y-44319761D02*
X42720000Y-44367380D01*
X42720000Y-44367380D02*
X42653333Y-44367380D01*
X42653333Y-44367380D02*
X42553333Y-44319761D01*
X42553333Y-44319761D02*
X42486667Y-44224523D01*
X42486667Y-44224523D02*
X42453333Y-44129285D01*
X42453333Y-44129285D02*
X42420000Y-43938809D01*
X42420000Y-43938809D02*
X42420000Y-43795952D01*
X42420000Y-43795952D02*
X42453333Y-43605476D01*
X42453333Y-43605476D02*
X42486667Y-43510238D01*
X42486667Y-43510238D02*
X42553333Y-43415000D01*
X42553333Y-43415000D02*
X42653333Y-43367380D01*
X42653333Y-43367380D02*
X42720000Y-43367380D01*
X42720000Y-43367380D02*
X42820000Y-43415000D01*
X42820000Y-43415000D02*
X42853333Y-43462619D01*
X43973333Y-44367380D02*
X43740000Y-43891190D01*
X43573333Y-44367380D02*
X43573333Y-43367380D01*
X43573333Y-43367380D02*
X43840000Y-43367380D01*
X43840000Y-43367380D02*
X43906667Y-43415000D01*
X43906667Y-43415000D02*
X43940000Y-43462619D01*
X43940000Y-43462619D02*
X43973333Y-43557857D01*
X43973333Y-43557857D02*
X43973333Y-43700714D01*
X43973333Y-43700714D02*
X43940000Y-43795952D01*
X43940000Y-43795952D02*
X43906667Y-43843571D01*
X43906667Y-43843571D02*
X43840000Y-43891190D01*
X43840000Y-43891190D02*
X43573333Y-43891190D01*
X44206667Y-43367380D02*
X44673333Y-44367380D01*
X44673333Y-43367380D02*
X44206667Y-44367380D01*
%TO.C,GND*%
X52806667Y-43415000D02*
X52740000Y-43367380D01*
X52740000Y-43367380D02*
X52640000Y-43367380D01*
X52640000Y-43367380D02*
X52540000Y-43415000D01*
X52540000Y-43415000D02*
X52473334Y-43510238D01*
X52473334Y-43510238D02*
X52440000Y-43605476D01*
X52440000Y-43605476D02*
X52406667Y-43795952D01*
X52406667Y-43795952D02*
X52406667Y-43938809D01*
X52406667Y-43938809D02*
X52440000Y-44129285D01*
X52440000Y-44129285D02*
X52473334Y-44224523D01*
X52473334Y-44224523D02*
X52540000Y-44319761D01*
X52540000Y-44319761D02*
X52640000Y-44367380D01*
X52640000Y-44367380D02*
X52706667Y-44367380D01*
X52706667Y-44367380D02*
X52806667Y-44319761D01*
X52806667Y-44319761D02*
X52840000Y-44272142D01*
X52840000Y-44272142D02*
X52840000Y-43938809D01*
X52840000Y-43938809D02*
X52706667Y-43938809D01*
X53140000Y-44367380D02*
X53140000Y-43367380D01*
X53140000Y-43367380D02*
X53540000Y-44367380D01*
X53540000Y-44367380D02*
X53540000Y-43367380D01*
X53873333Y-44367380D02*
X53873333Y-43367380D01*
X53873333Y-43367380D02*
X54040000Y-43367380D01*
X54040000Y-43367380D02*
X54140000Y-43415000D01*
X54140000Y-43415000D02*
X54206667Y-43510238D01*
X54206667Y-43510238D02*
X54240000Y-43605476D01*
X54240000Y-43605476D02*
X54273333Y-43795952D01*
X54273333Y-43795952D02*
X54273333Y-43938809D01*
X54273333Y-43938809D02*
X54240000Y-44129285D01*
X54240000Y-44129285D02*
X54206667Y-44224523D01*
X54206667Y-44224523D02*
X54140000Y-44319761D01*
X54140000Y-44319761D02*
X54040000Y-44367380D01*
X54040000Y-44367380D02*
X53873333Y-44367380D01*
D10*
%TO.C,UDC6/RX*%
X39009047Y-37467380D02*
X39009047Y-38276904D01*
X39009047Y-38276904D02*
X39032857Y-38372142D01*
X39032857Y-38372142D02*
X39056666Y-38419761D01*
X39056666Y-38419761D02*
X39104285Y-38467380D01*
X39104285Y-38467380D02*
X39199523Y-38467380D01*
X39199523Y-38467380D02*
X39247142Y-38419761D01*
X39247142Y-38419761D02*
X39270952Y-38372142D01*
X39270952Y-38372142D02*
X39294761Y-38276904D01*
X39294761Y-38276904D02*
X39294761Y-37467380D01*
X39532857Y-38467380D02*
X39532857Y-37467380D01*
X39532857Y-37467380D02*
X39651905Y-37467380D01*
X39651905Y-37467380D02*
X39723333Y-37515000D01*
X39723333Y-37515000D02*
X39770952Y-37610238D01*
X39770952Y-37610238D02*
X39794762Y-37705476D01*
X39794762Y-37705476D02*
X39818571Y-37895952D01*
X39818571Y-37895952D02*
X39818571Y-38038809D01*
X39818571Y-38038809D02*
X39794762Y-38229285D01*
X39794762Y-38229285D02*
X39770952Y-38324523D01*
X39770952Y-38324523D02*
X39723333Y-38419761D01*
X39723333Y-38419761D02*
X39651905Y-38467380D01*
X39651905Y-38467380D02*
X39532857Y-38467380D01*
X40318571Y-38372142D02*
X40294762Y-38419761D01*
X40294762Y-38419761D02*
X40223333Y-38467380D01*
X40223333Y-38467380D02*
X40175714Y-38467380D01*
X40175714Y-38467380D02*
X40104286Y-38419761D01*
X40104286Y-38419761D02*
X40056667Y-38324523D01*
X40056667Y-38324523D02*
X40032857Y-38229285D01*
X40032857Y-38229285D02*
X40009048Y-38038809D01*
X40009048Y-38038809D02*
X40009048Y-37895952D01*
X40009048Y-37895952D02*
X40032857Y-37705476D01*
X40032857Y-37705476D02*
X40056667Y-37610238D01*
X40056667Y-37610238D02*
X40104286Y-37515000D01*
X40104286Y-37515000D02*
X40175714Y-37467380D01*
X40175714Y-37467380D02*
X40223333Y-37467380D01*
X40223333Y-37467380D02*
X40294762Y-37515000D01*
X40294762Y-37515000D02*
X40318571Y-37562619D01*
X40747143Y-37467380D02*
X40651905Y-37467380D01*
X40651905Y-37467380D02*
X40604286Y-37515000D01*
X40604286Y-37515000D02*
X40580476Y-37562619D01*
X40580476Y-37562619D02*
X40532857Y-37705476D01*
X40532857Y-37705476D02*
X40509048Y-37895952D01*
X40509048Y-37895952D02*
X40509048Y-38276904D01*
X40509048Y-38276904D02*
X40532857Y-38372142D01*
X40532857Y-38372142D02*
X40556667Y-38419761D01*
X40556667Y-38419761D02*
X40604286Y-38467380D01*
X40604286Y-38467380D02*
X40699524Y-38467380D01*
X40699524Y-38467380D02*
X40747143Y-38419761D01*
X40747143Y-38419761D02*
X40770952Y-38372142D01*
X40770952Y-38372142D02*
X40794762Y-38276904D01*
X40794762Y-38276904D02*
X40794762Y-38038809D01*
X40794762Y-38038809D02*
X40770952Y-37943571D01*
X40770952Y-37943571D02*
X40747143Y-37895952D01*
X40747143Y-37895952D02*
X40699524Y-37848333D01*
X40699524Y-37848333D02*
X40604286Y-37848333D01*
X40604286Y-37848333D02*
X40556667Y-37895952D01*
X40556667Y-37895952D02*
X40532857Y-37943571D01*
X40532857Y-37943571D02*
X40509048Y-38038809D01*
X41366190Y-37419761D02*
X40937619Y-38705476D01*
X41818571Y-38467380D02*
X41651905Y-37991190D01*
X41532857Y-38467380D02*
X41532857Y-37467380D01*
X41532857Y-37467380D02*
X41723333Y-37467380D01*
X41723333Y-37467380D02*
X41770952Y-37515000D01*
X41770952Y-37515000D02*
X41794762Y-37562619D01*
X41794762Y-37562619D02*
X41818571Y-37657857D01*
X41818571Y-37657857D02*
X41818571Y-37800714D01*
X41818571Y-37800714D02*
X41794762Y-37895952D01*
X41794762Y-37895952D02*
X41770952Y-37943571D01*
X41770952Y-37943571D02*
X41723333Y-37991190D01*
X41723333Y-37991190D02*
X41532857Y-37991190D01*
X41985238Y-37467380D02*
X42318571Y-38467380D01*
X42318571Y-37467380D02*
X41985238Y-38467380D01*
%TO.C,UDC3*%
X57539047Y-37467380D02*
X57539047Y-38276904D01*
X57539047Y-38276904D02*
X57562857Y-38372142D01*
X57562857Y-38372142D02*
X57586666Y-38419761D01*
X57586666Y-38419761D02*
X57634285Y-38467380D01*
X57634285Y-38467380D02*
X57729523Y-38467380D01*
X57729523Y-38467380D02*
X57777142Y-38419761D01*
X57777142Y-38419761D02*
X57800952Y-38372142D01*
X57800952Y-38372142D02*
X57824761Y-38276904D01*
X57824761Y-38276904D02*
X57824761Y-37467380D01*
X58062857Y-38467380D02*
X58062857Y-37467380D01*
X58062857Y-37467380D02*
X58181905Y-37467380D01*
X58181905Y-37467380D02*
X58253333Y-37515000D01*
X58253333Y-37515000D02*
X58300952Y-37610238D01*
X58300952Y-37610238D02*
X58324762Y-37705476D01*
X58324762Y-37705476D02*
X58348571Y-37895952D01*
X58348571Y-37895952D02*
X58348571Y-38038809D01*
X58348571Y-38038809D02*
X58324762Y-38229285D01*
X58324762Y-38229285D02*
X58300952Y-38324523D01*
X58300952Y-38324523D02*
X58253333Y-38419761D01*
X58253333Y-38419761D02*
X58181905Y-38467380D01*
X58181905Y-38467380D02*
X58062857Y-38467380D01*
X58848571Y-38372142D02*
X58824762Y-38419761D01*
X58824762Y-38419761D02*
X58753333Y-38467380D01*
X58753333Y-38467380D02*
X58705714Y-38467380D01*
X58705714Y-38467380D02*
X58634286Y-38419761D01*
X58634286Y-38419761D02*
X58586667Y-38324523D01*
X58586667Y-38324523D02*
X58562857Y-38229285D01*
X58562857Y-38229285D02*
X58539048Y-38038809D01*
X58539048Y-38038809D02*
X58539048Y-37895952D01*
X58539048Y-37895952D02*
X58562857Y-37705476D01*
X58562857Y-37705476D02*
X58586667Y-37610238D01*
X58586667Y-37610238D02*
X58634286Y-37515000D01*
X58634286Y-37515000D02*
X58705714Y-37467380D01*
X58705714Y-37467380D02*
X58753333Y-37467380D01*
X58753333Y-37467380D02*
X58824762Y-37515000D01*
X58824762Y-37515000D02*
X58848571Y-37562619D01*
X59015238Y-37467380D02*
X59324762Y-37467380D01*
X59324762Y-37467380D02*
X59158095Y-37848333D01*
X59158095Y-37848333D02*
X59229524Y-37848333D01*
X59229524Y-37848333D02*
X59277143Y-37895952D01*
X59277143Y-37895952D02*
X59300952Y-37943571D01*
X59300952Y-37943571D02*
X59324762Y-38038809D01*
X59324762Y-38038809D02*
X59324762Y-38276904D01*
X59324762Y-38276904D02*
X59300952Y-38372142D01*
X59300952Y-38372142D02*
X59277143Y-38419761D01*
X59277143Y-38419761D02*
X59229524Y-38467380D01*
X59229524Y-38467380D02*
X59086667Y-38467380D01*
X59086667Y-38467380D02*
X59039048Y-38419761D01*
X59039048Y-38419761D02*
X59015238Y-38372142D01*
D11*
%TO.C,PC TX*%
X37156666Y-44367380D02*
X37156666Y-43367380D01*
X37156666Y-43367380D02*
X37423333Y-43367380D01*
X37423333Y-43367380D02*
X37490000Y-43415000D01*
X37490000Y-43415000D02*
X37523333Y-43462619D01*
X37523333Y-43462619D02*
X37556666Y-43557857D01*
X37556666Y-43557857D02*
X37556666Y-43700714D01*
X37556666Y-43700714D02*
X37523333Y-43795952D01*
X37523333Y-43795952D02*
X37490000Y-43843571D01*
X37490000Y-43843571D02*
X37423333Y-43891190D01*
X37423333Y-43891190D02*
X37156666Y-43891190D01*
X38256666Y-44272142D02*
X38223333Y-44319761D01*
X38223333Y-44319761D02*
X38123333Y-44367380D01*
X38123333Y-44367380D02*
X38056666Y-44367380D01*
X38056666Y-44367380D02*
X37956666Y-44319761D01*
X37956666Y-44319761D02*
X37890000Y-44224523D01*
X37890000Y-44224523D02*
X37856666Y-44129285D01*
X37856666Y-44129285D02*
X37823333Y-43938809D01*
X37823333Y-43938809D02*
X37823333Y-43795952D01*
X37823333Y-43795952D02*
X37856666Y-43605476D01*
X37856666Y-43605476D02*
X37890000Y-43510238D01*
X37890000Y-43510238D02*
X37956666Y-43415000D01*
X37956666Y-43415000D02*
X38056666Y-43367380D01*
X38056666Y-43367380D02*
X38123333Y-43367380D01*
X38123333Y-43367380D02*
X38223333Y-43415000D01*
X38223333Y-43415000D02*
X38256666Y-43462619D01*
X38876666Y-43367380D02*
X39276666Y-43367380D01*
X39076666Y-44367380D02*
X39076666Y-43367380D01*
X39443333Y-43367380D02*
X39909999Y-44367380D01*
X39909999Y-43367380D02*
X39443333Y-44367380D01*
D12*
%TO.C,330*%
X52605000Y-40867064D02*
X52605000Y-40412936D01*
X54075000Y-40867064D02*
X54075000Y-40412936D01*
%TO.C,1K*%
X37365000Y-40867064D02*
X37365000Y-40412936D01*
X38835000Y-40867064D02*
X38835000Y-40412936D01*
%TO.C,150*%
X57685000Y-40867064D02*
X57685000Y-40412936D01*
X59155000Y-40867064D02*
X59155000Y-40412936D01*
%TO.C,330*%
X47525000Y-40867064D02*
X47525000Y-40412936D01*
X48995000Y-40867064D02*
X48995000Y-40412936D01*
%TO.C,1K*%
X42445000Y-40867064D02*
X42445000Y-40412936D01*
X43915000Y-40867064D02*
X43915000Y-40412936D01*
%TD*%
M02*
